<svg xmlns="http://www.w3.org/2000/svg" viewBox="0 0 3276.32 313.33"><defs><style>.cls-1{fill:none;stroke:#7ffff9;stroke-linecap:round;stroke-linejoin:round;stroke-width:24px;stroke-dasharray:36 32;}</style></defs><title>Asset 2</title><g id="Layer_2" data-name="Layer 2"><g id="_лой_1" data-name="‘лой_1"><path class="cls-1" d="M3268.82,252.92C2859.79,197,2470.84,8.15,2058,7.5c-103.2-.16-209,12.36-300.87,59.32-30.5,15.58-62.57,41-61.47,75.22,1.11,34.66,35.31,57.82,66.45,73.08a894.56,894.56,0,0,0,468.45,87.42c30.28-2.63,65.51-10.4,77.88-38.17,14.13-31.73-11.49-67-39-88.16-73.71-56.83-169.36-76-261.94-85.54-325.36-33.69-651.7,29.9-976.18,71.16S366.85,220.29,62.69,100C39.31,90.72,13.4,77.5,7.5,53.06"/></g></g></svg>