<svg xmlns="http://www.w3.org/2000/svg" viewBox="0 0 2556.33 1458.73"><defs><style>.cls-1{fill:#fff;}.cls-2{fill:#e4fafe;}.cls-23,.cls-3{opacity:0.5;}.cls-4{fill:#aac9f5;}.cls-5{fill:#2b478b;}.cls-6{fill:#dde7fe;}.cls-7{fill:#233862;}.cls-8{fill:#ffb27d;}.cls-9{fill:#ed985f;}.cls-10{fill:#2c3a64;}.cls-11{fill:#f99746;}.cls-12{fill:#cfdeff;}.cls-13{fill:#aec3ff;}.cls-14{fill:#1f1f89;}.cls-15{fill:#f77d48;}.cls-16{fill:#37387a;}.cls-17{fill:#ffb93e;}.cls-18{fill:#ffa412;}.cls-19{fill:#ffeddc;}.cls-20{fill:#db6a1d;}.cls-21{fill:#e5c1a1;}.cls-22{fill:#f9ddbf;}.cls-23,.cls-24{fill:#e2810e;}.cls-25{fill:#ed7d2b;}.cls-26{fill:#ed975d;}.cls-27{fill:#8ea3ed;}.cls-28{fill:#ebf3fa;}.cls-29{fill:#2a539b;}.cls-30{fill:#4075c1;}.cls-31{fill:#163560;}.cls-32{fill:#d35b31;}.cls-33{fill:#e8945b;}.cls-34{fill:#2e3552;}</style></defs><title>Asset 1</title><g id="Layer_2" data-name="Layer 2"><g id="_лой_1" data-name="‘лой_1"><path class="cls-1" d="M131.85,1454.32s-285.47-273.24,4.08-668.82C394.64,432,201.46,263.17,467,90.94c268.41-174.09,496.78-68,753.71,66.52s611.72-187.59,995.07-16.31,328.23,433.1,233.4,702.29c-80.05,227.23,163.37,391.43,30.59,611.26C2479.78,1454.7,123.69,1446.16,131.85,1454.32Z"/><path class="cls-2" d="M1603.5,462.53s40.42-169.47,175.43-187.79c0,0,26.27-3.16,34.94,25.78s-43.54,29-75.84,40.57S1630.38,401.77,1603.5,462.53Z"/><path class="cls-2" d="M1606,494.65s77.4-156.08,213.08-143.65c0,0,26.31,2.82,28.27,33s-48.94,18.51-83,22.52S1645.8,441.46,1606,494.65Z"/><path class="cls-2" d="M2013.4,1144.67s40.42-169.47,175.42-187.78c0,0,26.27-3.17,34.94,25.77s-43.53,29-75.83,40.57S2040.27,1083.91,2013.4,1144.67Z"/><path class="cls-2" d="M2017.76,1089.08s-22.15-172.8,97.64-237.7c0,0,23.45-12.25,41.8,11.75s-30.45,42.54-56.58,64.77S2021.4,1022.74,2017.76,1089.08Z"/><path class="cls-2" d="M2423,1124.8c-15.22-64.66-124.16-48.29-124.16-48.29s-77.3,109.67-98.77,111.62,47.75-106.65,47.75-106.65c-41.3-5.4-148.6,41.77-148.6,41.77s2.27,131-19,127.66,3.92-116.14,3.92-116.14c-40.51,10.66-79.51,56.12-79.51,56.12-49.34,74.52,49,134,49,134s-.2,45.44-30,96.55h0s-6.66,9.4-13.65,25.52l10.93.37c1-2.9,2.07-5.7,3.25-8.38a.13.13,0,0,1,0,0,.54.54,0,0,1,0-.11c.81-1.67,2-4,3.4-6.91h0c3.56-6.42,6-11.17,7.52-14.6,0,0,0,0,0,0,10.7-20.16,26-46.38,35.82-51.66a21.26,21.26,0,0,1-2.17-5.08l2.17,5.08c17.36,40.68,110.7,50.51,163.19,41.59s30.26-24.38,3-49.16-86.29-20.48-103.36-30.41,8.65-18.42,43.32-14.58,50.87,39.14,106.83,46.37,102.28-96.79,102.28-96.79c-39.17,10.71-107.95-13-110.18-26.43s100.66-8.64,116.83-12.1S2438.19,1189.47,2423,1124.8Z"/><path class="cls-2" d="M419.65,555.84c15.22-64.66,124.16-48.29,124.16-48.29s77.3,109.67,98.77,111.62-47.75-106.65-47.75-106.65c41.3-5.4,148.6,41.77,148.6,41.77s-2.27,131.05,19,127.66-3.92-116.14-3.92-116.14c40.51,10.66,79.51,56.13,79.51,56.13,49.34,74.51-49,134-49,134s.2,45.44,30,96.56h0s6.66,9.4,13.65,25.52l-10.93.37c-1-2.9-2.07-5.7-3.25-8.38a.13.13,0,0,0,0-.05.54.54,0,0,0,0-.11c-.81-1.67-2-4-3.4-6.91h0c-3.56-6.42-6-11.17-7.52-14.6,0,0,0,0,0,0-10.7-20.16-26-46.38-35.82-51.66a21.26,21.26,0,0,0,2.17-5.08l-2.17,5.08c-17.36,40.68-110.7,50.51-163.19,41.59s-30.26-24.38-3-49.16,86.29-20.48,103.35-30.41-8.64-18.42-43.31-14.58-50.87,39.14-106.83,46.37S456.41,693.6,456.41,693.6c39.17,10.71,108-13,110.18-26.43s-100.66-8.64-116.83-12.1S404.44,620.51,419.65,555.84Z"/><path class="cls-2" d="M1082.19,239.79c32-61.28,137.59-16.73,137.59-16.73s49.69,130.45,70.84,137.94-20.69-119.8-20.69-119.8c43,5.18,139.06,80.35,139.06,80.35s-36,131.53-13.69,133.59,26-118.09,26-118.09c38.09,21.18,65.7,77.05,65.7,77.05,30.57,87.82-83.89,122.43-83.89,122.43s-11.5,45.85,5.41,105.06h0s4.3,11.19,7.19,29.24l-11.11-2.44c-.26-3.18-.62-6.27-1.12-9.28a.07.07,0,0,0,0-.05l0-.13c-.38-1.89-.94-4.57-1.65-7.84h0s0,0,0,0c-1.93-7.39-3.15-12.79-3.82-16.65a.08.08,0,0,1,0,0c-5.59-23.08-14.28-53.45-22.81-61.3a22.11,22.11,0,0,0,3.5-4.57l-3.5,4.57c-28,36.54-124.6,22.43-175.21-.08s-24.24-32.36,9.63-50.32,92.26,1.56,112-4.06-4-20.79-39.91-25.84S1220.26,519.13,1162,512s-78.2-123.9-78.2-123.9c36.72,20.87,112.17,14.68,117.87,1.71s-99.25-34.61-114.66-42.27S1050.2,301.06,1082.19,239.79Z"/><g class="cls-3"><path class="cls-4" d="M2351.17,331.3l61.77,236.33a19.67,19.67,0,0,1-14,23.92L1984.36,699.92a19.66,19.66,0,0,1-23.92-14l-61.78-236.33a19.66,19.66,0,0,1,14-23.91l414.58-108.38A19.67,19.67,0,0,1,2351.17,331.3Z"/><path class="cls-5" d="M2179.26,598.48l-110.49,28.88a8.81,8.81,0,0,1-10.72-6.28l-.28-1.06a8.81,8.81,0,0,1,6.28-10.72l110.49-28.88a8.8,8.8,0,0,1,10.72,6.27l.28,1.07A8.81,8.81,0,0,1,2179.26,598.48Z"/><path class="cls-5" d="M2121.45,490.63a21.29,21.29,0,0,1,.48,10.45,9.63,9.63,0,0,1-16.37,4.28,25.33,25.33,0,0,1-5.21-19.75,9.69,9.69,0,0,1,16.45-4.3A21.18,21.18,0,0,1,2121.45,490.63Zm-5.07,1.3a20.87,20.87,0,0,0-2.53-6.14c-1.55-2.34-3.33-3.26-5.33-2.73s-3.18,2.19-3.37,5a20.29,20.29,0,0,0,.78,6.64q2.7,10.31,8,8.93c2-.53,3.13-2.21,3.3-5A21.06,21.06,0,0,0,2116.38,491.93Z"/><path class="cls-5" d="M2144.14,484.7a21.29,21.29,0,0,1,.48,10.45,9.63,9.63,0,0,1-16.37,4.28,25.23,25.23,0,0,1-5.21-19.75,9.69,9.69,0,0,1,16.45-4.3A21.29,21.29,0,0,1,2144.14,484.7Zm-5.08,1.3a21.15,21.15,0,0,0-2.52-6.14c-1.56-2.34-3.33-3.26-5.34-2.73s-3.17,2.19-3.36,5a20.29,20.29,0,0,0,.78,6.64q2.68,10.31,8,8.93,3-.8,3.31-5A20.82,20.82,0,0,0,2139.06,486Z"/><path class="cls-5" d="M2178.52,475.71a21.29,21.29,0,0,1,.48,10.45,9.62,9.62,0,0,1-16.37,4.28,25.33,25.33,0,0,1-5.21-19.75,9.7,9.7,0,0,1,16.45-4.3A21.24,21.24,0,0,1,2178.52,475.71Zm-5.07,1.31a21.1,21.1,0,0,0-2.53-6.15q-2.33-3.51-5.33-2.73c-2.06.54-3.18,2.19-3.37,5a20.26,20.26,0,0,0,.78,6.64q2.7,10.31,8,8.93c2-.53,3.13-2.21,3.3-5A21.06,21.06,0,0,0,2173.45,477Z"/><path class="cls-5" d="M2201.21,469.78a21.29,21.29,0,0,1,.48,10.45,9.62,9.62,0,0,1-16.37,4.28,25.23,25.23,0,0,1-5.21-19.75,9.7,9.7,0,0,1,16.45-4.3A21.45,21.45,0,0,1,2201.21,469.78Zm-5.08,1.31a21.1,21.1,0,0,0-2.52-6.15q-2.34-3.51-5.34-2.73c-2.05.54-3.17,2.19-3.36,5a20.29,20.29,0,0,0,.78,6.64q2.68,10.31,7.95,8.93,3-.79,3.31-5A20.75,20.75,0,0,0,2196.13,471.09Z"/><path class="cls-5" d="M2223.89,463.85a21.18,21.18,0,0,1,.49,10.45,9.64,9.64,0,0,1-16.38,4.28,25.27,25.27,0,0,1-5.2-19.75,9.7,9.7,0,0,1,16.45-4.3A21.34,21.34,0,0,1,2223.89,463.85Zm-5.07,1.31a21.1,21.1,0,0,0-2.52-6.15q-2.34-3.51-5.34-2.73t-3.37,5a20.84,20.84,0,0,0,.78,6.64q2.7,10.31,8,8.93,3-.79,3.31-5A21,21,0,0,0,2218.82,465.16Z"/><path class="cls-5" d="M2246.58,457.92a21.29,21.29,0,0,1,.48,10.45,9.63,9.63,0,0,1-16.37,4.28,25.27,25.27,0,0,1-5.2-19.75,9.69,9.69,0,0,1,16.45-4.3A21.28,21.28,0,0,1,2246.58,457.92Zm-5.07,1.3a21.15,21.15,0,0,0-2.52-6.14c-1.56-2.34-3.34-3.26-5.34-2.73s-3.18,2.19-3.37,5a20.29,20.29,0,0,0,.78,6.64q2.7,10.31,8,8.93,3-.79,3.3-5A21.06,21.06,0,0,0,2241.51,459.22Z"/><path class="cls-5" d="M2281,448.93a21.18,21.18,0,0,1,.49,10.45,9.63,9.63,0,0,1-16.38,4.28,25.27,25.27,0,0,1-5.2-19.75,9.7,9.7,0,0,1,16.45-4.3A21.34,21.34,0,0,1,2281,448.93Zm-5.07,1.31a20.91,20.91,0,0,0-2.52-6.14q-2.34-3.53-5.34-2.74c-2.05.54-3.18,2.19-3.37,5a20.81,20.81,0,0,0,.78,6.64q2.7,10.3,8,8.93c2-.53,3.13-2.2,3.31-5A21.11,21.11,0,0,0,2275.89,450.24Z"/><path class="cls-5" d="M2303.65,443a21.29,21.29,0,0,1,.48,10.45,9.62,9.62,0,0,1-16.37,4.28,25.33,25.33,0,0,1-5.21-19.75,9.7,9.7,0,0,1,16.45-4.3A21.24,21.24,0,0,1,2303.65,443Zm-5.07,1.31a20.64,20.64,0,0,0-2.53-6.14q-2.33-3.53-5.33-2.74c-2.06.54-3.18,2.19-3.37,5a20.26,20.26,0,0,0,.78,6.64q2.7,10.31,8,8.93c2-.53,3.13-2.21,3.3-5A21.06,21.06,0,0,0,2298.58,444.31Z"/><path class="cls-5" d="M2326.34,437.07a21.29,21.29,0,0,1,.48,10.45,9.62,9.62,0,0,1-16.37,4.28,25.23,25.23,0,0,1-5.21-19.75,9.7,9.7,0,0,1,16.45-4.3A21.35,21.35,0,0,1,2326.34,437.07Zm-5.08,1.31a21.1,21.1,0,0,0-2.52-6.15c-1.56-2.34-3.33-3.25-5.34-2.73s-3.17,2.19-3.36,5a20.26,20.26,0,0,0,.78,6.64q2.68,10.31,8,8.93,3-.8,3.3-5A20.75,20.75,0,0,0,2321.26,438.38Z"/><path class="cls-5" d="M2349,431.14a21.29,21.29,0,0,1,.48,10.45,9.62,9.62,0,0,1-16.37,4.28,25.23,25.23,0,0,1-5.21-19.75,9.7,9.7,0,0,1,16.45-4.3A21.45,21.45,0,0,1,2349,431.14Zm-5.08,1.31a21.1,21.1,0,0,0-2.52-6.15q-2.34-3.51-5.34-2.73t-3.36,5a20.52,20.52,0,0,0,.77,6.64q2.7,10.31,8,8.93,3-.8,3.31-5A20.75,20.75,0,0,0,2344,432.45Z"/><path class="cls-5" d="M2049.87,428.39l-108.13,28.27a8.81,8.81,0,0,1-10.72-6.28h0a8.81,8.81,0,0,1,6.28-10.72l108.13-28.27a8.82,8.82,0,0,1,10.72,6.28h0A8.81,8.81,0,0,1,2049.87,428.39Z"/><path class="cls-5" d="M2311.46,379.34a13.42,13.42,0,0,0-5-7.41,1.44,1.44,0,0,0-2.11.44l-.37.64a1.43,1.43,0,0,0,.37,1.85,9.87,9.87,0,0,1,3.1,11.87,1.43,1.43,0,0,0,.58,1.79l.65.39a1.44,1.44,0,0,0,2.05-.65A13.44,13.44,0,0,0,2311.46,379.34Z"/><path class="cls-5" d="M2318.47,377.51a20.67,20.67,0,0,0-8.47-11.94,1.45,1.45,0,0,0-2,.49l-.21.37a1.44,1.44,0,0,0,.46,1.91,17.41,17.41,0,0,1,5.8,22.19,1.44,1.44,0,0,0,.54,1.89l.36.21a1.43,1.43,0,0,0,2-.56A20.59,20.59,0,0,0,2318.47,377.51Z"/><path class="cls-5" d="M2324.61,375.91a27,27,0,0,0-11.46-15.86,1.43,1.43,0,0,0-2,.5h0a1.42,1.42,0,0,0,.46,1.91,24.15,24.15,0,0,1,8.25,31.54,1.43,1.43,0,0,0,.53,1.9h0a1.44,1.44,0,0,0,2-.56A27,27,0,0,0,2324.61,375.91Z"/><path class="cls-5" d="M2331.26,374.17a33.85,33.85,0,0,0-14.69-20.09,1.45,1.45,0,0,0-2,.5l-.37.64a1.43,1.43,0,0,0,.48,1.92,30.32,30.32,0,0,1,10.45,40,1.43,1.43,0,0,0,.53,1.91l.63.37a1.44,1.44,0,0,0,2-.55A33.84,33.84,0,0,0,2331.26,374.17Z"/></g><rect class="cls-5" x="674.12" y="500.4" width="1367.28" height="928.25" rx="33.78"/><rect class="cls-6" x="704.95" y="532.83" width="1305.6" height="886.38"/><rect class="cls-5" x="511.54" y="1392.58" width="1692.42" height="59.42" rx="24.29"/><rect class="cls-1" x="704.95" y="532.83" width="1305.6" height="862.83"/><path class="cls-7" d="M269.52,1456.34s0-12.77,1.93-17,9-21.55,9-21.55h27.62s5.14,15.78,5.46,20.94,0,17.63,0,17.63Z"/><path class="cls-7" d="M444.89,1456.34s0-12.77-1.93-17-9-21.55-9-21.55H406.35s-5.14,15.78-5.46,20.94,0,17.63,0,17.63Z"/><path class="cls-8" d="M334.23,739.32s-1,28.44-4.82,41.19l-30.5,20.1,114.81,16.23L386.34,781.1s-8.27-38.14-3.93-52.25S334.23,739.32,334.23,739.32Z"/><path class="cls-9" d="M334.07,743.25s9.08,20.64,26.18,20.19,21-18.73,21-18.73Z"/><path class="cls-10" d="M323.86,726.53s-5.52-26-9.38-33.94-7.06-43.09,35.65-44.91c0,0,16.38,1.82,25.37-3.33,0,0,0,5.15-2.25,7a29.54,29.54,0,0,1,26.34,8.8c11.56,12.14-7.71,54.62-6.74,64.63Z"/><path class="cls-8" d="M358.29,755.46c-12.39-.21-35.2-15.79-35.2-35.1V690.24c0-7,5.2-12.82,11.56-12.82h47.28c6.36,0,11.56,5.77,11.56,12.82v28.42C393.49,738.9,372.5,755.7,358.29,755.46Z"/><path class="cls-10" d="M323.09,706.32s.06-18.1,15.24-20.88,49.14,8.82,53.95-4.38-65.64-13-69.19-4.55S323.09,706.32,323.09,706.32Z"/><path class="cls-5" d="M273,1013.93s4.83,139.41-2.39,219,.05,190.25.05,190.25,23.11,12,48.16,0c0,0,27.47-153.68,27.3-190.25-.19-39,29.9-212.88,29.9-212.88Z"/><path class="cls-5" d="M443.89,1423.13s-23.11,12-48.16,0c0,0-27.47-153.67-27.29-190.24.07-16.45-5.24-57-11.42-98.31C348.57,1078,338.53,1020,338.53,1020l107-6.32s-8.82,139.66-1.59,219.2S443.89,1423.13,443.89,1423.13Z"/><path class="cls-11" d="M444.26,1037.12s-45.62,8.35-87.24,8.35c-18.15,0-37.87-1.88-53.58-3.87-17.36-2.17-29.81-4.48-29.81-4.48s-9.25.77-3.79-42.32C274,962,272.7,932.41,271.77,902c-.11-3.39,0-7.4.19-11.86,1.78-35.51,13.15-99.43,21.81-102.87,0,0,12.88-4.52,35.64-6.72,0,.42,13.21,18.66,28.88,20.71,9.74-3.65,17.39-6.75,28-20.12a320.09,320.09,0,0,1,44,8s1.64,6.77,7.83,124.27C440.58,959.92,457.4,1037.28,444.26,1037.12Z"/><path class="cls-7" d="M368.44,1232.89c.07-16.45-5.24-57-11.42-98.31,6.41-24.69,22-48.45,22-48.45C398.79,1138.47,368.44,1232.89,368.44,1232.89Z"/><path class="cls-11" d="M229.61,927.1c-1.09.85,2.71,9.74,8.29,21.32,11.51,23.78,30.61,58.91,30.61,58.91a100,100,0,0,1-5.8,16c-32.14-23.86-52.86-44.16-66.09-59.73-18.6-21.89-22.41-34.44-22.41-34.44,71.57-137.63,121.93-142.71,121.93-142.71l-5.95,91S232.92,924.49,229.61,927.1Z"/><path class="cls-8" d="M264.7,1009.06s17.34-15.17,24.41-6.67,8.35,21.84,2.89,20.93-16.7-5.76-18.31-3.34-8.8,7.07-11,3.39S264.7,1009.06,264.7,1009.06Z"/><path class="cls-8" d="M268.51,1007.33a100,100,0,0,1-5.8,16c-32.14-23.86-52.86-44.16-66.09-59.73,10-.7,24.53-4.06,41.28-15.22C249.41,972.2,268.51,1007.33,268.51,1007.33Z"/><path class="cls-11" d="M544.93,929.2s-3.82,12.55-22.41,34.44c-13.23,15.57-34,35.87-66.1,59.73a101.18,101.18,0,0,1-5.8-16s19.11-35.13,30.61-58.91c5.59-11.58,9.39-20.47,8.3-21.32-2.57-2-37.56-30.74-53.17-43.55l-7.42-6.1-3.57-89.61S473.36,791.57,544.93,929.2Z"/><path class="cls-8" d="M454.43,1009.06s-17.34-15.17-24.41-6.67-8.35,21.84-2.89,20.93,16.7-5.76,18.31-3.34,8.8,7.07,11,3.39S454.43,1009.06,454.43,1009.06Z"/><path class="cls-8" d="M450.62,1007.33a100,100,0,0,0,5.8,16c32.14-23.86,52.87-44.16,66.09-59.73-10-.7-24.53-4.06-41.28-15.22C469.73,972.2,450.62,1007.33,450.62,1007.33Z"/><path class="cls-5" d="M331,773.57a11.82,11.82,0,0,0-6.55,7.47s20.45,19.87,33.83,20.18Z"/><path class="cls-5" d="M358.29,801.22l26.4-28.65s5.45,3.39,5.37,9C390.06,781.53,369.64,802,358.29,801.22Z"/><path class="cls-5" d="M353.53,799.11s-20.14,164.3-13.13,184.33a133.25,133.25,0,0,0,12.29,25.45,7.36,7.36,0,0,0,12.36,0c5.35-8.77,12.34-21.47,12.34-27.92,0-10.44-15.29-182-15.29-182Z"/><path class="cls-5" d="M348.26,791.05s12.18-1.15,19.59-.44a1.93,1.93,0,0,1,1.57,2.88c-2.08,3.53-6.32,9.66-10.75,9.66C352.44,803.15,342.74,791.46,348.26,791.05Z"/><path class="cls-1" d="M348.42,736.06a13.77,13.77,0,0,0,10.6,4.75,12.74,12.74,0,0,0,9.91-4.75S357.55,734.29,348.42,736.06Z"/><rect class="cls-12" x="1012.54" y="432.27" width="844.37" height="899.18"/><rect class="cls-5" x="1456.52" y="1169.61" width="161.38" height="10.44" rx="0.25"/><rect class="cls-5" x="1456.52" y="1145.88" width="201.36" height="10.44" rx="0.24"/><rect class="cls-13" x="1085.78" y="584.11" width="697.88" height="491.01"/><rect class="cls-14" x="1249.43" y="556.4" width="1.12" height="518.72"/><rect class="cls-14" x="1686.44" y="556.4" width="1.12" height="518.72"/><rect class="cls-14" x="1323.64" y="556.4" width="1.12" height="518.72"/><rect class="cls-14" x="1085.78" y="983.25" width="697.88" height="1.12"/><rect class="cls-14" x="1085.78" y="880.49" width="697.88" height="1.12"/><rect class="cls-14" x="1085.78" y="777.73" width="697.88" height="1.12"/><rect class="cls-14" x="1085.78" y="674.97" width="697.88" height="1.12"/><rect class="cls-2" x="1085.78" y="495.32" width="697.88" height="99.64"/><path class="cls-15" d="M1717.79,1247c-15.73,4.81-31.08,7.32-43.15,6.38-18.39-1.45-28.75-10.56-29.16-25.64-.33-12,4.93-22.45,15.24-31-.1-.81-.18-1.63-.25-2.45-.67-8.44,1.24-14.05,5.68-16.66,7.18-4.23,17.85,1.55,18.3,1.8l-2.39,3.85c-2.39-1.31-9.49-4.2-13.42-1.87-3.39,2-3.79,7.53-3.5,12,8.39-5.73,19.35-10.41,32.71-13.82a185.22,185.22,0,0,1,30.82-5,23.88,23.88,0,0,1,.27-2.76c.32-2.07,1.08-4.49,3.24-5,.82-.17,2.4-.15,3.81,1.88a10.34,10.34,0,0,1,1.45,5.42c3.42-.07,6.6,0,9.42.18l.08-.17a48.24,48.24,0,0,1,.73-15.54c1.19-5.17,3.16-7.78,5.91-8a3.61,3.61,0,0,1,3.74,2.19c1.54,3.5-1.34,13-5.52,22a.09.09,0,0,0,0,0c3.91.63,6.57,1.65,7.41,3.08a3.21,3.21,0,0,1-1,4.19c-3.17,2.75-5.69,2.06-6.91,1.4a6.44,6.44,0,0,1-2.53-2.74c-3.17,5.91-6.61,11-9.32,13.1a4.87,4.87,0,0,1-5.5.75,5.26,5.26,0,0,1-1.19-.9,59.36,59.36,0,0,1-3.6,7c-4.94,8.19-10.51,12.41-16.1,12.16a9.38,9.38,0,0,1-6-2.52,82.37,82.37,0,0,1-10.83,16.83c-3.93,4.57-8.94,6.25-14.12,4.73-9.17-2.71-17.46-15.23-20.56-30.07-7.83,7.23-11.65,15.8-11.38,25.63.35,12.86,8.71,20,24.83,21.3,40.71,3.2,112.08-32.54,117.49-58.84h0C1788.12,1211.51,1754.25,1235.88,1717.79,1247Zm-52.06-48.42c2.48,15.65,10.78,27.15,17.82,29.23,3.3,1,6.34-.14,9-3.28A75.88,75.88,0,0,0,1704,1206.2a25.77,25.77,0,0,1-2-5.82c-1.15-5.16-1.33-12.24,0-17.1a123.69,123.69,0,0,0-22.28,7.33A73.25,73.25,0,0,0,1665.73,1198.62Zm43.45,7.32a5.47,5.47,0,0,0,4.16,2.67c3.57.14,7.88-3.46,11.78-9.91a57.09,57.09,0,0,0,4.87-10.4,41.79,41.79,0,0,1-1.32-9.07c-5.24.39-11,1.06-16.83,2.07C1714.9,1186.93,1713.13,1196.45,1709.18,1205.94Zm25.74-17.56c.74,2.1,1.4,2.5,1.41,2.51,2.63-2.14,5.65-6.79,8.4-12.07-2.25-.08-4.77-.09-7.53,0A51.94,51.94,0,0,1,1734.92,1188.38Zm-27.73-5.74c-1.2,2.37-2.07,9.95-.6,16.69C1709,1191.94,1709.44,1185.54,1707.19,1182.64Zm46.52-2.84h0Zm-.7-22.9a25.68,25.68,0,0,0-1.12,4.67A32.12,32.12,0,0,0,1753,1156.9Z"/><path class="cls-16" d="M1140.12,527.37h6.24V562.9h-6.24Z"/><path class="cls-16" d="M1155.86,527.37h5.78l19,24.57V527.37h6.14V562.9h-5.23L1162,537.62V562.9h-6.14Z"/><path class="cls-16" d="M1192.92,527.37h6.9l10.71,27.31,10.66-27.31H1228l-14.78,35.79h-5.48Z"/><path class="cls-16" d="M1230.28,545.14a18.58,18.58,0,1,1,18.53,18.37A18.21,18.21,0,0,1,1230.28,545.14Zm30.61,0c0-6.91-5-12.65-12.08-12.65s-12,5.64-12,12.65,5,12.64,12.08,12.64S1260.89,552.14,1260.89,545.14Z"/><path class="cls-16" d="M1275.36,527.37h6.25V562.9h-6.25Z"/><path class="cls-16" d="M1289.53,545.14a18,18,0,0,1,18.32-18.38,18.51,18.51,0,0,1,13.91,5.53l-4,4.62c-2.84-2.64-5.89-4.42-10-4.42-6.8,0-11.72,5.59-11.72,12.65s4.92,12.64,11.72,12.64c4.37,0,7.16-1.78,10.21-4.62l4,4.06c-3.71,3.86-7.77,6.29-14.42,6.29C1297.24,563.51,1289.53,555.44,1289.53,545.14Z"/><path class="cls-16" d="M1328.57,527.37h26.35V533h-20.11v9.24h17.82v5.59h-17.82v9.54h20.36v5.58h-26.6Z"/><path class="cls-15" d="M959.22,1454.19,602.54,1452a28.79,28.79,0,0,1-28.61-29l2.33-374.89a28.79,28.79,0,0,1,29-28.61l356.68,2.22a28.78,28.78,0,0,1,28.61,29l-2.33,374.89A28.78,28.78,0,0,1,959.22,1454.19Z"/><path class="cls-13" d="M953.82,1119.88l-341.72-2.12A12.67,12.67,0,0,1,599.52,1105l.27-43.39a12.66,12.66,0,0,1,12.74-12.58l341.72,2.12a12.67,12.67,0,0,1,12.58,12.74l-.27,43.39A12.66,12.66,0,0,1,953.82,1119.88Z"/><path class="cls-5" d="M726.43,1287l-29.26-.18A13.23,13.23,0,0,1,684,1273.46l.18-29.25a13.24,13.24,0,0,1,13.32-13.16l29.25.18a13.25,13.25,0,0,1,13.16,13.32l-.19,29.26A13.22,13.22,0,0,1,726.43,1287Z"/><path class="cls-5" d="M726,1355.35l-29.25-.18a13.24,13.24,0,0,1-13.16-13.32l.18-29.26a13.23,13.23,0,0,1,13.32-13.15l29.26.18a13.23,13.23,0,0,1,13.15,13.32l-.18,29.25A13.24,13.24,0,0,1,726,1355.35Z"/><path class="cls-5" d="M725.58,1423.73l-29.26-.18a13.22,13.22,0,0,1-13.15-13.32l.18-29.25a13.24,13.24,0,0,1,13.32-13.16l29.25.19a13.24,13.24,0,0,1,13.16,13.32l-.19,29.25A13.22,13.22,0,0,1,725.58,1423.73Z"/><path class="cls-5" d="M800.07,1287.42l-29.25-.18a13.25,13.25,0,0,1-13.16-13.32l.19-29.26a13.22,13.22,0,0,1,13.31-13.15l29.26.18A13.23,13.23,0,0,1,813.57,1245l-.18,29.26A13.23,13.23,0,0,1,800.07,1287.42Z"/><path class="cls-5" d="M799.65,1355.81l-29.26-.19a13.22,13.22,0,0,1-13.15-13.31l.18-29.26a13.23,13.23,0,0,1,13.32-13.15l29.25.18a13.24,13.24,0,0,1,13.16,13.32l-.18,29.25A13.25,13.25,0,0,1,799.65,1355.81Z"/><path class="cls-5" d="M799.22,1424.19,770,1424a13.24,13.24,0,0,1-13.16-13.32l.18-29.25a13.25,13.25,0,0,1,13.32-13.16l29.26.19a13.22,13.22,0,0,1,13.15,13.31l-.18,29.26A13.23,13.23,0,0,1,799.22,1424.19Z"/><path class="cls-5" d="M870.66,1356.25l-29.25-.18a13.25,13.25,0,0,1-13.16-13.32l.19-29.26a13.23,13.23,0,0,1,13.32-13.15l29.25.18a13.24,13.24,0,0,1,13.16,13.32l-.19,29.25A13.24,13.24,0,0,1,870.66,1356.25Z"/><path class="cls-5" d="M870.24,1424.64l-29.26-.19a13.23,13.23,0,0,1-13.15-13.32l.18-29.25a13.25,13.25,0,0,1,13.32-13.16l29.26.19a13.22,13.22,0,0,1,13.15,13.31l-.18,29.26A13.25,13.25,0,0,1,870.24,1424.64Z"/><path class="cls-11" d="M656.57,1206.23l-29.26-.18a13.23,13.23,0,0,1-13.15-13.32l.1-17.35a13.23,13.23,0,0,1,13.32-13.15l29.26.18A13.23,13.23,0,0,1,670,1175.73l-.11,17.35A13.22,13.22,0,0,1,656.57,1206.23Z"/><path class="cls-11" d="M656.12,1277.94l-29.26-.18a13.23,13.23,0,0,1-13.15-13.32l.11-17.35a13.24,13.24,0,0,1,13.32-13.16l29.25.18a13.25,13.25,0,0,1,13.16,13.32l-.11,17.35A13.24,13.24,0,0,1,656.12,1277.94Z"/><path class="cls-11" d="M655.67,1349.64l-29.25-.18a13.24,13.24,0,0,1-13.16-13.32l.11-17.35a13.23,13.23,0,0,1,13.32-13.15l29.26.18a13.23,13.23,0,0,1,13.15,13.32l-.11,17.35A13.23,13.23,0,0,1,655.67,1349.64Z"/><path class="cls-11" d="M655.23,1421.35l-29.26-.18a13.23,13.23,0,0,1-13.15-13.32l.11-17.35a13.24,13.24,0,0,1,13.32-13.16l29.25.18a13.23,13.23,0,0,1,13.15,13.32l-.1,17.35A13.25,13.25,0,0,1,655.23,1421.35Z"/><path class="cls-11" d="M726.85,1218.58l-29.25-.19a13.24,13.24,0,0,1-13.16-13.32l.18-29.25a13.23,13.23,0,0,1,13.32-13.15l29.26.18a13.23,13.23,0,0,1,13.15,13.32l-.18,29.25A13.25,13.25,0,0,1,726.85,1218.58Z"/><path class="cls-11" d="M800.5,1219l-29.26-.18a13.23,13.23,0,0,1-13.15-13.32l.18-29.25a13.25,13.25,0,0,1,13.32-13.16l29.25.19A13.23,13.23,0,0,1,814,1176.62l-.18,29.26A13.23,13.23,0,0,1,800.5,1219Z"/><path class="cls-11" d="M871.52,1219.47l-29.26-.18A13.23,13.23,0,0,1,829.11,1206l.18-29.25a13.24,13.24,0,0,1,13.32-13.16l29.25.19A13.24,13.24,0,0,1,885,1177.07l-.19,29.25A13.22,13.22,0,0,1,871.52,1219.47Z"/><path class="cls-11" d="M937.83,1288.61l-29.26-.19a13.23,13.23,0,0,1-13.15-13.32l.18-29.25a13.23,13.23,0,0,1,13.32-13.15l29.26.18a13.23,13.23,0,0,1,13.15,13.32l-.18,29.25A13.25,13.25,0,0,1,937.83,1288.61Z"/><path class="cls-11" d="M938.26,1220.22,909,1220a13.23,13.23,0,0,1-13.15-13.32l.18-29.26a13.23,13.23,0,0,1,13.32-13.15l29.25.18a13.25,13.25,0,0,1,13.16,13.32l-.19,29.25A13.23,13.23,0,0,1,938.26,1220.22Z"/><path class="cls-11" d="M937,1425.38l-29.26-.18a13.23,13.23,0,0,1-13.15-13.32l.61-97.64a13.24,13.24,0,0,1,13.32-13.16l29.25.18a13.25,13.25,0,0,1,13.16,13.32l-.61,97.64A13.25,13.25,0,0,1,937,1425.38Z"/><path class="cls-5" d="M719.39,1083.51l.06-9.37,1.36-3.56a2.87,2.87,0,0,1,2.22,2.25l-.08,12.49-.9.89Zm2.66,3.59.88.9-.07,12.5a2.88,2.88,0,0,1-2.25,2.21l-1.32-3.57.06-9.38Z"/><path class="cls-5" d="M735.06,1075.13l0,8.48-2.69,2.66-.89-.89.07-11.61Zm-3.72,24.53.07-11.61.9-.88,2.66,2.69-.05,8.48Zm15.6,3.22-13.39-.09a2.84,2.84,0,0,1-2.21-2.24l3.57-1.32,10.72.07Zm-1.16-28.57-10.67-.07-3.56-1.36a2.88,2.88,0,0,1,2.25-2.22l13.34.08Zm.84,9.37,0-9.37,1.36-3.56a2.87,2.87,0,0,1,2.22,2.25l-.08,12.49-.89.89Zm2.65,3.59.89.9-.08,12.49a2.87,2.87,0,0,1-2.25,2.22l-1.31-3.58.06-9.37Z"/><path class="cls-5" d="M762.29,1075.3l0,8.48-2.7,2.66-.89-.9.08-11.6Zm-3.73,24.52.08-11.6.89-.89,2.67,2.7-.06,8.48Zm15.61,3.23-13.39-.09a2.86,2.86,0,0,1-2.22-2.24l3.58-1.32,10.71.07ZM773,1074.47l-10.66-.06-3.56-1.36a2.86,2.86,0,0,1,2.24-2.22l13.35.08Zm.84,9.38.06-9.37,1.36-3.56a2.86,2.86,0,0,1,2.22,2.24l-.08,12.5-.9.89Zm2.65,3.59.89.9-.08,12.49a2.86,2.86,0,0,1-2.24,2.22l-1.32-3.58.06-9.37Z"/><path class="cls-5" d="M789.51,1075.47l0,8.48-2.7,2.66-.88-.9.07-11.6ZM785.79,1100l.07-11.6.9-.89,2.66,2.7,0,8.48Zm15.6,3.23-13.39-.09a2.86,2.86,0,0,1-2.22-2.24l3.58-1.32,10.71.07Zm-1.16-28.58-10.67-.06-3.56-1.36a2.86,2.86,0,0,1,2.25-2.22l13.34.08Zm.83,9.38.06-9.37,1.36-3.56a2.86,2.86,0,0,1,2.22,2.24l-.08,12.5-.9.89Zm2.66,3.59.89.9-.08,12.49a2.88,2.88,0,0,1-2.25,2.22l-1.31-3.58,0-9.37Z"/><path class="cls-5" d="M816.74,1075.64l-.06,8.48-2.69,2.66-.89-.9.07-11.6ZM813,1100.16l.08-11.6.89-.89,2.67,2.7-.06,8.48Zm15.6,3.23-13.38-.09a2.86,2.86,0,0,1-2.22-2.24l3.58-1.32,10.71.07Zm-1.16-28.58-10.66-.06-3.57-1.36a2.88,2.88,0,0,1,2.25-2.22l13.34.08Zm.84,9.38.06-9.37,1.36-3.56a2.86,2.86,0,0,1,2.21,2.24l-.07,12.5-.9.89Zm2.65,3.59.89.9-.08,12.49a2.86,2.86,0,0,1-2.24,2.22l-1.32-3.58.06-9.37Z"/><path class="cls-5" d="M844,1075.81l-.05,8.48-2.7,2.66-.88-.9.07-11.6Zm-3.72,24.52.07-11.6.9-.89,2.66,2.7,0,8.48Zm15.6,3.22-13.39-.08a2.86,2.86,0,0,1-2.22-2.25l3.58-1.31,10.71.07ZM854.68,1075l-10.67-.06-3.56-1.36a2.86,2.86,0,0,1,2.24-2.22l13.35.08Zm.83,9.38.06-9.37,1.36-3.56a2.86,2.86,0,0,1,2.22,2.24l-.08,12.5-.9.89Zm2.66,3.59.88.9-.07,12.49a2.88,2.88,0,0,1-2.25,2.22l-1.32-3.58.06-9.37Z"/><path class="cls-5" d="M871.18,1076l0,8.48-2.69,2.66-.89-.9.07-11.6Zm-3.72,24.52.07-11.6.9-.89,2.66,2.7-.05,8.48Zm15.6,3.22-13.39-.08a2.86,2.86,0,0,1-2.22-2.25l3.58-1.31,10.71.06Zm-1.16-28.57-10.67-.06-3.56-1.36a2.87,2.87,0,0,1,2.25-2.22l13.34.08Zm.83,9.38.06-9.37,1.36-3.56a2.86,2.86,0,0,1,2.22,2.24l-.08,12.5-.89.88Zm2.66,3.59.89.89-.08,12.5a2.87,2.87,0,0,1-2.25,2.22l-1.31-3.58.06-9.37Z"/><path class="cls-5" d="M898.41,1076.15l-.06,8.48-2.69,2.66-.89-.9.07-11.6Zm-3.73,24.52.08-11.6.89-.89,2.67,2.7-.06,8.48Zm15.6,3.22-13.38-.08a2.86,2.86,0,0,1-2.22-2.25l3.58-1.31,10.71.06Zm-1.16-28.57-10.66-.06-3.56-1.37a2.86,2.86,0,0,1,2.24-2.21l13.34.08Zm.84,9.38.06-9.37,1.36-3.56a2.84,2.84,0,0,1,2.21,2.24l-.07,12.5-.9.88Zm2.65,3.59.89.89-.08,12.5a2.86,2.86,0,0,1-2.24,2.22l-1.32-3.58.06-9.37Z"/><path class="cls-5" d="M925.63,1076.32l0,8.48-2.7,2.66-.88-.9.07-11.6Zm-3.72,24.52.07-11.6.9-.89,2.66,2.69,0,8.48Zm15.6,3.22-13.39-.08a2.87,2.87,0,0,1-2.22-2.25l3.58-1.31,10.71.06Zm-1.16-28.57-10.67-.07-3.56-1.36a2.86,2.86,0,0,1,2.24-2.21l13.35.08Zm.83,9.38.06-9.37,1.36-3.57a2.88,2.88,0,0,1,2.22,2.25l-.08,12.5-.9.88Zm2.66,3.59.88.89-.07,12.5a2.88,2.88,0,0,1-2.25,2.22l-1.32-3.58.06-9.37Z"/><path class="cls-17" d="M1313.2,1432.61v14.52a5,5,0,0,1-1.14,3.12,6.6,6.6,0,0,1-3.13,2.09,6.2,6.2,0,0,1-1.22.29,7.49,7.49,0,0,1-1.17.09h-275.3c-3.33,0-6.1-2.08-6.59-4.76a3.31,3.31,0,0,1-.06-.55c0-.09,0-.19,0-.28v-14.52c0-.09,0-.19,0-.28a3.31,3.31,0,0,1,.06-.55c.49-2.69,3.26-4.76,6.59-4.76h275.3a7.49,7.49,0,0,1,1.17.09,7,7,0,0,1,1.22.29,6.6,6.6,0,0,1,3.13,2.09A5,5,0,0,1,1313.2,1432.61Z"/><path class="cls-18" d="M1178,1452.72H1030.53a5.9,5.9,0,0,1-5.72-4.14,4.15,4.15,0,0,1-.22-1.17c0-.09,0-.19,0-.28v-14.52c0-.09,0-.19,0-.28a4.15,4.15,0,0,1,.22-1.17,5.9,5.9,0,0,1,5.72-4.14h129.38A45,45,0,0,0,1178,1452.72Z"/><rect class="cls-18" x="1276.57" y="1427.02" width="3.13" height="25.7"/><rect class="cls-18" x="1265.98" y="1427.02" width="3.13" height="25.7"/><rect class="cls-18" x="1253.28" y="1427.02" width="3.13" height="25.7"/><rect class="cls-18" x="1233.81" y="1427.02" width="3.13" height="25.7"/><rect class="cls-18" x="1213.22" y="1427.02" width="3.13" height="25.7"/><rect class="cls-18" x="1181.66" y="1427.02" width="3.13" height="25.7"/><rect class="cls-18" x="1152.11" y="1427.02" width="3.13" height="25.7"/><rect class="cls-18" x="1125.73" y="1427.02" width="3.13" height="25.7"/><rect class="cls-18" x="1286.65" y="1427.02" width="3.13" height="25.7"/><rect class="cls-18" x="1293.31" y="1427.02" width="3.13" height="25.7"/><rect class="cls-18" x="1299.74" y="1427.02" width="3.13" height="25.7"/><path class="cls-18" d="M1307.71,1427.11v25.52a7.49,7.49,0,0,1-1.17.09h-2V1427h2A7.49,7.49,0,0,1,1307.71,1427.11Z"/><path class="cls-18" d="M1312.06,1429.49v20.76a6.6,6.6,0,0,1-3.13,2.09V1427.4A6.6,6.6,0,0,1,1312.06,1429.49Z"/><path class="cls-17" d="M1283.76,1406.91v14.51a5,5,0,0,1-1.13,3.13,6.55,6.55,0,0,1-.63.66,7.26,7.26,0,0,1-3.72,1.72,7.59,7.59,0,0,1-1.17.09H1001.8c-3.32,0-6.09-2.08-6.58-4.76a3.43,3.43,0,0,1-.06-.55,2.71,2.71,0,0,1,0-.29v-14.51c0-.09,0-.19,0-.29a3.31,3.31,0,0,1,.06-.54c.49-2.68,3.26-4.77,6.58-4.77h275.31a4.53,4.53,0,0,1,.52,0l.19,0h0l.25,0,.18,0a7,7,0,0,1,1.22.28l.67.26h0l.43.21.24.14.22.13a4.72,4.72,0,0,1,.81.6l.23.21.14.13.07.08.06.06a3.53,3.53,0,0,1,.25.28A5,5,0,0,1,1283.76,1406.91Z"/><path class="cls-18" d="M1148.58,1427H1001.09a5.89,5.89,0,0,1-5.71-4.15,3.22,3.22,0,0,1-.16-.61,3.43,3.43,0,0,1-.06-.55,2.71,2.71,0,0,1,0-.29v-14.51c0-.09,0-.19,0-.29a3.31,3.31,0,0,1,.06-.54,3.22,3.22,0,0,1,.16-.61,5.9,5.9,0,0,1,5.71-4.16h129.38c0,.22.11.43.18.64A45,45,0,0,0,1148.58,1427Z"/><rect class="cls-18" x="1247.14" y="1401.32" width="3.13" height="25.7"/><rect class="cls-18" x="1236.54" y="1401.32" width="3.13" height="25.7"/><rect class="cls-18" x="1223.84" y="1401.32" width="3.13" height="25.7"/><rect class="cls-18" x="1204.38" y="1401.32" width="3.13" height="25.7"/><rect class="cls-18" x="1183.79" y="1401.32" width="3.13" height="25.7"/><rect class="cls-18" x="1152.23" y="1401.32" width="3.13" height="25.7"/><rect class="cls-18" x="1122.68" y="1401.32" width="3.13" height="25.7"/><rect class="cls-18" x="1096.29" y="1401.32" width="3.13" height="25.7"/><rect class="cls-18" x="1257.22" y="1401.32" width="3.13" height="25.7"/><rect class="cls-18" x="1263.88" y="1401.32" width="3.13" height="25.7"/><rect class="cls-18" x="1270.31" y="1401.32" width="3.13" height="25.7"/><path class="cls-18" d="M1278.28,1401.41v25.52a7.72,7.72,0,0,1-1.18.09h-1.95v-25.7h1.95A7.72,7.72,0,0,1,1278.28,1401.41Z"/><path class="cls-18" d="M1282.62,1403.79v20.76a6.62,6.62,0,0,1-3.12,2.09v-25A6.71,6.71,0,0,1,1282.62,1403.79Z"/><path class="cls-17" d="M1298,1381.85v14.51a4.9,4.9,0,0,1-1.15,3.12,6.53,6.53,0,0,1-3.12,2.09,8.05,8.05,0,0,1-1.22.3,9,9,0,0,1-1.17.08H1016a7.56,7.56,0,0,1-3.07-.64,5.78,5.78,0,0,1-3.51-4,2.35,2.35,0,0,1-.05-.37,1.81,1.81,0,0,1,0-.25,2.53,2.53,0,0,1,0-.28v-14.51a2.81,2.81,0,0,1,0-.29,4.69,4.69,0,0,1,.06-.54c.49-2.69,3.27-4.76,6.59-4.76h275.3a7.5,7.5,0,0,1,1.17.08,8,8,0,0,1,1.22.28,6.76,6.76,0,0,1,3.12,2.1A4.93,4.93,0,0,1,1298,1381.85Z"/><path class="cls-18" d="M1162.8,1402H1015.31a6.1,6.1,0,0,1-2.73-.64,5.63,5.63,0,0,1-3.13-4,2.35,2.35,0,0,1-.05-.37,1.81,1.81,0,0,1,0-.25,2.53,2.53,0,0,1,0-.28v-14.51a2.81,2.81,0,0,1,0-.29,4.69,4.69,0,0,1,.06-.54,5.89,5.89,0,0,1,5.87-4.76h129.38a45.07,45.07,0,0,0,17.21,25C1162.19,1401.53,1162.49,1401.75,1162.8,1402Z"/><rect class="cls-18" x="1261.36" y="1376.25" width="3.13" height="25.7"/><rect class="cls-18" x="1250.77" y="1376.25" width="3.13" height="25.7"/><rect class="cls-18" x="1238.07" y="1376.25" width="3.13" height="25.7"/><rect class="cls-18" x="1218.6" y="1376.25" width="3.13" height="25.7"/><rect class="cls-18" x="1198.01" y="1376.25" width="3.13" height="25.7"/><rect class="cls-18" x="1166.45" y="1376.25" width="3.13" height="25.7"/><rect class="cls-18" x="1136.9" y="1376.25" width="3.13" height="25.7"/><rect class="cls-18" x="1110.52" y="1376.25" width="3.13" height="25.7"/><rect class="cls-18" x="1271.44" y="1376.25" width="3.13" height="25.7"/><rect class="cls-18" x="1278.1" y="1376.25" width="3.13" height="25.7"/><rect class="cls-18" x="1284.53" y="1376.25" width="3.13" height="25.7"/><path class="cls-18" d="M1292.5,1376.34v25.52a7.49,7.49,0,0,1-1.17.09h-2v-25.7h2A7.49,7.49,0,0,1,1292.5,1376.34Z"/><path class="cls-18" d="M1296.85,1378.72v20.76a6.6,6.6,0,0,1-3.13,2.09v-24.94A6.6,6.6,0,0,1,1296.85,1378.72Z"/><path class="cls-17" d="M1304.58,1356.15v14.51a5,5,0,0,1-1.14,3.12l-.3.34a6.66,6.66,0,0,1-1.9,1.39c-.3.13-.6.26-.92.37a7.2,7.2,0,0,1-1.22.28l-.58.07-.6,0h-275.3c-3.32,0-6.1-2.09-6.59-4.77a5,5,0,0,1-.06-.54v-15.09c.17-2.73,2.68-4.95,5.86-5.27.26,0,.53,0,.79,0h275.3l.6,0a5.42,5.42,0,0,1,.58.06,7.22,7.22,0,0,1,1.22.29,6.62,6.62,0,0,1,3.12,2.09A5,5,0,0,1,1304.58,1356.15Z"/><path class="cls-18" d="M1169.4,1376.26H1021.91a5.91,5.91,0,0,1-5.72-4.15,4.71,4.71,0,0,1-.16-.62,5,5,0,0,1-.06-.54v-15.09a5.79,5.79,0,0,1,5.24-5.27c.23,0,.46,0,.7,0h129.38s0,0,0,0A45.11,45.11,0,0,0,1169.4,1376.26Z"/><rect class="cls-18" x="1267.95" y="1350.55" width="3.13" height="25.7"/><rect class="cls-18" x="1257.36" y="1350.55" width="3.13" height="25.7"/><rect class="cls-18" x="1244.66" y="1350.55" width="3.13" height="25.7"/><rect class="cls-18" x="1225.19" y="1350.55" width="3.13" height="25.7"/><rect class="cls-18" x="1204.61" y="1350.55" width="3.13" height="25.7"/><rect class="cls-18" x="1173.05" y="1350.55" width="3.13" height="25.7"/><rect class="cls-18" x="1143.5" y="1350.55" width="3.13" height="25.7"/><rect class="cls-18" x="1117.11" y="1350.55" width="3.13" height="25.7"/><rect class="cls-18" x="1278.04" y="1350.55" width="3.13" height="25.7"/><rect class="cls-18" x="1284.7" y="1350.55" width="3.13" height="25.7"/><rect class="cls-18" x="1291.13" y="1350.55" width="3.13" height="25.7"/><path class="cls-18" d="M1299.1,1350.64v25.52a7.72,7.72,0,0,1-1.18.09h-2v-25.7h2A7.72,7.72,0,0,1,1299.1,1350.64Z"/><path class="cls-18" d="M1303.44,1353v20.76a6.6,6.6,0,0,1-3.13,2.09v-24.94A6.6,6.6,0,0,1,1303.44,1353Z"/><path class="cls-17" d="M1284.34,1330.49V1345a4.92,4.92,0,0,1-1.14,3.13,6.56,6.56,0,0,1-3.13,2.09,6.89,6.89,0,0,1-1.21.29l-.39,0h0l-.21,0H1002.39c-3.55,0-6.48-2.36-6.66-5.3a2.91,2.91,0,0,1,0-.3v-14.5c0-.1,0-.2,0-.3a2,2,0,0,1,0-.23,6,6,0,0,1,5-4.89l.19,0a8.59,8.59,0,0,1,1.45-.13h275.29l.6,0,.24,0h0l.31,0a6.89,6.89,0,0,1,1.21.29,6.56,6.56,0,0,1,3.13,2.09A4.9,4.9,0,0,1,1284.34,1330.49Z"/><path class="cls-18" d="M1149.16,1350.59H1001.67a5.82,5.82,0,0,1-5.94-5.3,2.91,2.91,0,0,1,0-.3v-14.5c0-.1,0-.2,0-.3a2,2,0,0,1,0-.23,5.75,5.75,0,0,1,4.62-4.93l.25,0a6,6,0,0,1,1-.09H1131l.06.19a45,45,0,0,0,18,25.47S1149.14,1350.58,1149.16,1350.59Z"/><rect class="cls-18" x="1247.71" y="1324.89" width="3.13" height="25.7"/><rect class="cls-18" x="1237.12" y="1324.89" width="3.13" height="25.7"/><rect class="cls-18" x="1224.42" y="1324.89" width="3.13" height="25.7"/><rect class="cls-18" x="1204.96" y="1324.89" width="3.13" height="25.7"/><rect class="cls-18" x="1184.37" y="1324.89" width="3.13" height="25.7"/><rect class="cls-18" x="1152.81" y="1324.89" width="3.13" height="25.7"/><rect class="cls-18" x="1123.26" y="1324.89" width="3.13" height="25.7"/><rect class="cls-18" x="1096.87" y="1324.89" width="3.13" height="25.7"/><rect class="cls-18" x="1257.8" y="1324.89" width="3.13" height="25.7"/><rect class="cls-18" x="1264.46" y="1324.89" width="3.13" height="25.7"/><rect class="cls-18" x="1270.89" y="1324.89" width="3.13" height="25.7"/><path class="cls-18" d="M1278.86,1325v25.52a7.72,7.72,0,0,1-1.18.09h-2v-25.7h2A7.72,7.72,0,0,1,1278.86,1325Z"/><path class="cls-18" d="M1283.2,1327.36v20.76a6.62,6.62,0,0,1-3.12,2.09v-24.94A6.62,6.62,0,0,1,1283.2,1327.36Z"/><path class="cls-17" d="M1283.76,1305v14.51a5,5,0,0,1-1.13,3.12,7.94,7.94,0,0,1-.63.67,6.93,6.93,0,0,1-2.5,1.43,7.77,7.77,0,0,1-1,.24h0l-.24,0a7.59,7.59,0,0,1-1.17.1H1001.8a6.33,6.33,0,0,1-.86-.06,1.65,1.65,0,0,1-.32,0,6.18,6.18,0,0,1-5.41-4.73,2.61,2.61,0,0,1-.05-.48c0-.1,0-.2,0-.29V1305a2.71,2.71,0,0,1,0-.29,3.31,3.31,0,0,1,.06-.54c.49-2.69,3.26-4.77,6.58-4.77h275.31l.52,0h.22a1.07,1.07,0,0,1,.25,0l.18,0a7,7,0,0,1,1.22.28c.23.08.45.16.67.26h0a6.73,6.73,0,0,1,2.2,1.55c.08.09.17.18.25.28A5,5,0,0,1,1283.76,1305Z"/><path class="cls-18" d="M1148.58,1325.08H1000.75l-.38,0a5.8,5.8,0,0,1-5.16-4.78,2.61,2.61,0,0,1-.05-.48c0-.1,0-.2,0-.29V1305a2.71,2.71,0,0,1,0-.29,4.17,4.17,0,0,1,.22-1.16,5.9,5.9,0,0,1,5.71-4.15h129.38c0,.22.11.42.18.64a45,45,0,0,0,17.66,24.88Z"/><rect class="cls-18" x="1247.14" y="1299.37" width="3.13" height="25.7"/><rect class="cls-18" x="1236.54" y="1299.37" width="3.13" height="25.7"/><rect class="cls-18" x="1223.84" y="1299.37" width="3.13" height="25.7"/><rect class="cls-18" x="1204.38" y="1299.37" width="3.13" height="25.7"/><rect class="cls-18" x="1183.79" y="1299.37" width="3.13" height="25.7"/><rect class="cls-18" x="1152.23" y="1299.37" width="3.13" height="25.7"/><rect class="cls-18" x="1122.68" y="1299.37" width="3.13" height="25.7"/><rect class="cls-18" x="1096.29" y="1299.37" width="3.13" height="25.7"/><rect class="cls-18" x="1257.22" y="1299.37" width="3.13" height="25.7"/><rect class="cls-18" x="1263.88" y="1299.37" width="3.13" height="25.7"/><rect class="cls-18" x="1270.31" y="1299.37" width="3.13" height="25.7"/><path class="cls-18" d="M1278.28,1299.46V1325a7.72,7.72,0,0,1-1.18.09h-1.95v-25.7h1.95A7.72,7.72,0,0,1,1278.28,1299.46Z"/><path class="cls-18" d="M1282.62,1301.84v20.76a6.71,6.71,0,0,1-3.12,2.1v-25A6.62,6.62,0,0,1,1282.62,1301.84Z"/><path class="cls-17" d="M1298,1279.9v14.51a4.93,4.93,0,0,1-1.15,3.13,6.53,6.53,0,0,1-3.12,2.09,7,7,0,0,1-1.22.28,7.49,7.49,0,0,1-1.17.1H1016a7.56,7.56,0,0,1-3.07-.64,5.79,5.79,0,0,1-3.51-4.06,2.23,2.23,0,0,1-.05-.36,2.11,2.11,0,0,1,0-.25,2.71,2.71,0,0,1,0-.29V1279.9a2.81,2.81,0,0,1,0-.29,5,5,0,0,1,.06-.54c.49-2.69,3.27-4.77,6.59-4.77h275.3a7.49,7.49,0,0,1,1.17.1,7,7,0,0,1,1.22.28,6.47,6.47,0,0,1,3.12,2.1A4.88,4.88,0,0,1,1298,1279.9Z"/><path class="cls-18" d="M1162.8,1300H1015.31a6.1,6.1,0,0,1-2.73-.64,5.65,5.65,0,0,1-3.13-4.06,2.23,2.23,0,0,1-.05-.36,2.11,2.11,0,0,1,0-.25,2.71,2.71,0,0,1,0-.29V1279.9a2.81,2.81,0,0,1,0-.29,5,5,0,0,1,.06-.54,5.84,5.84,0,0,1,.15-.6,5.91,5.91,0,0,1,5.72-4.17h129.38a45.08,45.08,0,0,0,17.21,25.07C1162.19,1299.59,1162.49,1299.79,1162.8,1300Z"/><rect class="cls-18" x="1261.36" y="1274.31" width="3.13" height="25.7"/><rect class="cls-18" x="1250.77" y="1274.31" width="3.13" height="25.7"/><rect class="cls-18" x="1238.07" y="1274.31" width="3.13" height="25.7"/><rect class="cls-18" x="1218.6" y="1274.31" width="3.13" height="25.7"/><rect class="cls-18" x="1198.01" y="1274.31" width="3.13" height="25.7"/><rect class="cls-18" x="1166.45" y="1274.31" width="3.13" height="25.7"/><rect class="cls-18" x="1136.9" y="1274.31" width="3.13" height="25.7"/><rect class="cls-18" x="1110.52" y="1274.31" width="3.13" height="25.7"/><rect class="cls-18" x="1271.44" y="1274.31" width="3.13" height="25.7"/><rect class="cls-18" x="1278.1" y="1274.31" width="3.13" height="25.7"/><rect class="cls-18" x="1284.53" y="1274.31" width="3.13" height="25.7"/><path class="cls-18" d="M1292.5,1274.4v25.52a7.49,7.49,0,0,1-1.17.09h-2v-25.7h2A7.49,7.49,0,0,1,1292.5,1274.4Z"/><path class="cls-18" d="M1296.85,1276.78v20.76a6.6,6.6,0,0,1-3.13,2.09v-25A6.69,6.69,0,0,1,1296.85,1276.78Z"/><path class="cls-17" d="M1320.48,1254.2v14.51a5,5,0,0,1-1.13,3.12h0c-.09.12-.2.24-.3.35a6.19,6.19,0,0,1-1.47,1.15,6.47,6.47,0,0,1-.88.42h0l-.46.17a7,7,0,0,1-1.22.29,7.58,7.58,0,0,1-1.17.08h-275.3c-3.32,0-6.1-2.07-6.59-4.75a3.43,3.43,0,0,1-.06-.55,2.81,2.81,0,0,1,0-.29V1254.2a2.81,2.81,0,0,1,0-.29c.16-2.72,2.67-4.94,5.86-5.26a5.16,5.16,0,0,1,.79,0h275.3a9.08,9.08,0,0,1,1.17.08,8,8,0,0,1,1.22.29,6.89,6.89,0,0,1,2.82,1.75c.1.11.21.22.3.34h0A5,5,0,0,1,1320.48,1254.2Z"/><path class="cls-18" d="M1185.3,1274.3H1037.81a5.88,5.88,0,0,1-5.72-4.16,5.66,5.66,0,0,1-.15-.59,3.43,3.43,0,0,1-.06-.55,2.81,2.81,0,0,1,0-.29V1254.2a2.81,2.81,0,0,1,0-.29,5.76,5.76,0,0,1,5.23-5.26,4.05,4.05,0,0,1,.7,0h129.38a.1.1,0,0,1,0,0A45,45,0,0,0,1185.3,1274.3Z"/><rect class="cls-18" x="1283.86" y="1248.61" width="3.13" height="25.7"/><rect class="cls-18" x="1273.27" y="1248.61" width="3.13" height="25.7"/><rect class="cls-18" x="1260.57" y="1248.61" width="3.13" height="25.7"/><rect class="cls-18" x="1241.1" y="1248.61" width="3.13" height="25.7"/><rect class="cls-18" x="1220.51" y="1248.61" width="3.13" height="25.7"/><rect class="cls-18" x="1188.95" y="1248.61" width="3.13" height="25.7"/><rect class="cls-18" x="1159.4" y="1248.61" width="3.13" height="25.7"/><rect class="cls-18" x="1133.02" y="1248.61" width="3.13" height="25.7"/><rect class="cls-18" x="1293.94" y="1248.61" width="3.13" height="25.7"/><rect class="cls-18" x="1300.6" y="1248.61" width="3.13" height="25.7"/><rect class="cls-18" x="1307.03" y="1248.61" width="3.13" height="25.7"/><path class="cls-18" d="M1315,1248.69v25.53a8.94,8.94,0,0,1-1.17.09h-2V1248.6h2A8.94,8.94,0,0,1,1315,1248.69Z"/><path class="cls-18" d="M1319.34,1251.08v20.76a6.67,6.67,0,0,1-3.12,2.09v-25A6.61,6.61,0,0,1,1319.34,1251.08Z"/><path class="cls-17" d="M1284.34,1228.54v14.51a4.87,4.87,0,0,1-1.14,3.12,6.5,6.5,0,0,1-3.13,2.1,6.87,6.87,0,0,1-1.21.28l-.39.06h0l-.26,0H1002.39a7,7,0,0,1-5.67-2.67,4.94,4.94,0,0,1-1-2.64c0-.1,0-.2,0-.29v-14.51a2.71,2.71,0,0,1,0-.29,5.92,5.92,0,0,1,4.72-5.06,7.7,7.7,0,0,1,1.94-.25H1278l.18,0a4.62,4.62,0,0,1,.65.07,6.87,6.87,0,0,1,1.21.28,3.54,3.54,0,0,1,.57.22h0a6.57,6.57,0,0,1,1.93,1.21l0,0,.08.07a4.6,4.6,0,0,1,.52.56A4.92,4.92,0,0,1,1284.34,1228.54Z"/><path class="cls-18" d="M1149.16,1248.65H1001.67a6.06,6.06,0,0,1-5-2.54,5.32,5.32,0,0,1-1-2.77c0-.1,0-.2,0-.29v-14.51a2.71,2.71,0,0,1,0-.29,5.75,5.75,0,0,1,4.74-5.19,6.78,6.78,0,0,1,1.2-.12H1131l.18.6a45,45,0,0,0,17.88,25.07Z"/><rect class="cls-18" x="1247.71" y="1222.95" width="3.13" height="25.7"/><rect class="cls-18" x="1237.12" y="1222.95" width="3.13" height="25.7"/><rect class="cls-18" x="1224.42" y="1222.95" width="3.13" height="25.7"/><rect class="cls-18" x="1204.96" y="1222.95" width="3.13" height="25.7"/><rect class="cls-18" x="1184.37" y="1222.95" width="3.13" height="25.7"/><rect class="cls-18" x="1152.81" y="1222.95" width="3.13" height="25.7"/><rect class="cls-18" x="1123.26" y="1222.95" width="3.13" height="25.7"/><rect class="cls-18" x="1096.87" y="1222.95" width="3.13" height="25.7"/><rect class="cls-18" x="1257.8" y="1222.95" width="3.13" height="25.7"/><rect class="cls-18" x="1264.46" y="1222.95" width="3.13" height="25.7"/><rect class="cls-18" x="1270.89" y="1222.95" width="3.13" height="25.7"/><path class="cls-18" d="M1278.86,1223v25.53a9.23,9.23,0,0,1-1.18.08h-2v-25.7h2A7.72,7.72,0,0,1,1278.86,1223Z"/><path class="cls-18" d="M1283.2,1225.42v20.75a6.71,6.71,0,0,1-3.12,2.1v-25A6.64,6.64,0,0,1,1283.2,1225.42Z"/><path class="cls-17" d="M1304.58,1203.43v14.51a5,5,0,0,1-1.14,3.13,6.6,6.6,0,0,1-3.13,2.09,6.89,6.89,0,0,1-1.21.29,7.72,7.72,0,0,1-1.18.09H1022.63a7.62,7.62,0,0,1-3-.6,5.71,5.71,0,0,1-3.66-4.48c0-.07,0-.15,0-.23s0-.19,0-.29v-14.51c0-.09,0-.19,0-.29.17-2.72,2.68-4.94,5.87-5.26a6.74,6.74,0,0,1,.79,0h275.29a7.72,7.72,0,0,1,1.18.09,6.89,6.89,0,0,1,1.21.29,6.6,6.6,0,0,1,3.13,2.09A4.93,4.93,0,0,1,1304.58,1203.43Z"/><path class="cls-18" d="M1169.4,1223.54H1021.91a6.14,6.14,0,0,1-2.65-.6,5.62,5.62,0,0,1-3.27-4.48c0-.07,0-.15,0-.23s0-.19,0-.29v-14.51c0-.09,0-.19,0-.29a5.77,5.77,0,0,1,5.24-5.26,5.37,5.37,0,0,1,.7,0h129.38v0a45,45,0,0,0,17.25,25.06C1168.83,1223.15,1169.11,1223.34,1169.4,1223.54Z"/><rect class="cls-18" x="1267.95" y="1197.84" width="3.13" height="25.7"/><rect class="cls-18" x="1257.36" y="1197.84" width="3.13" height="25.7"/><rect class="cls-18" x="1244.66" y="1197.84" width="3.13" height="25.7"/><rect class="cls-18" x="1225.19" y="1197.84" width="3.13" height="25.7"/><rect class="cls-18" x="1204.61" y="1197.84" width="3.13" height="25.7"/><rect class="cls-18" x="1173.05" y="1197.84" width="3.13" height="25.7"/><rect class="cls-18" x="1143.5" y="1197.84" width="3.13" height="25.7"/><rect class="cls-18" x="1117.11" y="1197.84" width="3.13" height="25.7"/><rect class="cls-18" x="1278.04" y="1197.84" width="3.13" height="25.7"/><rect class="cls-18" x="1284.7" y="1197.84" width="3.13" height="25.7"/><rect class="cls-18" x="1291.13" y="1197.84" width="3.13" height="25.7"/><path class="cls-18" d="M1299.1,1197.93v25.52a7.72,7.72,0,0,1-1.18.09h-2v-25.7h2A7.72,7.72,0,0,1,1299.1,1197.93Z"/><path class="cls-18" d="M1303.44,1200.31v20.76a6.6,6.6,0,0,1-3.13,2.09v-25A6.69,6.69,0,0,1,1303.44,1200.31Z"/><path class="cls-17" d="M1313.2,1177.77v14.51a5,5,0,0,1-1.14,3.13,6.6,6.6,0,0,1-3.13,2.09,7,7,0,0,1-1.22.29l-.38,0-.22,0H1031.24c-3.55,0-6.47-2.36-6.65-5.31a2.71,2.71,0,0,1,0-.29v-14.51c0-.09,0-.19,0-.29.18-2.94,3.1-5.3,6.65-5.3h275.3a7.49,7.49,0,0,1,1.17.09,7,7,0,0,1,1.22.28,6.69,6.69,0,0,1,3.13,2.1A4.93,4.93,0,0,1,1313.2,1177.77Z"/><path class="cls-18" d="M1178,1197.88H1030.53a5.82,5.82,0,0,1-5.94-5.31,2.71,2.71,0,0,1,0-.29v-14.51c0-.09,0-.19,0-.29a5.82,5.82,0,0,1,5.94-5.3H1159.9a45.05,45.05,0,0,0,18,25.66Z"/><rect class="cls-18" x="1276.57" y="1172.18" width="3.13" height="25.7"/><rect class="cls-18" x="1265.98" y="1172.18" width="3.13" height="25.7"/><rect class="cls-18" x="1253.28" y="1172.18" width="3.13" height="25.7"/><rect class="cls-18" x="1233.81" y="1172.18" width="3.13" height="25.7"/><rect class="cls-18" x="1213.22" y="1172.18" width="3.13" height="25.7"/><rect class="cls-18" x="1181.66" y="1172.18" width="3.13" height="25.7"/><rect class="cls-18" x="1152.11" y="1172.18" width="3.13" height="25.7"/><rect class="cls-18" x="1125.73" y="1172.18" width="3.13" height="25.7"/><rect class="cls-18" x="1286.65" y="1172.18" width="3.13" height="25.7"/><rect class="cls-18" x="1293.31" y="1172.18" width="3.13" height="25.7"/><rect class="cls-18" x="1299.74" y="1172.18" width="3.13" height="25.7"/><path class="cls-18" d="M1307.71,1172.27v25.52a7.49,7.49,0,0,1-1.17.09h-2v-25.7h2A7.49,7.49,0,0,1,1307.71,1172.27Z"/><path class="cls-18" d="M1312.06,1174.65v20.76a6.6,6.6,0,0,1-3.13,2.09v-25A6.69,6.69,0,0,1,1312.06,1174.65Z"/><path class="cls-19" d="M1225.93,1025.72s-14.45,20.35-27.71,20.64-33.43-9.44-33.43-9.44-12.17-27.12-3.91-37.74a17.73,17.73,0,0,1,16.93,2.78,25.86,25.86,0,0,1,4.49,4.3,14.18,14.18,0,0,0,7,4.71c9.46,2.88,20.69-3.89,24.89,2.65a44.4,44.4,0,0,0,7.31,8.65A33.41,33.41,0,0,0,1225.93,1025.72Z"/><path class="cls-19" d="M1037.43,1172.55s51.1-123.83,143.1-126.19c0,0,84.92,9.43,89.63,126.19Z"/><path class="cls-20" d="M1155.33,1050.14s36.87,8.2,48.25,3.38c0,0,1.71-15.42-13.81-13.26-10.63,1.48-17.55-3.62-21.63-5.7C1162.38,1031.63,1153.79,1043.69,1155.33,1050.14Z"/><path class="cls-21" d="M1187.42,1026.9c-2.36,1.77-9.61-24.94-9.61-24.94a25.86,25.86,0,0,1,4.49,4.3,14.18,14.18,0,0,0,7,4.71C1189.28,1011.75,1189.7,1025.18,1187.42,1026.9Z"/><path class="cls-21" d="M1221.45,1022.27c-.52.31-17.57,10.52-19.88,10.52s12.57-19.17,12.57-19.17A44.4,44.4,0,0,0,1221.45,1022.27Z"/><path class="cls-22" d="M1087.35,1138c-.94-.81,36.17-54.65,46.39-55s33.19,11.79,49.82,13.37,32.74-3.15,35.89,6.68,11.79,44.67,6.48,50.25S1107.76,1155.39,1087.35,1138Z"/><path class="cls-23" d="M1122.31,1324.89c0,.07,0,.13,0,.19a123.28,123.28,0,0,1-4.13,25.47v0c-.32,1.21-.67,2.41-1,3.61a126,126,0,0,1-9.07,22.06,127.8,127.8,0,0,1-17.3,25c-.18.22-.37.44-.55.64a132.83,132.83,0,0,1-30.25,25.07q-3.66,2.24-7.52,4.26c-1.73.91-3.48,1.77-5.23,2.6s-3.45,1.81-5.12,2.83a71.32,71.32,0,0,1-17.49,7.2v-11.3c0-.09,0-.19,0-.28a4.15,4.15,0,0,1,.22-1.17,5.9,5.9,0,0,1,5.72-4.14h-29.44a5.89,5.89,0,0,1-5.71-4.15,3.22,3.22,0,0,1-.16-.61,3.43,3.43,0,0,1-.06-.55,2.71,2.71,0,0,1,0-.29v-14.51c0-.09,0-.19,0-.29a3.31,3.31,0,0,1,.06-.54,3.22,3.22,0,0,1,.16-.61,5.9,5.9,0,0,1,5.71-4.16h11.49a5.63,5.63,0,0,1-3.13-4,2.35,2.35,0,0,1-.05-.37,1.81,1.81,0,0,1,0-.25,2.53,2.53,0,0,1,0-.28v-14.51a2.81,2.81,0,0,1,0-.29,4.69,4.69,0,0,1,.06-.54,5.89,5.89,0,0,1,5.87-4.76h6.6a5.91,5.91,0,0,1-5.72-4.15,4.71,4.71,0,0,1-.16-.62,5,5,0,0,1-.06-.54v-15.09a5.79,5.79,0,0,1,5.24-5.27h-19.54a5.82,5.82,0,0,1-5.94-5.3,2.91,2.91,0,0,1,0-.3v-14.5c0-.1,0-.2,0-.3a2,2,0,0,1,0-.23,4.86,4.86,0,1,0-.54-9.71,2.61,2.61,0,0,1-.05-.48c0-.1,0-.2,0-.29V1305a2.71,2.71,0,0,1,0-.29,4.17,4.17,0,0,1,.22-1.16,5.9,5.9,0,0,1,5.71-4.15h11.49a5.65,5.65,0,0,1-3.13-4.06,2.23,2.23,0,0,1-.05-.36,2.11,2.11,0,0,1,0-.25,2.71,2.71,0,0,1,0-.29V1279.9a2.81,2.81,0,0,1,0-.29,5,5,0,0,1,.06-.54,5.84,5.84,0,0,1,.15-.6,5.91,5.91,0,0,1,5.72-4.17h22.5a5.88,5.88,0,0,1-5.72-4.16,5.66,5.66,0,0,1-.15-.59,3.43,3.43,0,0,1-.06-.55,2.81,2.81,0,0,1,0-.29V1254.2a2.81,2.81,0,0,1,0-.29,5.76,5.76,0,0,1,5.23-5.26h-35.44a6.06,6.06,0,0,1-5-2.54l0-.13,3.73-22.79,0-.13,5.32-32.51a140.91,140.91,0,0,1,18.24,3.67l1,.28.06,0q5.23,1.46,10.32,3.31l.09,0a136.6,136.6,0,0,1,42.74,25.07q.35.29.66.6a128.47,128.47,0,0,1,17.93,19.3q1.61,2.12,3.12,4.31c.33.48.67,1,1,1.46,0,0,0,0,0,0q2.45,3.6,4.63,7.39a125.69,125.69,0,0,1,8.71,18.26,121.5,121.5,0,0,1,6.67,25.07c0,.22.07.42.11.64A123,123,0,0,1,1122.31,1324.89Z"/><circle class="cls-24" cx="956.52" cy="1311.62" r="135.41" transform="translate(-647.3 1060.53) rotate(-45)"/><path class="cls-17" d="M1016.64,1433c-1.67,1-3.37,2-5.09,3l-1.75.94c-1.34.71-2.67,1.4-4,2.06A135.42,135.42,0,0,1,867,1207.47a134,134,0,0,1,13.82-8.73c1.73-1,3.48-1.88,5.24-2.74s3.43-1.67,5.16-2.43a134.81,134.81,0,0,1,40.65-10.93A135.43,135.43,0,0,1,1016.64,1433Z"/><path class="cls-18" d="M947.12,1440.12a122,122,0,0,1-33.89-4.84,120.51,120.51,0,1,1,33.89,4.84Zm-.37-239.43a118,118,0,1,0,103.59,61A117.24,117.24,0,0,0,946.75,1200.69Z"/><path class="cls-18" d="M1006.62,1330.51c-.27-.66-.55-1.31-.84-1.94a35.52,35.52,0,0,0-8.21-11.74,36.69,36.69,0,0,0-12.93-7.6,62,62,0,0,0-16.43-3.09q-9.06-.56-19.73-.25a96.4,96.4,0,0,1-11.26-.23,28.16,28.16,0,0,1-7.93-1.74,14,14,0,0,1-5.3-3.58,19.19,19.19,0,0,1-3.36-5.55,20.53,20.53,0,0,1-1.53-6.51,14,14,0,0,1,1-6.12,14.86,14.86,0,0,1,3.78-5.35,22,22,0,0,1,6.9-4.21q7.93-3.21,14.8.14t11.18,14l27.59-11.2a51.79,51.79,0,0,0-9-15,38.67,38.67,0,0,0-27-13.34,51.39,51.39,0,0,0-16.65,1.7l-7.81-19.24-15.27,6.2,7.7,19a57.42,57.42,0,0,0-14,10,42.8,42.8,0,0,0-8.83,12.32,34.12,34.12,0,0,0-3.25,13.92,40.77,40.77,0,0,0,12,28.59,36.16,36.16,0,0,0,12.91,7.56,60.8,60.8,0,0,0,16.44,3,194.77,194.77,0,0,0,19.78,0,74.31,74.31,0,0,1,10.76.07,28.2,28.2,0,0,1,7.89,1.75,15,15,0,0,1,5.52,3.75,20.24,20.24,0,0,1,3.71,6.14,17,17,0,0,1,1.32,6.54,14.11,14.11,0,0,1-1.47,6.22,17.61,17.61,0,0,1-4.39,5.5,26.29,26.29,0,0,1-7.4,4.35,31.59,31.59,0,0,1-8.1,2.1,18.54,18.54,0,0,1-8.17-.81,19.09,19.09,0,0,1-7.46-4.82,29.46,29.46,0,0,1-6-9.79l-27.58,11.2q4.3,10.63,10.85,16.86a39.13,39.13,0,0,0,14.29,8.92,43.81,43.81,0,0,0,16.24,2.34,69.32,69.32,0,0,0,16.72-2.76l7.13,17.55,15.17-6.16-7.16-17.64a61.69,61.69,0,0,0,14.16-9.89,41.53,41.53,0,0,0,8.55-11.16c.17-.32.33-.64.49-1a33.85,33.85,0,0,0,3.32-13.85A37.39,37.39,0,0,0,1006.62,1330.51Z"/><path class="cls-8" d="M821.07,644.27A6.28,6.28,0,0,0,820,651l0,0c1.65,4.47,7,9.44,13.3,14.39.8.63,1.51,1.21,2.13,1.75l.48.42.37.33c5.84,5.31,3.66,6.55,14.17,17.33,12,12.28,20.16,12.45,22.48,11.31,2-1-2.09-7.51-6.57-14.85l-.66-1.07c-.6-1-1.19-2-1.78-2.95-5.26-8.84-4-13-2.82-26.22.93-10.74,16.27-60.07,16.27-60.07l-22.8-3.77S848,626.88,840.49,633c-4,3.24-8.55,3.31-12.42,5.73-.27.16-.54.34-.8.51A30.05,30.05,0,0,0,821.07,644.27Z"/><path class="cls-7" d="M821.07,644.27A6.28,6.28,0,0,0,820,651l0,0c2,4.46,7.27,9.4,13.32,14.34.79.65,1.49,1.24,2.11,1.8l.48.42.37.33c5.84,5.31,3.66,6.55,14.17,17.33,12,12.28,20.16,12.45,22.48,11.31,2-1-2.09-7.51-6.57-14.85a50.6,50.6,0,0,1-21.3-15.47c-7.23-9.08-12.08-20.78-17-27.54-.27.16-.54.34-.8.51A30.05,30.05,0,0,0,821.07,644.27Z"/><path class="cls-8" d="M1004.66,628.74c1.46,7,11.47,5.78,22.65,3s8.54.46,24.47-1.42,20.71-7.85,21.18-10.22c.42-2.11-7.46-2.8-15.92-3.71l-3.2-.36c-9.54-1.13-16.57-7.23-25.27-12.23-8.23-4.72-20.62-24.14-20.62-24.14l-21.84,1.88s11.59,17.34,16.08,24.89c2.64,4.43,2.54,10.32,2.25,14.88A27.92,27.92,0,0,0,1004.66,628.74Z"/><path class="cls-7" d="M1027.31,631.7c11.18-2.81,8.54.46,24.47-1.42s20.71-7.85,21.18-10.22c.42-2.11-7.46-2.8-15.92-3.71l-.07.16a44.9,44.9,0,0,1-22.78,7.26c-10.81.34-22.28-2.68-29.75-2.5a27.92,27.92,0,0,0,.22,7.47C1006.12,635.76,1016.13,634.52,1027.31,631.7Z"/><path class="cls-25" d="M919.91,489.57l-20,55.13-26.17,72a43.13,43.13,0,0,1-14.18-1.2c-6.4-1.8-13.75-6.57-13.75-6.57s6.86-77.14,20.36-121.48c3.46-11.39,7.37-20.6,11.71-25.8C899.08,436.16,919.91,489.57,919.91,489.57Z"/><path class="cls-11" d="M898.52,402.4c-13.41-4.22-51.55,1.59-89.85,9.37l-8.13-13.19-82.88-5.88S690.75,453.51,706,492c2.24,5.66,16,8.42,16,8.42s48.56.53,64.57.42c41.2-.29,87-28.93,92.93-30.17,9.72-2,13.75,17.44,23.64,37.82s92.17,89.91,92.17,89.91,12.57,0,17.75-1.94c5.57-2.14,7.6-4.87,7.6-4.87S928.78,411.93,898.52,402.4Z"/><path class="cls-7" d="M790,155.39a29.29,29.29,0,0,0-16-4,47.73,47.73,0,0,1-7.92-.47c-31.42-4-50,41.75-51,55.58C713.28,232,699.83,236,681,252.06c-37.81,32.26-26.39,69.35-5.49,83,12.53,8.2,34.47-.25,34.47-.25.31.22,59.92-33.88,89.3-50.33C843.43,277.91,807.87,165.84,790,155.39Z"/><path class="cls-8" d="M774.43,270.85c.13.09-14.48,5.19-24.3.92-9.24-4-16.33-19.11-16.19-19.12,4.19-.22,8.76-3.92,12.14-28l1.79.63,30.07,10.58s-2.1,9.64-3.44,18.82C773.37,262.4,772.78,269.78,774.43,270.85Z"/><path class="cls-26" d="M777.94,235.88s-1.28,6.76-3.06,16.41c-17.25-3-24.52-17.69-27-27Z"/><path class="cls-8" d="M782.48,245.4s-41.09-5.22-37.44-30.75.79-43.41,27.18-41.16S802.3,186.21,803.16,195,793.26,246.1,782.48,245.4Z"/><path class="cls-7" d="M801.56,181.06s-26.11,22.83-44,24.78-24.67-3.74-24.67-3.74a69.8,69.8,0,0,0,16.71-23,12.57,12.57,0,0,1,10.31-7.48C772.7,170.45,796.89,169.78,801.56,181.06Z"/><path class="cls-7" d="M785.12,179.15s8.85,8.44,11.67,14.72c2.71,6.06,3.62,20.61,1.53,26.4,0,0,13.51-26.72,5.66-39.61C795.66,167,785.12,179.15,785.12,179.15Z"/><path class="cls-13" d="M809.42,331.08c-.65,83.1.12,65.73-8.91,73.68-2.18,1.91-8.33,3.08-16.42,3.68-25.47,1.87-70.29-2-72-6.71-6-16.25-1.87-21.34-6.95-46.25-.53-2.65-1.19-5.52-2-8.64-4.21-17.1-8.23-22.9,6.08-50.53,13-25,26.5-45.35,27.73-44.63,34.85,20.36,37.52,3,37.52,3S809.74,290.54,809.42,331.08Z"/><path class="cls-11" d="M899.87,544.7l-26.17,72a43.13,43.13,0,0,1-14.18-1.2c-6.4-1.8-13.75-6.57-13.75-6.57s6.86-77.14,20.36-121.48Z"/><path class="cls-13" d="M774.5,254.7s35.75,5.8,40,21.14,29.61,105.55,29.61,105.55-18.13,3.39-26.57-4.94-29.73-77.59-29.73-77.59Z"/><path class="cls-27" d="M784.09,408.44c-25.47,1.87-70.29-2-72-6.71-6-16.25-1.87-21.34-6.95-46.25l12-34.69s-1.76,38.55,9.68,48.6,46.66,19.24,52.25,27.67A31.13,31.13,0,0,1,784.09,408.44Z"/><path class="cls-8" d="M754.78,392.43s25.1-5.77,29.17-3.57,14,10.26,15.3,13.08-9-2.09-12.39-3c-2.17-.56-7.85,1.46-10.66,2.42-11.84,4-19.12,2.05-19.12,2.05Z"/><path class="cls-13" d="M737,251.66s-33.74,2.32-45.3,18.7c-16.29,23.05-48.23,121.05-29.44,134,21.17,14.54,95.87,3.17,95.87,3.17s2.41-11.65-1.1-17.25-59.83-14.3-62.44-16.88,32.1-50.87,32.05-58.66S737,251.66,737,251.66Z"/><path class="cls-8" d="M785.21,395.85s5.32,6.76,7,7.56a5.2,5.2,0,0,0,2.85.58l-3.6-6.36Z"/><path class="cls-8" d="M784,388.86l15.36,7.33a2.73,2.73,0,0,1-2.53,1c-1.88-.07-6.65-1.78-6.65-1.78Z"/><polygon class="cls-7" points="788.98 414.37 910.11 413.52 945.91 322.65 824.97 323.5 788.98 414.37"/><polygon class="cls-7" points="911.5 409.98 751.56 411.11 751.58 414.63 910.11 413.52 911.5 409.98"/><path class="cls-28" d="M879.21,368.43c.9-3.19-1-5.76-4.15-5.74a8.27,8.27,0,0,0-7.38,5.82c-.89,3.19,1,5.76,4.15,5.74A8.27,8.27,0,0,0,879.21,368.43Z"/><path class="cls-29" d="M1882.88,703.86c-15.34-5.09-26,1.34-26,1.34-44.16,1.81-45.8,47.08-40.62,63.93,7.28,23.66-18.48,42.31,10.09,51.89,33.16,11.11,61-6.43,59.08-.71C1990.32,828.57,1917.76,715.45,1882.88,703.86Z"/><path class="cls-5" d="M1837.07,924a115.17,115.17,0,0,1-11.81,17.86c-9.17,11.49-57.32-15.78-53.17-17.86s27.59-68.63,37.52-80.43a42.28,42.28,0,0,1,22-13.42Z"/><path class="cls-30" d="M1999.57,1394.18s13.29,12.13,10.69,20.75-14.58,14.36-16.2,24.89-8.11,16.28-13.94,16.28H1952.3s-4.3-7.41,6.08-9.65,14.28-14.61,13.63-26.1,1-26.81,1-26.81l22-5.11Z"/><path class="cls-30" d="M1887.08,1399.33s4.78,51.38-1,54.25l-74.67-.15s0-8.62,12-10.53,33.06-8.94,36.63-24.58S1887.08,1399.33,1887.08,1399.33Z"/><path class="cls-5" d="M1944.52,889.38a298,298,0,0,1,0,34.51c-.74,12.48-13.36,29.19-15.15,33.33-4.5,10.37-9.57,12-9.57,12l-39.2,9.61-13.79,3.38-43.47-13s-19.8-55.26-11.85-86.37,20.1-52.72,20.1-52.72,29.54-6.64,81.66-2.94Z"/><path class="cls-31" d="M1948.25,924.33c-.74,12.48-17.09,28.75-18.88,32.89-4.5,10.37-9.57,12-9.57,12l-39.2,9.61-10.46-14.74s63.47-17.66,51.45-73.61Z"/><path class="cls-25" d="M1826.11,977.66s-21.53,67-22.91,89.83,41.15,324.09,42.86,334.6c1.61,9.91,13.92,16.23,13.92,16.23a18.6,18.6,0,0,0,13.73,1.06c11.21-3.17,14.75-7,14.75-7s16.76-214.88,6.39-291.63a1215.45,1215.45,0,0,1-10.49-143.14Z"/><path class="cls-11" d="M1917.32,975.67s32.84,44.06,35.9,73.84,4.8,134.41,11.32,163.45,30.49,84.91,30.49,175.47c0,0-2.49,5.2-10.18,8a86.5,86.5,0,0,1-9,2.48,14.08,14.08,0,0,1-15.74-7.48c-16.2-32.62-67.81-137.82-70.46-159.66-1.87-15.46-18.16-117.74-53.71-177.76-8.53-14.41,5.24-71.71,5.24-71.71Z"/><path class="cls-31" d="M1822.67,967.32s8.64,6.84,25.81,7.18c20.51.41,71.32-5.23,71.32-5.23a42,42,0,0,1,2.17,13s-62.06,15.66-98,2.29C1824,984.53,1819.31,975.8,1822.67,967.32Z"/><path class="cls-1" d="M1843.56,992.17c-5.16,0-9.36-4.75-9.36-10.59s4.2-10.59,9.36-10.59,9.36,4.75,9.36,10.59S1848.72,992.17,1843.56,992.17Zm0-18.08c-3.45,0-6.26,3.36-6.26,7.49s2.81,7.49,6.26,7.49,6.26-3.36,6.26-7.49S1847,974.09,1843.56,974.09Z"/><polygon class="cls-32" points="1888.4 1011.44 1795.12 1012.31 1749.21 904.44 1842.49 903.57 1888.4 1011.44"/><path class="cls-8" d="M1876.2,962.69l-6.84-8.4s-4.63-4.13-8-4.83-10.45-4.79-11.14-3.64,5.45,9.37,5.45,9.37l.31,0c-7,5.3-24.83.62-27,2.78-2.66,2.62,3.66,8.28,7,11.46s13.09,8.48,20.66,6.13c5.52-1.72,14.22-3.47,14.22-3.47Z"/><path class="cls-8" d="M1756.23,923.42s5.86-6.67,9.59-3.47-1,18.92-4.53,17.32S1754.19,925.37,1756.23,923.42Z"/><path class="cls-5" d="M1913.25,827.24s31.11,2.18,43,31.16,33.84,76.69,29.13,96.68c-1.88,8-24.54,35.57-119,18,0,0,.77-9.88,7.15-14.51,0,0,66.59-21.38,66.47-25.64-.21-8-9-15-46.19-52.2C1883.69,870.65,1913.25,827.24,1913.25,827.24Z"/><path class="cls-8" d="M1892.7,828.65c.92-1.23-.26-5.15-1.73-12.46-1.33-6.62-3.58-16.85-3.53-28.37l-2,.33-33.1,5.57s.76,8.85.78,17.18v.21c0,7.24-2,18.18.49,19.61C1866.18,838.07,1889.17,833.39,1892.7,828.65Z"/><path class="cls-33" d="M1852.37,793.72s.66,12.48.68,20.81c18.52-.44,28.41-18.42,32.42-26.38Z"/><path class="cls-8" d="M1850.37,808.6s43.39-6.18,39.13-33.14-1.54-45.91-29.42-43.11-31.62,13.95-32.39,23.29S1839,809.51,1850.37,808.6Z"/><path class="cls-29" d="M1840.26,734.83s16.89,29.74,35.82,31.52,26-4.35,26-4.35a52.17,52.17,0,0,1-21.69-27.74S1846.8,718.36,1840.26,734.83Z"/><path class="cls-29" d="M1843.61,736.93s-8.26,4.69-10.86,11.67a44,44,0,0,0-1.9,25.68s-12.35-20.07-4.26-33.83C1835.17,725.86,1843.61,736.93,1843.61,736.93Z"/><rect class="cls-34" y="1451.71" width="2556.33" height="7.02" rx="2.95"/></g></g></svg>