<svg xmlns="http://www.w3.org/2000/svg" viewBox="0 0 661.79 430.94"><defs><style>.cls-1{fill:#ebebeb;}.cls-2{fill:#e0e0e0;}.cls-3{fill:#f5f5f5;}.cls-4{fill:#fff;}.cls-5{fill:#fafafa;}.cls-6{fill:#8adae2;}.cls-7{fill:#263238;}.cls-8{fill:#455a64;}.cls-9{fill:#b78876;}.cls-10{fill:#aa6550;}.cls-11{fill:#e8505b;}.cls-12{opacity:0.4;}.cls-13,.cls-17{opacity:0.3;}.cls-14{fill:#ffbe9d;}.cls-15{fill:#eb996e;}.cls-16{fill:#79d2db;}</style></defs><title>Asset 1</title><g id="Layer_2" data-name="Layer 2"><g id="Background_Complete" data-name="Background Complete"><path class="cls-1" d="M620.52,197.76s-7.92-.57-7.19,17.2,2.54,27.22,2.54,27.22-.23,3.94-3.28,3.17-8.79-4.61-11.63-1.74-1.89,7.53,2,12.9S615,274,615.71,275s1,3.09-1.16,2.9-16.76-5.14-18.69,1.93,11.38,20.23,12.81,21.7,1.51,2.4.93,3.29-5.33-1.24-9.54-2.48-9.31-1.93-10.08,2.24S595.07,321,617,333.82l10.57,5.28,10-6.38c20.57-15,25.19-27.69,24-31.77s-6.19-2.87-10.25-1.21-8.58,4.24-9.24,3.41-.69-1.75.59-3.36,13.21-16,10.58-22.88-16.66-.45-18.79,0-2-1.63-1.45-2.77,7.48-14,10.83-19.72,3.92-10.37.7-13-8.43,1.82-11.39,2.89-3.58-2.82-3.58-2.82.85-9.6-.2-27.34-9.06-16.32-9.06-16.32"/><path class="cls-2" d="M621.14,213.67s0,.13.05.37,0,.63.08,1.09c.07,1,.16,2.39.28,4.2.25,3.64.56,8.92.92,15.43.72,13,1.57,31.06,2.44,51s1.67,37.93,2.32,51c.33,6.5.6,11.78.79,15.44.09,1.81.16,3.22.21,4.2,0,.46,0,.83,0,1.09a3.39,3.39,0,0,1,0,.37s0-.12,0-.37-.05-.62-.09-1.09c-.06-1-.16-2.38-.28-4.19-.24-3.64-.55-8.92-.91-15.44-.73-13-1.58-31.05-2.44-51s-1.68-37.92-2.33-51c-.33-6.51-.6-11.78-.78-15.44-.09-1.81-.16-3.22-.21-4.2,0-.47,0-.83-.05-1.1Z"/><path class="cls-2" d="M608.77,249.29a3.41,3.41,0,0,1,.66.55c.41.37,1,.92,1.68,1.61,1.39,1.38,3.27,3.34,5.3,5.54l5.17,5.66,1.57,1.7a3.81,3.81,0,0,1,.55.66,3.81,3.81,0,0,1-.66-.55c-.41-.37-1-.92-1.67-1.62-1.38-1.39-3.23-3.37-5.26-5.57l-5.21-5.62-1.58-1.7A4,4,0,0,1,608.77,249.29Z"/><path class="cls-2" d="M624.75,264.66c-.08-.08,3.79-4.13,8.63-9s8.84-8.84,8.92-8.76-3.78,4.13-8.63,9S624.83,264.74,624.75,264.66Z"/><path class="cls-2" d="M624.71,295.29a3.22,3.22,0,0,1,.73-.47l2.07-1.16c1.75-1,4.15-2.34,6.75-3.94s4.91-3.12,6.57-4.23l2-1.31a3.71,3.71,0,0,1,.76-.45,3.8,3.8,0,0,1-.66.57c-.44.35-1.09.84-1.9,1.43-1.63,1.17-3.92,2.74-6.53,4.33s-5,2.93-6.82,3.85c-.9.45-1.62.81-2.13,1A4.6,4.6,0,0,1,624.71,295.29Z"/><path class="cls-2" d="M607.2,284.57a3,3,0,0,1,.73.34c.46.24,1.11.61,1.91,1.07,1.61.91,3.82,2.2,6.25,3.64s4.61,2.77,6.18,3.75l1.85,1.17a3,3,0,0,1,.65.48,3.64,3.64,0,0,1-.73-.34c-.45-.25-1.11-.61-1.91-1.07-1.61-.91-3.82-2.2-6.25-3.64s-4.61-2.77-6.18-3.75l-1.85-1.17A3.34,3.34,0,0,1,607.2,284.57Z"/><path class="cls-2" d="M603.72,311.6a5.23,5.23,0,0,1,.93.45l2.46,1.36c2.07,1.16,4.92,2.79,8,4.61s6,3.48,8,4.71l2.4,1.47a5.6,5.6,0,0,1,.85.58,3.89,3.89,0,0,1-.93-.45L623,323c-2.07-1.16-4.91-2.79-8-4.61s-6-3.49-8-4.71l-2.4-1.47A5.14,5.14,0,0,1,603.72,311.6Z"/><path class="cls-2" d="M625.93,324.31a5.62,5.62,0,0,1,.91-.61l2.57-1.56c2.17-1.33,5.16-3.16,8.4-5.28s6.14-4.1,8.22-5.55l2.47-1.71a4.53,4.53,0,0,1,.94-.59,6.58,6.58,0,0,1-.84.71c-.56.45-1.38,1.07-2.4,1.83-2,1.51-4.91,3.54-8.17,5.65s-6.26,3.92-8.47,5.18c-1.11.63-2,1.13-2.64,1.46A5.15,5.15,0,0,1,625.93,324.31Z"/><polygon class="cls-2" points="641.81 342.56 612.57 342.56 622.11 414.8 632.27 414.8 641.81 342.56"/><path class="cls-3" d="M614.09,351.44s0,.1.15.25a1.85,1.85,0,0,0,.71.51,3.57,3.57,0,0,0,3.09-.38c1.18-.65,2.21-1.93,3.79-2.5a8.29,8.29,0,0,1,5.38.11,23.21,23.21,0,0,1,5,2.42,34.33,34.33,0,0,0,4.07,2.19,11.52,11.52,0,0,0,3,.87,4.7,4.7,0,0,0,.85,0c.19,0,.29,0,.29,0a15,15,0,0,1-4-1.21,40.65,40.65,0,0,1-4-2.25,22.57,22.57,0,0,0-5.09-2.51,8.59,8.59,0,0,0-5.68-.06,7.62,7.62,0,0,0-2.13,1.32,16.72,16.72,0,0,1-1.68,1.3A3.42,3.42,0,0,1,615,352,2.9,2.9,0,0,1,614.09,351.44Z"/><path class="cls-3" d="M615.15,364.74s.24-.3.69-.77a6.46,6.46,0,0,1,2.34-1.49,10.43,10.43,0,0,1,4.06-.61,42.88,42.88,0,0,1,5.09.7,17.47,17.47,0,0,0,5.21.21,14.15,14.15,0,0,0,4.1-1.17,13.22,13.22,0,0,0,2.47-1.46,3.53,3.53,0,0,0,.78-.71,27.66,27.66,0,0,1-3.38,1.86,14.88,14.88,0,0,1-4,1,17.4,17.4,0,0,1-5.08-.25,38.45,38.45,0,0,0-5.15-.66,10.43,10.43,0,0,0-4.21.74,6,6,0,0,0-2.34,1.67,4.6,4.6,0,0,0-.45.65C615.18,364.65,615.14,364.73,615.15,364.74Z"/><path class="cls-3" d="M638.5,371.86a2.55,2.55,0,0,0-.81-.41,8.25,8.25,0,0,0-2.42-.52,14.84,14.84,0,0,0-3.66.21c-1.37.22-2.83.59-4.37.92a18.48,18.48,0,0,1-4.35.49,9.56,9.56,0,0,1-3.46-.75,8,8,0,0,1-2.62-1.95,2.31,2.31,0,0,0,.5.76,6.09,6.09,0,0,0,2,1.5,9.23,9.23,0,0,0,3.58.88,17.65,17.65,0,0,0,4.47-.46c1.56-.33,3-.72,4.34-1a16.3,16.3,0,0,1,3.57-.31A13.81,13.81,0,0,1,638.5,371.86Z"/><path class="cls-3" d="M617.74,381.88a4.74,4.74,0,0,1,2.84-.28,14,14,0,0,1,3,1.1,11.15,11.15,0,0,0,3.85,1.07,11.68,11.68,0,0,0,7-1.62,10.31,10.31,0,0,0,1.74-1.34c.35-.38.54-.6.51-.62a25.14,25.14,0,0,1-2.42,1.66,11.92,11.92,0,0,1-6.78,1.44c-2.77-.16-4.9-1.81-6.82-2a4.4,4.4,0,0,0-2.2.19A1.49,1.49,0,0,0,617.74,381.88Z"/><path class="cls-3" d="M619.37,395.75a5.59,5.59,0,0,0,2.43-.49c1.47-.49,3.29-1.61,5.42-2.46a9,9,0,0,1,3.11-.65,5.72,5.72,0,0,1,2.49.57,5.43,5.43,0,0,1,1.81,1.56,1.36,1.36,0,0,0-.28-.62,4,4,0,0,0-1.37-1.24,5.71,5.71,0,0,0-2.65-.71,8.71,8.71,0,0,0-3.28.65c-2.2.87-4,2-5.37,2.59S619.36,395.67,619.37,395.75Z"/><path class="cls-3" d="M620.8,402.2a6.88,6.88,0,0,0,1.85.6,33.39,33.39,0,0,0,4.63.78,34.44,34.44,0,0,0,4.69.14,7,7,0,0,0,1.93-.23c0-.15-3,0-6.57-.38S620.84,402.06,620.8,402.2Z"/><polygon class="cls-2" points="451.49 0.65 451.49 59.47 367.01 59.47 363.97 1.06 451.49 0.65"/><rect class="cls-4" x="377.07" y="-12.04" width="58.28" height="84.48" transform="translate(376.01 436.41) rotate(-90)"/><path class="cls-2" d="M448.85,59.75H363.57V.66h85.28Zm-84.48-.81h83.68V1.46H364.37Z"/><rect class="cls-4" x="373.12" y="8.3" width="66.18" height="43.8"/><path class="cls-2" d="M439.3,8.3H439l-.94,0-3.63,0-13.64.05-47.64.09.19-.19c0,13.39,0,28.21,0,43.8h0l-.21-.2,66.18,0-.17.16c0-13.33.07-24.25.09-31.86,0-3.81,0-6.78,0-8.82,0-1,0-1.78,0-2.31s0-.81,0-.81,0,.26,0,.77,0,1.29,0,2.29c0,2,0,5,0,8.77,0,7.64.05,18.6.09,32v.17h-.17l-66.18,0h-.21V52.1h0c0-15.59,0-30.41,0-43.8V8.11h.19l47.77.1,13.59,0,3.6,0h1.22Z"/><path class="cls-2" d="M364,.9a6.81,6.81,0,0,1,1.45.94c.87.62,2,1.51,3.31,2.53s2.39,2,3.18,2.7a6.82,6.82,0,0,1,1.21,1.23,57.74,57.74,0,0,1-4.65-3.61A48.26,48.26,0,0,1,364,.9Z"/><path class="cls-2" d="M448.45,1.06A40.83,40.83,0,0,1,444,4.85a40,40,0,0,1-4.7,3.45,41.91,41.91,0,0,1,4.44-3.78A41.48,41.48,0,0,1,448.45,1.06Z"/><path class="cls-4" d="M448.38,59.35,439,51.72"/><path class="cls-2" d="M439,51.72a44,44,0,0,1,4.84,3.65,43.68,43.68,0,0,1,4.58,4,43.6,43.6,0,0,1-4.84-3.65A45,45,0,0,1,439,51.72Z"/><path class="cls-2" d="M364,59.34a41.14,41.14,0,0,1,4.4-3.74A40,40,0,0,1,373,52.18a40.49,40.49,0,0,1-4.4,3.75A37.87,37.87,0,0,1,364,59.34Z"/><rect class="cls-2" x="400.04" y="8.46" width="14.67" height="41.64" transform="translate(378.1 436.66) rotate(-90)"/><rect class="cls-2" x="488.37" y="17.45" width="76.07" height="125.91"/><rect class="cls-1" x="485.84" y="17.45" width="76.07" height="125.91"/><rect class="cls-5" x="489.08" y="20" width="69.59" height="120.81"/><rect class="cls-1" x="502.33" y="35.7" width="42.79" height="89.41"/><path class="cls-2" d="M502.33,93.47c-.1-8.35,7.41-16.5,15.68-17.67,3.94-.55,8.13.23,11.82-1.28,6.58-2.7,8.67-11.44,15.29-14l.3,64.62H502.33Z"/><polyline class="cls-2" points="360.83 140.76 417.19 171.97 415.07 175.94 359.22 144.15 360.83 140.76"/><polygon class="cls-2" points="358.06 137.81 360.65 133.84 362.16 134.77 359.84 138.78 358.06 137.81"/><polygon class="cls-2" points="410.79 167.03 413.69 168.7 404.25 228.92 399.78 228.97 410.79 167.03"/><path class="cls-2" d="M386.8,235.19s6.87-6.95,16.07-6.44a20,20,0,0,1,13.93,6.41Z"/><path class="cls-2" d="M358.11,165.11,335.8,152.23l6.44-11.16a12.9,12.9,0,0,1,17.6-4.72h0a12.9,12.9,0,0,1,4.72,17.6Z"/><rect class="cls-1" x="158.34" y="228.76" width="71.5" height="3.48" transform="translate(388.19 461) rotate(180)"/><polygon class="cls-1" points="240.93 232.24 254.34 181.98 198.51 181.98 186.36 232.24 240.93 232.24"/><polygon class="cls-2" points="189.71 228.43 239.58 228.43 251.19 184.3 201.06 184.3 189.71 228.43"/><rect class="cls-3" x="144.18" y="242.53" width="3.61" height="172.4"/><rect class="cls-1" x="147.79" y="243.03" width="3.61" height="171.91"/><rect class="cls-1" x="366.64" y="242.53" width="3.61" height="172.4"/><rect class="cls-2" x="370.25" y="243.03" width="3.61" height="171.91"/><rect class="cls-2" x="128.59" y="232.52" width="274.28" height="14.14"/><rect class="cls-1" x="247.7" y="246.66" width="120.75" height="23.4"/><path class="cls-2" d="M313.46,256.74a2.7,2.7,0,1,1-2.69-2.69A2.69,2.69,0,0,1,313.46,256.74Z"/><path class="cls-1" d="M109.13,316.61h47.43a6,6,0,0,0,6-6.05V296a10.18,10.18,0,0,0-10.18-10.18H108.77Z"/><path class="cls-1" d="M155.76,325.8H62.5a4.59,4.59,0,0,1-4.59-4.6h0a4.58,4.58,0,0,1,4.59-4.59h93.26a4.59,4.59,0,0,1,4.6,4.59h0A4.6,4.6,0,0,1,155.76,325.8Z"/><path class="cls-2" d="M43.5,194.17l51.3-.91,32.57,123.08L57.91,317,31.73,209.14A12.11,12.11,0,0,1,43.5,194.17Z"/><polygon class="cls-1" points="69.05 325.8 53.7 415.01 57.91 415.01 78.09 325.8 69.05 325.8"/><polygon class="cls-2" points="105.24 325.8 88.93 415.01 93.14 415.01 114.28 325.8 105.24 325.8"/><polygon class="cls-1" points="145.27 325.8 163.47 415.01 159.26 415.01 136.23 325.8 145.27 325.8"/><path class="cls-1" d="M88.93,193.26l25.39,123.21h19.47L113.43,207.6a17.54,17.54,0,0,0-17.24-14.34Z"/><rect class="cls-2" x="44.73" y="79.99" width="2.62" height="23.44"/><rect class="cls-2" x="131.08" y="79.99" width="2.62" height="23.44"/><rect class="cls-1" x="35.06" y="70.56" width="109.81" height="9.43"/><rect class="cls-3" x="108.04" width="15.14" height="70.56"/><path class="cls-2" d="M118.91,53.63a3,3,0,1,1-3-3A3,3,0,0,1,118.91,53.63Z"/><rect class="cls-2" x="113.46" y="18.69" width="4.63" height="28.84"/><rect class="cls-1" x="92.66" width="15.14" height="70.56"/><path class="cls-5" d="M103.53,53.63a3,3,0,1,1-3-3A3,3,0,0,1,103.53,53.63Z"/><rect class="cls-5" x="98.09" y="18.69" width="4.63" height="28.84"/><rect class="cls-2" x="78.01" width="15.14" height="70.56"/><path class="cls-5" d="M88.88,53.63a3,3,0,1,1-3-3A3,3,0,0,1,88.88,53.63Z"/><rect class="cls-5" x="83.44" y="18.69" width="4.63" height="28.84"/><polygon class="cls-2" points="59.29 69.48 77.48 7.41 71.21 4.66 52.55 67.24 59.29 69.48"/></g><g id="Plant"><path class="cls-6" d="M81.37,332.56c9.11,3.18,21,.34,28.78-5.35s13.4-13.85,18.37-22.12c2.12-3.52,4.19-7.2,4.86-11.26s-.32-8.64-3.47-11.29c-4.89-4.12-12.39-2-18,1.14a62,62,0,0,0-30.59,48.88"/><path class="cls-6" d="M91.15,354.36c5.47,7.21,14.87,10.43,23.91,10.84s18-2.08,26.44-5.32c3.07-1.18,6.43-2.79,7.48-5.9a7.54,7.54,0,0,0-1.6-7,15.7,15.7,0,0,0-6.11-4.16c-8.32-3.54-17.85-3.71-26.61-1.44s-16.4,7.35-23.51,12.95"/><path class="cls-6" d="M81.24,293.54c7.54.15,13.25-6.46,16.66-13.18a48.83,48.83,0,0,0,4.49-30.46c-.69-3.85-2.15-8-5.59-9.86s-8.07-.64-11,2-4.54,6.51-5.72,10.31c-4,13.1-3.17,28.15,1.17,41.15"/><path class="cls-6" d="M56.47,335.24c12.86-21.88,15-48.65,7.41-72.86-1.23-3.93-3.56-8.42-7.67-8.68-4.55-.29-7.4,4.78-8.65,9.16-4.41,15.38-3.47,31.71-2.5,47.67.6,9.84,4,18.25,11.41,24.71"/><path class="cls-6" d="M43.1,344.24a52.54,52.54,0,0,0-31.19-33.08c-3.41-1.29-7.75-2-10.3.59s-1.73,6.85-.13,10.05c2.59,5.16,6.79,9.31,11,13.3,3.81,3.62,7.76,7.26,12.58,9.37s13.66,2.64,18.06-.23"/><path class="cls-7" d="M122.8,288s-.07.08-.22.2l-.69.54-2.7,2-2,1.44c-.7.55-1.44,1.18-2.24,1.83-1.59,1.33-3.47,2.76-5.37,4.56-1,.88-2,1.8-3,2.75s-2.06,2.05-3.15,3.13c-2.21,2.13-4.35,4.61-6.66,7.18a141.74,141.74,0,0,0-23.49,38c-1.27,3.21-2.53,6.24-3.44,9.17-.48,1.45-1,2.84-1.39,4.21s-.76,2.69-1.11,3.94c-.77,2.5-1.2,4.82-1.68,6.84-.23,1-.46,2-.63,2.82s-.29,1.67-.42,2.39c-.25,1.41-.45,2.51-.6,3.32-.07.34-.12.63-.17.85a1.1,1.1,0,0,1-.08.3,1.34,1.34,0,0,1,0-.3c0-.23.07-.52.11-.87.12-.81.28-1.92.49-3.33l.36-2.41c.16-.88.38-1.82.59-2.84.44-2,.85-4.36,1.59-6.88q.53-1.89,1.08-4c.38-1.38.89-2.78,1.36-4.24.9-2.95,2.15-6,3.4-9.22A138.44,138.44,0,0,1,96.37,311.3c2.33-2.56,4.49-5,6.73-7.16,1.1-1.08,2.12-2.16,3.18-3.12l3.07-2.73c1.92-1.79,3.82-3.2,5.44-4.51.81-.64,1.56-1.25,2.27-1.78l2-1.41,2.77-1.92.73-.49A1,1,0,0,1,122.8,288Z"/><path class="cls-7" d="M139.83,348.68a4.65,4.65,0,0,1-.88-.15c-.58-.1-1.41-.32-2.51-.51a71.2,71.2,0,0,0-9.3-1.13A67.91,67.91,0,0,0,72,369.83a70,70,0,0,0-5.75,7.41c-.64.9-1.07,1.65-1.4,2.13a5.41,5.41,0,0,1-.52.73,4.47,4.47,0,0,1,.41-.79c.3-.51.7-1.28,1.31-2.2a62.68,62.68,0,0,1,5.63-7.56,66.81,66.81,0,0,1,55.49-23.09,62.73,62.73,0,0,1,9.33,1.33c1.09.22,1.92.48,2.49.62A5.63,5.63,0,0,1,139.83,348.68Z"/><path class="cls-7" d="M92.35,248.78a1.12,1.12,0,0,1,0,.34c0,.25-.12.57-.2,1-.21.9-.49,2.16-.85,3.77-.74,3.26-1.87,8-3.29,13.8-2.83,11.65-6.94,27.69-11.23,45.46C74.6,322,72.67,330.52,71,338.26S68,353,67,358.91c-.56,2.94-1,5.62-1.37,8s-.71,4.38-1,6-.45,2.9-.59,3.82c-.07.4-.12.73-.17,1a1.3,1.3,0,0,1-.08.33,1.74,1.74,0,0,1,0-.34c0-.26.07-.59.11-1,.12-.92.28-2.2.48-3.83s.48-3.7.86-6.05.75-5,1.28-8c1-5.91,2.33-12.92,3.93-20.68S74,321.88,76.14,313c4.29-17.78,8.47-33.8,11.41-45.42L91,253.81l1-3.74c.11-.4.19-.72.26-1A1,1,0,0,1,92.35,248.78Z"/><path class="cls-7" d="M62.83,376.28a.91.91,0,0,1-.08-.26l-.18-.79c-.15-.75-.36-1.77-.63-3.05-.55-2.65-1.27-6.49-2.09-11.25-1.65-9.52-3.6-22.74-4.81-37.44-.58-7.35-.9-14.37-1-20.76s-.05-12.15.15-17c.06-2.41.22-4.6.33-6.51s.23-3.57.36-4.91.21-2.34.28-3.1c0-.32.07-.59.09-.8a1,1,0,0,1,0-.28.81.81,0,0,1,0,.28l0,.81c0,.76-.1,1.8-.17,3.11s-.19,3-.25,4.91-.21,4.09-.24,6.5c-.14,4.83-.15,10.58,0,16.95s.52,13.39,1.1,20.73c1.2,14.68,3.08,27.89,4.62,37.42.77,4.77,1.43,8.62,1.9,11.28.22,1.29.39,2.31.52,3.06.05.32.09.59.12.8A.75.75,0,0,1,62.83,376.28Z"/><path class="cls-7" d="M63.78,379.06a5.18,5.18,0,0,1-.33-.76l-.85-2.2-.6-1.59-.83-1.85-.94-2.12c-.33-.76-.76-1.52-1.17-2.33l-1.31-2.55c-.5-.87-1-1.76-1.57-2.69-1-1.89-2.36-3.76-3.65-5.81a141,141,0,0,0-9.68-12.37,153.31,153.31,0,0,0-11.12-11.12c-1.84-1.56-3.53-3.12-5.24-4.42l-2.44-1.94-2.31-1.71c-1.46-1.1-2.83-2-4-2.84s-2.24-1.52-3.12-2l-2-1.26a4.15,4.15,0,0,1-.68-.48,4.29,4.29,0,0,1,.74.37l2.05,1.17c.9.49,2,1.16,3.18,2s2.62,1.69,4.1,2.77l2.34,1.68,2.47,1.92c1.73,1.3,3.44,2.85,5.31,4.4A144.59,144.59,0,0,1,43.3,344.39,130.73,130.73,0,0,1,53,356.85c1.28,2.06,2.61,4,3.63,5.87l1.54,2.71L59.44,368c.4.82.82,1.59,1.14,2.35l.9,2.16c.28.67.55,1.29.79,1.87s.38,1.13.55,1.62c.31.93.56,1.67.74,2.24A3.65,3.65,0,0,1,63.78,379.06Z"/><path class="cls-7" d="M118,313.41c0,.09-1.56.09-4.06.23a76.15,76.15,0,0,0-9.71,1.18,74.75,74.75,0,0,0-9.46,2.46c-2.38.79-3.82,1.36-3.86,1.27a3.81,3.81,0,0,1,1-.52c.64-.31,1.58-.7,2.76-1.15A57.84,57.84,0,0,1,114,313.21c1.26,0,2.28,0,3,.06A3.53,3.53,0,0,1,118,313.41Z"/><path class="cls-7" d="M127.74,360.77c-.19.1-1.64-4.09-5.3-8s-7.67-5.69-7.56-5.87a9.38,9.38,0,0,1,2.61,1.16,22.88,22.88,0,0,1,5.4,4.3,23.22,23.22,0,0,1,3.89,5.7A9.4,9.4,0,0,1,127.74,360.77Z"/><path class="cls-7" d="M94.66,266.54c.13.13-2.24,2.48-4.82,5.65s-4.42,6-4.57,5.87,1.47-3,4.1-6.25A26,26,0,0,1,94.66,266.54Z"/><path class="cls-7" d="M86.9,253.12a23.08,23.08,0,0,1,1.17,5.08c.48,2.83.74,5.15.57,5.17a22.7,22.7,0,0,1-1.17-5.07C87,255.47,86.73,253.15,86.9,253.12Z"/><path class="cls-7" d="M62.85,295.22c.15.07-1.54,3.62-3.76,7.91s-4.16,7.72-4.31,7.64a65.62,65.62,0,0,1,3.77-7.91C60.77,298.56,62.7,295.14,62.85,295.22Z"/><path class="cls-7" d="M48.54,280.93c.15-.08,1.57,2.49,3.18,5.72s2.8,5.93,2.65,6-1.58-2.49-3.19-5.73S48.39,281,48.54,280.93Z"/><path class="cls-7" d="M27.5,329.8c0,.17-2.59-.33-5.78-.54s-5.77-.11-5.79-.28,2.6-.56,5.84-.33A16.5,16.5,0,0,1,27.5,329.8Z"/><path class="cls-7" d="M41.87,373,49,410.64a5.27,5.27,0,0,0,5.18,4.29H75.35a5.27,5.27,0,0,0,5.2-4.41L86.77,373Z"/><polygon class="cls-8" points="44.19 385.24 84.62 385.24 86.77 373 41.87 373 44.19 385.24"/><polygon class="cls-5" points="44.19 385.24 45.04 389.7 84 389.7 84.62 385.24 44.19 385.24"/></g><g id="Character_3" data-name="Character 3"><path class="cls-9" d="M392.45,110.83l19.95-1.59c.12-2.33,0-11.34,0-11.34s8.29-1.29,8.4-9.58S419.42,61,419.42,61h0a28.81,28.81,0,0,0-29,3.64l-1.23,1Z"/><path class="cls-10" d="M412.37,97.78a19.29,19.29,0,0,1-10.82-3.07s2.56,6,10.84,5.22Z"/><path class="cls-9" d="M390.24,74.15c-.14-.06-5.7-1.69-5.52,4s5.84,4.32,5.84,4.15S390.24,74.15,390.24,74.15Z"/><path class="cls-10" d="M388.76,80.2s-.09.07-.26.15a1,1,0,0,1-.74,0,2.44,2.44,0,0,1-1.2-2.15,3.29,3.29,0,0,1,.23-1.43,1.13,1.13,0,0,1,.72-.78.5.5,0,0,1,.59.25c.09.16,0,.27.08.28s.12-.1.07-.33a.67.67,0,0,0-.24-.35.82.82,0,0,0-.55-.13,1.41,1.41,0,0,0-1,.92,3.28,3.28,0,0,0-.29,1.59,2.55,2.55,0,0,0,1.52,2.4,1.07,1.07,0,0,0,.9-.18C388.76,80.34,388.78,80.21,388.76,80.2Z"/><path class="cls-7" d="M417.59,74a1.19,1.19,0,0,1-1.14,1.2,1.14,1.14,0,0,1-1.22-1.07,1.19,1.19,0,0,1,1.14-1.2A1.14,1.14,0,0,1,417.59,74Z"/><path class="cls-7" d="M417.85,72.64c-.15.15-1-.51-2.32-.51s-2.21.64-2.35.49.08-.35.49-.65a3.33,3.33,0,0,1,1.88-.58,3.17,3.17,0,0,1,1.85.6C417.79,72.29,417.92,72.57,417.85,72.64Z"/><path class="cls-7" d="M405.11,74.27a1.19,1.19,0,0,1-1.15,1.2,1.14,1.14,0,0,1-1.22-1.07,1.19,1.19,0,0,1,1.14-1.2A1.15,1.15,0,0,1,405.11,74.27Z"/><path class="cls-7" d="M405.32,72.88c-.15.15-1.05-.51-2.32-.51s-2.21.64-2.35.49.08-.35.49-.65a3.3,3.3,0,0,1,1.88-.58,3.19,3.19,0,0,1,1.85.6C405.26,72.53,405.39,72.81,405.32,72.88Z"/><path class="cls-7" d="M409.94,82.33A8.62,8.62,0,0,1,412,82c.32,0,.63-.1.68-.32a1.69,1.69,0,0,0-.21-1c-.31-.78-.63-1.61-1-2.48a43.5,43.5,0,0,1-2.16-6.48A43.72,43.72,0,0,1,412,78L413,80.5a1.83,1.83,0,0,1,.17,1.28.79.79,0,0,1-.53.47,2,2,0,0,1-.56.08A7.79,7.79,0,0,1,409.94,82.33Z"/><path class="cls-7" d="M406.19,83.21c.21,0,.21,1.38,1.4,2.36s2.66.83,2.67,1-.33.27-1,.29a3.44,3.44,0,0,1-2.22-.78,2.92,2.92,0,0,1-1.08-2C405.94,83.55,406.1,83.21,406.19,83.21Z"/><path class="cls-7" d="M405.65,67.88c-.13.35-1.4.18-2.9.36s-2.7.59-2.9.28c-.09-.15.12-.47.61-.81a5.12,5.12,0,0,1,4.42-.49C405.42,67.44,405.7,67.72,405.65,67.88Z"/><path class="cls-7" d="M417.38,69c-.22.29-1.1,0-2.16,0s-2,.2-2.15-.1c-.09-.15.05-.44.44-.71a2.94,2.94,0,0,1,1.75-.48,3,3,0,0,1,1.72.58C417.36,68.51,417.48,68.81,417.38,69Z"/><path class="cls-7" d="M423.46,55.73A3.06,3.06,0,0,0,422.33,53a2.17,2.17,0,0,0-2.81.22,2.54,2.54,0,0,0-2.18-3.08c-1.36-.08-2.51.94-3.82,1.3a6.19,6.19,0,0,1-3.87-.45c-1.23-.5-2.38-1.18-3.62-1.63a10.6,10.6,0,0,0-13.57,6.23,4.69,4.69,0,0,0-5,1.89,7.73,7.73,0,0,0-1.19,5.44,17.08,17.08,0,0,0,1,3.72c0,.11,0,.22,0,.32.09,4.56.6,9.92,2.55,10,3.39,0,2.59-6.34,2.59-6.34C396.52,69,395,62.72,396,61.77s3.22-3.14,11.93,1.31a16.87,16.87,0,0,0,10.34,1.12l.22,0h.05l.07,0a8,8,0,0,0,2.24-1,4.4,4.4,0,0,0,1.84-2.05,2.42,2.42,0,0,0-.47-2.6A5.35,5.35,0,0,0,423.46,55.73Z"/><path class="cls-11" d="M402.49,409.56l-.24-10.49-19.64.32.18,15.35,1.22.05c5.43.22,27.6.7,31.21-.46C419.24,413,402.49,409.56,402.49,409.56Z"/><g class="cls-12"><path class="cls-4" d="M410.68,411.55s5.87,1.59,5.16,2.57-23.14,1.33-33,.62l0-.44,26.16-.19S409.53,411.62,410.68,411.55Z"/></g><path class="cls-7" d="M382.51,414.29a1.44,1.44,0,0,0,.34,0l1,0,3.57.1c3,.06,7.19.09,11.79,0s8.77-.22,11.79-.37l3.56-.21,1-.07.34,0a1.8,1.8,0,0,0-.34,0l-1,0-3.57.13c-3,.11-7.18.23-11.78.3s-8.77.07-11.79.05l-3.57,0h-1A2.14,2.14,0,0,0,382.51,414.29Z"/><path class="cls-7" d="M409,414.41a7.63,7.63,0,0,1,.64-1.71,8.68,8.68,0,0,1,1.19-1.39,2.68,2.68,0,0,0-1.4,1.27A2.6,2.6,0,0,0,409,414.41Z"/><path class="cls-7" d="M403.14,411.56c.05,0,.32-.3.6-.76a2.21,2.21,0,0,0,.41-.89c-.06,0-.33.31-.61.77S403.08,411.53,403.14,411.56Z"/><path class="cls-7" d="M401.53,410.75c.05.05.35-.17.69-.48s.57-.59.52-.64-.35.16-.68.47S401.49,410.7,401.53,410.75Z"/><path class="cls-7" d="M400.5,408.91a2.17,2.17,0,0,0,1,.11,2.22,2.22,0,0,0,1-.12,2.17,2.17,0,0,0-1-.11A2.22,2.22,0,0,0,400.5,408.91Z"/><path class="cls-7" d="M400.13,407.61a2,2,0,0,0,1.15.31,2.05,2.05,0,0,0,1.18-.17,5.65,5.65,0,0,0-1.16-.07A6.14,6.14,0,0,0,400.13,407.61Z"/><path class="cls-7" d="M403.78,409.84a3.43,3.43,0,0,0,1.26,0,6.92,6.92,0,0,0,1.34-.32,4,4,0,0,0,.76-.32.75.75,0,0,0,.31-.4.5.5,0,0,0-.2-.5,2.3,2.3,0,0,0-2.85.72,2.11,2.11,0,0,0-.4.85.74.74,0,0,0,0,.34,3.73,3.73,0,0,1,.56-1.09,2.29,2.29,0,0,1,1.07-.71,2,2,0,0,1,1.5.07c.2.15.13.39-.09.52a3.5,3.5,0,0,1-.71.32,9.54,9.54,0,0,1-1.29.36C404.26,409.79,403.78,409.8,403.78,409.84Z"/><path class="cls-7" d="M404.1,409.9a1.26,1.26,0,0,0,.14-.88,2.23,2.23,0,0,0-.36-.92,1.29,1.29,0,0,0-1.06-.63.5.5,0,0,0-.38.59,1.22,1.22,0,0,0,.22.56,3.55,3.55,0,0,0,.61.76,1.82,1.82,0,0,0,.73.5s-.26-.22-.61-.62a4.27,4.27,0,0,1-.54-.75c-.18-.26-.31-.74,0-.8s.64.27.84.52a2.05,2.05,0,0,1,.37.82A4.59,4.59,0,0,1,404.1,409.9Z"/><path class="cls-7" d="M382.82,408.91s.57-.06,1.46,0a6.13,6.13,0,0,1,5.2,4c.32.83.36,1.4.4,1.39a1.17,1.17,0,0,0,0-.39,4.88,4.88,0,0,0-.23-1.06,5.94,5.94,0,0,0-5.35-4.13,4.92,4.92,0,0,0-1.08,0A1,1,0,0,0,382.82,408.91Z"/><path class="cls-7" d="M384.73,400.7a37.44,37.44,0,0,0-.11,4,33,33,0,0,0,.14,4,36.09,36.09,0,0,0,.1-4A31.92,31.92,0,0,0,384.73,400.7Z"/><path class="cls-7" d="M392.35,412.51a16.28,16.28,0,0,0,5.74,0c0-.07-1.29,0-2.87,0S392.36,412.44,392.35,412.51Z"/><path class="cls-7" d="M388.5,412.57s.11.27.25.56.21.55.28.55.09-.32-.07-.65S388.54,412.52,388.5,412.57Z"/><path class="cls-7" d="M387,410.78c0,.05.09.25.29.46s.42.32.46.28-.08-.25-.29-.45S387.07,410.74,387,410.78Z"/><path class="cls-7" d="M384.93,410c0,.07.28.06.57.16s.5.25.55.2-.12-.31-.48-.43S384.91,409.93,384.93,410Z"/><path class="cls-7" d="M383.45,409.63c0,.06.09.16.26.22s.31.06.33,0-.09-.16-.25-.22S383.47,409.56,383.45,409.63Z"/><g class="cls-13"><polygon points="382.84 408.38 402.46 407.75 402.39 405.38 382.67 407.14 382.84 408.38"/></g><path class="cls-11" d="M444.67,409.54l-.29-10.48-19.64.42.26,15.34,1.22.05c5.43.19,27.61.56,31.21-.62C461.44,412.94,444.67,409.54,444.67,409.54Z"/><g class="cls-12"><path class="cls-4" d="M452.87,411.49s5.89,1.56,5.18,2.54-23.14,1.45-33.05.79l0-.44,26.16-.32S451.73,411.56,452.87,411.49Z"/></g><path class="cls-7" d="M424.72,414.37a1.44,1.44,0,0,0,.34,0l1,0,3.57.08c3,.05,7.19.05,11.79,0s8.77-.27,11.78-.43l3.57-.23,1-.07.34-.05h-.34l-1,0-3.57.15c-3,.12-7.18.27-11.78.36s-8.77.12-11.79.11h-4.88Z"/><path class="cls-7" d="M451.19,414.36a7.85,7.85,0,0,1,.63-1.72,7.65,7.65,0,0,1,1.19-1.39,3.15,3.15,0,0,0-1.82,3.11Z"/><path class="cls-7" d="M445.33,411.54c.06,0,.33-.31.61-.76a2.33,2.33,0,0,0,.4-.89c-.06,0-.33.3-.61.76A2.16,2.16,0,0,0,445.33,411.54Z"/><path class="cls-7" d="M443.72,410.73s.35-.16.69-.47.56-.6.52-.65-.35.16-.69.47S443.68,410.69,443.72,410.73Z"/><path class="cls-7" d="M442.68,408.9a2.17,2.17,0,0,0,1,.11,2.15,2.15,0,0,0,1-.13,2.52,2.52,0,0,0-1-.11A2.49,2.49,0,0,0,442.68,408.9Z"/><path class="cls-7" d="M442.31,407.6a1.93,1.93,0,0,0,1.15.31,2,2,0,0,0,1.18-.18,6.36,6.36,0,0,0-1.17-.06A7.16,7.16,0,0,0,442.31,407.6Z"/><path class="cls-7" d="M446,409.81a3.47,3.47,0,0,0,1.26,0,7.54,7.54,0,0,0,1.34-.32,3.87,3.87,0,0,0,.76-.34.65.65,0,0,0,.31-.4.5.5,0,0,0-.2-.5,2.35,2.35,0,0,0-3.25,1.59c0,.22,0,.34,0,.34a3.37,3.37,0,0,1,.55-1.09,2.4,2.4,0,0,1,1.06-.72,2,2,0,0,1,1.51.07c.2.15.13.38-.09.52a3.42,3.42,0,0,1-.7.32,8.92,8.92,0,0,1-1.29.36C446.44,409.76,446,409.78,446,409.81Z"/><path class="cls-7" d="M446.29,409.87a1.23,1.23,0,0,0,.13-.88,2,2,0,0,0-.37-.91,1.25,1.25,0,0,0-1.06-.63.51.51,0,0,0-.38.6,1.41,1.41,0,0,0,.23.56,3.73,3.73,0,0,0,.61.75,1.86,1.86,0,0,0,.73.49s-.25-.22-.61-.61a4.27,4.27,0,0,1-.54-.75c-.18-.26-.31-.74,0-.8s.64.27.84.52a2.08,2.08,0,0,1,.37.81A4.19,4.19,0,0,1,446.29,409.87Z"/><path class="cls-7" d="M425,409c0,.05.56-.06,1.45,0a6.16,6.16,0,0,1,5.23,4c.31.83.36,1.4.4,1.39a1.22,1.22,0,0,0,0-.4,4.81,4.81,0,0,0-.23-1.05,6.09,6.09,0,0,0-2.06-2.89,6,6,0,0,0-3.32-1.21,4.28,4.28,0,0,0-1.08,0A1.25,1.25,0,0,0,425,409Z"/><path class="cls-7" d="M426.87,400.78a34.6,34.6,0,0,0-.09,4,32.74,32.74,0,0,0,.16,4,36.38,36.38,0,0,0,.08-4A33.83,33.83,0,0,0,426.87,400.78Z"/><path class="cls-7" d="M434.55,412.55a16.27,16.27,0,0,0,5.74-.07c0-.07-1.28,0-2.87,0S434.56,412.48,434.55,412.55Z"/><path class="cls-7" d="M430.7,412.62c0,.05.11.27.25.56s.22.55.28.55.1-.32-.06-.65S430.75,412.57,430.7,412.62Z"/><path class="cls-7" d="M429.22,410.85c-.05,0,.08.24.29.45s.41.32.46.28-.09-.25-.3-.45S429.26,410.8,429.22,410.85Z"/><path class="cls-7" d="M427.12,410.06c0,.07.28.06.57.16s.5.24.55.2-.12-.32-.48-.43S427.1,410,427.12,410.06Z"/><path class="cls-7" d="M425.64,409.71c0,.06.09.16.25.22s.32.05.34,0-.09-.16-.26-.22S425.66,409.64,425.64,409.71Z"/><g class="cls-13"><polygon points="425.02 408.47 444.63 407.73 444.56 405.36 424.84 407.23 425.02 408.47"/></g><path class="cls-9" d="M448.3,145.23s3.62,21.67,6.11,22.65c13.82,5.47,30.38,5.06,36.24,4.7.72-.47,1.54-1,2.49-1.75a9.15,9.15,0,0,0,2.07-2.23,14.09,14.09,0,0,0,1.78-3.39,1.15,1.15,0,0,1,2.17-.34c.38,1-.53,3.62-2.2,7.19,0,0-.93,1.91.76,2.51s12.43,4.53,13.31,5.57.62,2.19-.69,2.23-8.21-1.91-8.21-1.91,9,2,9.09,3.06c.13,1.5-3.24,1.63-9.09-.53,0,0,9.41.89,8.85,3.14-.27,1.1-8.71-.82-8.71-.82-.73,1.05,8.71.9,8.67,2.34,0,.66-1.32,1.08-5.74.81-2.68-.16-7.09-.5-11.47-.79v.06S437.5,196.1,433,170.93c-3.06-17-2.08-16.61-3.15-25.7"/><path class="cls-10" d="M497.3,183.66c-.08.05-.39-.39-1-1a7.18,7.18,0,0,0-2.9-1.59l-.63-.16.55-.37.41-.27a8.67,8.67,0,0,0,2.44-2.72,12,12,0,0,1,.74-1.39,2.8,2.8,0,0,1-.37,1.57,7.23,7.23,0,0,1-2.47,3c-.15.11-.3.2-.44.29l-.08-.54a6.38,6.38,0,0,1,3,1.88C497.16,183.11,497.35,183.63,497.3,183.66Z"/><path class="cls-10" d="M509.74,182.5a26.47,26.47,0,0,1-4.25-1.22,27,27,0,0,1-4.2-1.38,19.38,19.38,0,0,1,8.45,2.6Z"/><path class="cls-10" d="M509.65,184.58a19,19,0,0,1-3.84-.81c-2.1-.51-3.82-.86-3.79-1a10.29,10.29,0,0,1,3.93.45A10.08,10.08,0,0,1,509.65,184.58Z"/><polygon class="cls-7" points="378.88 201.32 378.88 407.24 409.47 406.06 412.1 226.19 422.48 406.78 453.65 408.29 438.29 203.12 378.88 201.32"/><path class="cls-8" d="M414.69,203.15a21.45,21.45,0,0,1,.26,3.5c.08,2.16.16,5.15.2,8.45,0,1.64,0,3.21,0,4.66a9.1,9.1,0,0,1-.63,3.81,4.21,4.21,0,0,1-1.74,2,1.52,1.52,0,0,1-.92.29c0-.05.32-.14.8-.48a4.32,4.32,0,0,0,1.48-1.94,9.18,9.18,0,0,0,.47-3.65c0-1.45,0-3-.08-4.65-.05-3.3-.06-6.29,0-8.46A21.72,21.72,0,0,1,414.69,203.15Z"/><path class="cls-8" d="M410,205.45c.06.07-.41.34-.42,1a1.13,1.13,0,0,0,.44,1,1.07,1.07,0,0,0,1.22-.09.93.93,0,0,0,.07-1.53,1.27,1.27,0,0,0-1.23-.29l0-.23c.25.13.38.22.36.26s-.17,0-.44,0l-.25-.05.23-.18a1.45,1.45,0,0,1,1.66.13,1.5,1.5,0,0,1,.62,1.1,1.48,1.48,0,0,1-.66,1.29,1.59,1.59,0,0,1-1.89,0,1.52,1.52,0,0,1-.52-1.44,1.39,1.39,0,0,1,.48-.88C409.87,205.43,410,205.42,410,205.45Z"/><path class="cls-8" d="M409.8,400.41c0,.16-6.86.3-15.32.3s-15.31-.14-15.31-.3,6.86-.3,15.31-.3S409.8,400.24,409.8,400.41Z"/><path class="cls-8" d="M452.35,399.24c0,.16-6.81.3-15.2.3s-15.2-.14-15.2-.3,6.81-.3,15.2-.3S452.35,399.08,452.35,399.24Z"/><path class="cls-8" d="M394.61,204.74c.15,0,.26,43.49.26,97.12s-.11,97.12-.26,97.12-.26-43.48-.26-97.12S394.47,204.74,394.61,204.74Z"/><path class="cls-8" d="M428.55,204.74c.15,0,2.41,43.19,5.05,96.47s4.67,96.5,4.53,96.51-2.41-43.18-5.05-96.48S428.41,204.75,428.55,204.74Z"/><path class="cls-9" d="M403.61,227.88a13.18,13.18,0,0,1-3.59.2,8.34,8.34,0,0,1-2.83-.61c-.41-.17-.81-.33-1.18-.5a10,10,0,0,1-4.24-3.53c-4.65-6.8-18.64-27.4-20.57-31.9-2.33-5.42,6.4-46.82,6.4-46.82l-17.21-5.59s-8.34,36.41-7.89,54.34c.28,11.4,31.55,42.89,31.58,42.92a103.86,103.86,0,0,0,5.66,9.85c3.07,4.34,3.47,4.07,3.91,3.63,1.19-1.2-5.12-7.84-2.94-7.2s6.78,9,8,7.72c1.55-1.69-5.19-8.52-5.71-9.14s.35-1.4.79-.82c.64.84,7.6,9.51,9.15,7.86.85-.91-.93-2.29-.93-2.29s-7.11-7.63-6.35-8.39,5.09,3.58,6.44,5.14,2.62,1.54,2.81.38c.14-.79-3.9-5.69-5.27-7.2s-5.23-5.62-1.69-5.14,6.44-.49,7-1.3S404.67,227.55,403.61,227.88Z"/><path class="cls-11" d="M380.05,147.21l-.2,25.29-1.34,29.08,59.93,1.55-3.86-31.21L433,142.39s4.69-19.54,3.54-22.53a12.24,12.24,0,0,0-7.27-7.44c-.78-.45-11.82-4-15.92-4.2l0-7.72c-6.87.67-10.42,8.8-10.42,8.8-2.85-6.88-13.55-7.88-13.55-7.88l.2,7.11a50.29,50.29,0,0,0-11.22,2c-6,2.16-9.26,3.71-13.71,8.16-3.07,3.07-5.69,14.27-6.49,19.45"/><path class="cls-7" d="M401,106.59a2.8,2.8,0,0,0-2,.26,3.41,3.41,0,0,0-1.42,1.65,8.72,8.72,0,0,0-.45,1.28l-.18.7a1.85,1.85,0,0,1-.38.83.85.85,0,0,1-.53.25,1.07,1.07,0,0,1-.5-.09l-.69-.33-1.26-.62-2.11-1.08a7.7,7.7,0,0,1-1.89-1.13,8.28,8.28,0,0,1,2.07.76l2.17,1,1.27.59.66.3c.21.08.29.07.38,0a4.76,4.76,0,0,0,.43-1.28,8.15,8.15,0,0,1,.52-1.36,3.64,3.64,0,0,1,1.72-1.78,2.48,2.48,0,0,1,1.67-.2C400.84,106.4,401,106.56,401,106.59Z"/><path class="cls-7" d="M413.55,107.78a33.66,33.66,0,0,1-4.64,3.85l-.39.3-.08-.48-.11-.61a7,7,0,0,0-1.74-4.09,5.81,5.81,0,0,0-1.58-1c0-.07.86-.14,1.86.68a4.84,4.84,0,0,1,1.32,1.76,10.83,10.83,0,0,1,.73,2.55c0,.21.07.41.1.61l-.47-.19A32.85,32.85,0,0,1,413.55,107.78Z"/><path class="cls-11" d="M430.66,113s9.85,3.35,14.13,16.64a205.15,205.15,0,0,1,6.38,25.92l-16.77,5.66-6.26-38.15Z"/><path class="cls-11" d="M451.17,155.57s1.76,7.8,2.77,9.24.71,2.56,8.6,4.41,17.84,2.87,21.33,2.46l2.46.09,1.64,17.3s-19.79,2.81-33.12-.58-19.17-8-19.89-11-1.43-17.63-1.43-17.63Z"/><g class="cls-13"><path d="M389.56,108.31s7.25,7.47,8.25,6.37,1.46-8.29,4.41-6.87a2.85,2.85,0,0,0-1.83-1.3c-1.12-.12-2.93-.29-3.83,3.82,0,0,0,1.27-1,.9S389.56,108.31,389.56,108.31Z"/></g><g class="cls-13"><path d="M404.1,107.31a2,2,0,0,1,1.9,1.58,47.25,47.25,0,0,1,.49,5.9l6.43-6.35-4.22,2.93s-.58-5-3.69-5.62Z"/></g><path class="cls-11" d="M380.68,234.61,394.15,222s-20.2-26.9-20.92-31.81,7.11-45.45,7.11-45.45l-21.8-8.27s-8.44,40-8.42,57.35C350.13,201.92,380.68,234.61,380.68,234.61Z"/><path class="cls-5" d="M445.26,131a5.27,5.27,0,0,1-.8-.36c-.26-.13-.59-.27-1-.42a14.25,14.25,0,0,0-1.36-.51,26.13,26.13,0,0,0-9.12-1.16,67.75,67.75,0,0,0-13.54,2.22c-5,1.15-10.69,2.56-16.76,2.12s-11.48-2.49-16.4-4.07A60.81,60.81,0,0,0,373,125.64a25.61,25.61,0,0,0-9.17.61c-.53.13-1,.28-1.39.42a9.31,9.31,0,0,0-1,.37,6.65,6.65,0,0,1-.83.31,14.3,14.3,0,0,1,3.16-1.29,24.91,24.91,0,0,1,9.26-.79,59.61,59.61,0,0,1,13.45,3.1c4.93,1.57,10.34,3.54,16.29,4s11.57-.94,16.61-2.07A65.35,65.35,0,0,1,433,128.2a25.17,25.17,0,0,1,9.2,1.33A14.5,14.5,0,0,1,445.26,131Z"/><path class="cls-5" d="M376.81,157.31a14.88,14.88,0,0,1-3.15,0,63.31,63.31,0,0,1-7.54-1,64.17,64.17,0,0,1-7.38-1.84,15.72,15.72,0,0,1-2.95-1.11,24.54,24.54,0,0,1,3,.76c1.87.5,4.47,1.13,7.37,1.68s5.56.9,7.48,1.11A23.12,23.12,0,0,1,376.81,157.31Z"/><path class="cls-5" d="M450.64,157.1a3.4,3.4,0,0,1-.47.56,9,9,0,0,1-1.63,1.32,13.74,13.74,0,0,1-7.39,2c-3.3.08-7.1-1-11.13-2.43a64.17,64.17,0,0,0-6.4-1.95,36.31,36.31,0,0,0-7.1-.81c-1.22-.07-2.44,0-3.64.05s-2.37.15-3.52.3c-2.32.23-4.54.56-6.66.87-4.23.63-8.06,1.18-11.3,1.4a47.9,47.9,0,0,1-7.68-.07c-.9-.12-1.6-.24-2.07-.31a3.27,3.27,0,0,1-.71-.15,4,4,0,0,1,.73,0l2.07.21a53.94,53.94,0,0,0,7.63-.09c3.23-.26,7-.84,11.26-1.51,2.12-.32,4.35-.66,6.67-.9,1.16-.15,2.35-.2,3.56-.31s2.43-.12,3.67-.05a36,36,0,0,1,7.21.84,62.58,62.58,0,0,1,6.44,2c4,1.44,7.74,2.55,11,2.52a13.84,13.84,0,0,0,7.28-1.76A14.74,14.74,0,0,0,450.64,157.1Z"/><path class="cls-5" d="M373.58,189.06c0,.08-1.25-.29-3.27-.71a43.9,43.9,0,0,0-8-.9,45,45,0,0,0-8,.61c-2,.35-3.27.67-3.29.59a2.84,2.84,0,0,1,.84-.33c.55-.18,1.36-.4,2.38-.62a36.53,36.53,0,0,1,8.08-.77,35.68,35.68,0,0,1,8,1.07,23.11,23.11,0,0,1,2.36.7A3.15,3.15,0,0,1,373.58,189.06Z"/><path class="cls-5" d="M435.69,189s-.65-.5-1.87-1.3a22.62,22.62,0,0,0-5.59-2.58,30.57,30.57,0,0,0-9-1.26,55.26,55.26,0,0,0-11.13,1.36c-3.91.82-7.61,1.78-11,2.48a64,64,0,0,1-9.15,1.31,34.05,34.05,0,0,1-6.23-.18c-.73-.1-1.29-.19-1.67-.28a3.84,3.84,0,0,1-.57-.14c0-.05.81.09,2.27.22a38.83,38.83,0,0,0,6.18,0,69.27,69.27,0,0,0,9.07-1.41c3.38-.73,7.07-1.7,11-2.52a53.89,53.89,0,0,1,11.24-1.33,30.09,30.09,0,0,1,9.14,1.39,20.8,20.8,0,0,1,5.58,2.76,14.15,14.15,0,0,1,1.33,1.06A2.26,2.26,0,0,1,435.69,189Z"/><path class="cls-5" d="M466.65,171.23s.1.27.17.78a13.32,13.32,0,0,1,.14,2.17,20.09,20.09,0,0,1-5.11,13.17,14.6,14.6,0,0,1-1.56,1.51c-.4.32-.63.49-.65.46s.79-.82,1.94-2.21a23.07,23.07,0,0,0,3.54-6.07,22.73,22.73,0,0,0,1.47-6.87C466.68,172.37,466.56,171.24,466.65,171.23Z"/><path class="cls-5" d="M385.68,211.39c0,.08-1.07.3-2.76.83a32.12,32.12,0,0,0-6.29,2.78,31.55,31.55,0,0,0-5.51,4.12c-1.29,1.21-2,2-2.08,2a2.48,2.48,0,0,1,.43-.66,17.59,17.59,0,0,1,1.39-1.59,26,26,0,0,1,12-7,18,18,0,0,1,2.08-.43A2,2,0,0,1,385.68,211.39Z"/><path class="cls-5" d="M483.58,172.08a9.56,9.56,0,0,1,.72,2.5,36.21,36.21,0,0,1,.74,6.25,35.18,35.18,0,0,1-.37,6.27,10.24,10.24,0,0,1-.57,2.55,17.42,17.42,0,0,1,.21-2.59,56,56,0,0,0,.21-6.22,53.5,53.5,0,0,0-.58-6.19A19.59,19.59,0,0,1,483.58,172.08Z"/><path class="cls-7" d="M408.13,123.8c-.05-.06.45-.27,1,.2a1.32,1.32,0,0,1,.45,1.12,1.29,1.29,0,0,1-1,1.09,1.32,1.32,0,0,1-1.42-.52,1.38,1.38,0,0,1-.08-1.21c.29-.67.83-.69.82-.62s-.31.25-.42.75a1,1,0,0,0,.14.77.78.78,0,0,0,.82.25.79.79,0,0,0,.64-.58,1,1,0,0,0-.21-.76C408.51,123.89,408.13,123.89,408.13,123.8Z"/><path class="cls-7" d="M410.32,145c-.05-.06.45-.27,1,.2a1.32,1.32,0,1,1-2,1.68,1.38,1.38,0,0,1-.08-1.21c.29-.66.83-.68.82-.61s-.31.25-.42.75a1,1,0,0,0,.14.77.87.87,0,0,0,1.46-.34,1,1,0,0,0-.21-.75C410.7,145.08,410.32,145.09,410.32,145Z"/><path class="cls-7" d="M411.66,165.69c0-.06.46-.27,1,.2a1.32,1.32,0,1,1-2,1.69,1.38,1.38,0,0,1-.08-1.21c.29-.67.83-.69.82-.62s-.31.25-.42.75a1,1,0,0,0,.14.77.78.78,0,0,0,.82.25.79.79,0,0,0,.64-.58,1,1,0,0,0-.21-.76C412.05,165.78,411.67,165.78,411.66,165.69Z"/><path class="cls-7" d="M413,188.21c0-.06.45-.27,1,.2a1.32,1.32,0,1,1-2,1.68,1.36,1.36,0,0,1-.08-1.2c.29-.67.83-.69.82-.62s-.31.25-.42.75a1,1,0,0,0,.14.77.87.87,0,0,0,1.46-.34,1,1,0,0,0-.21-.75C413.41,188.3,413,188.3,413,188.21Z"/><path class="cls-7" d="M409.54,199.45a5.66,5.66,0,0,1-.09-.92c0-.65-.09-1.53-.15-2.63-.11-2.34-.28-5.63-.48-9.67-.42-8.17-1.11-19.45-2.06-31.89s-2-23.7-2.68-31.85c-.35-4-.63-7.31-.84-9.65-.08-1.1-.15-2-.2-2.63a5.2,5.2,0,0,1,0-.91,5.32,5.32,0,0,1,.15.9c.08.66.18,1.53.31,2.62l1,9.63c.83,8.14,1.9,19.39,2.85,31.85s1.57,23.73,1.89,31.91c.16,4.09.26,7.4.29,9.68,0,1.1,0,2,0,2.64A5.45,5.45,0,0,1,409.54,199.45Z"/><path class="cls-7" d="M437.67,194.83a2.5,2.5,0,0,1-.15-.58l-.3-1.68c-.26-1.47-.59-3.59-1-6.21-.78-5.25-1.73-12.52-2.72-20.55s-1.91-15.31-2.67-20.55l-.92-6.22c-.1-.68-.18-1.23-.24-1.69a2.39,2.39,0,0,1-.05-.59,1.86,1.86,0,0,1,.16.57c.1.45.22,1,.36,1.67.29,1.46.68,3.57,1.1,6.19.87,5.24,1.86,12.51,2.85,20.54S436,181,436.65,186.3l.8,6.23c.08.68.14,1.24.19,1.7A2.28,2.28,0,0,1,437.67,194.83Z"/><g class="cls-13"><path d="M430.93,142.58c3.41,11.79,4.54,22.14,11,31.88a29.92,29.92,0,0,0,8.92,8.76c6.93,4.42,15.31,5.88,23.48,6.64h5.54s-12.44,1-22.5-.79c0,0-15.47-2.76-21.53-9.87Z"/></g><g class="cls-13"><polygon points="381.29 137.38 386.64 201.58 378.51 201.58 379.72 175.08 380.05 146.67 381.29 137.38"/></g><path class="cls-7" d="M380.11,146.62a7.58,7.58,0,0,1,.11-1.53c.12-1.1.27-2.49.46-4.16s.39-3.84.58-6.16c.09-1.17.18-2.39.28-3.65a25.09,25.09,0,0,0,0-3.88,8.62,8.62,0,0,0-1.1-3.6,7.83,7.83,0,0,0-2.47-2.49,12.67,12.67,0,0,0-5.73-1.81,35.63,35.63,0,0,0-4.16-.06,9.22,9.22,0,0,1-1.54,0,6.74,6.74,0,0,1,1.53-.22,25.88,25.88,0,0,1,4.2-.12,12.54,12.54,0,0,1,6,1.76,8.33,8.33,0,0,1,2.67,2.65,9,9,0,0,1,1.19,3.85,23.83,23.83,0,0,1,0,4c-.1,1.27-.2,2.49-.31,3.66-.22,2.32-.48,4.41-.72,6.16s-.47,3.17-.64,4.14A7.59,7.59,0,0,1,380.11,146.62Z"/></g><g id="Character_2" data-name="Character 2"><path class="cls-14" d="M310.68,326.68c.49,1.93,5.2,85,5.2,85l17.43-1.31,1.14-83.66Z"/><path class="cls-11" d="M333.84,411.36l0-1.84-18.58.39.11,6,1.15,0c5.11.17,26,.52,29.38-.51C349.63,414.35,333.84,411.36,333.84,411.36Z"/><g class="cls-13"><path d="M322,415.69a5.89,5.89,0,0,0-2.44-3.62,6.62,6.62,0,0,0-4.35-1.17l.11,4.81Z"/></g><g class="cls-13"><path d="M341.56,413.07s5.54,1.38,4.87,2.23-21.78,1.24-31.11.66l0-.39,24.63-.25S340.48,413.14,341.56,413.07Z"/></g><path class="cls-7" d="M315.05,415.57l.32,0,.92,0,3.36.07c2.84,0,6.77.05,11.1,0s8.26-.23,11.1-.37l3.35-.19.92-.07.31,0h-.32l-.91,0-3.36.12c-2.84.11-6.76.23-11.09.31s-8.26.09-11.1.08h-4.28A1.14,1.14,0,0,0,315.05,415.57Z"/><path class="cls-7" d="M340,415.58a6.14,6.14,0,0,1,.59-1.5,8,8,0,0,1,1.12-1.22,2.44,2.44,0,0,0-1.31,1.12A2.09,2.09,0,0,0,340,415.58Z"/><path class="cls-7" d="M334.46,413.11c.05,0,.31-.27.57-.67s.43-.75.38-.78-.31.27-.57.67S334.41,413.08,334.46,413.11Z"/><path class="cls-7" d="M333,412.4s.33-.14.64-.41.53-.53.49-.57-.33.14-.64.41S332.91,412.36,333,412.4Z"/><path class="cls-7" d="M332,410.8a2.51,2.51,0,0,0,1,.09,2.23,2.23,0,0,0,1-.11,4.33,4.33,0,0,0-1.94,0Z"/><path class="cls-7" d="M331.61,409.66a2,2,0,0,0,1.09.27,2.08,2.08,0,0,0,1.11-.16,6.08,6.08,0,0,0-1.1,0A5.86,5.86,0,0,0,331.61,409.66Z"/><path class="cls-7" d="M335.06,411.6a3.6,3.6,0,0,0,1.18,0,8.11,8.11,0,0,0,1.26-.28,3.5,3.5,0,0,0,.72-.29.64.64,0,0,0,.29-.35.44.44,0,0,0-.19-.44,2.27,2.27,0,0,0-2.68.64,2,2,0,0,0-.38.75.64.64,0,0,0,0,.3,3,3,0,0,1,.52-1,2.16,2.16,0,0,1,1-.63,2,2,0,0,1,1.42.07c.19.12.12.33-.08.45a4,4,0,0,1-.67.28,9.58,9.58,0,0,1-1.21.32C335.51,411.56,335.05,411.56,335.06,411.6Z"/><path class="cls-7" d="M335.36,411.65a1,1,0,0,0,.12-.77,1.65,1.65,0,0,0-.34-.8,1.2,1.2,0,0,0-1-.55.45.45,0,0,0-.36.52,1.23,1.23,0,0,0,.22.49,3.87,3.87,0,0,0,.57.66,1.74,1.74,0,0,0,.69.43s-.24-.19-.57-.54a3.59,3.59,0,0,1-.51-.65c-.17-.23-.29-.65,0-.7s.61.23.8.45a1.8,1.8,0,0,1,.35.71A3.58,3.58,0,0,1,335.36,411.65Z"/><path class="cls-7" d="M315.32,410.85s.53-.05,1.37,0a6.3,6.3,0,0,1,3,1.09,5.65,5.65,0,0,1,1.91,2.42c.3.73.34,1.22.38,1.22s0-.13,0-.35a4.34,4.34,0,0,0-.23-.92,5.31,5.31,0,0,0-1.93-2.53,5.89,5.89,0,0,0-3.13-1.07,4.92,4.92,0,0,0-1,0A1.73,1.73,0,0,0,315.32,410.85Z"/><path class="cls-7" d="M324.31,414a16.37,16.37,0,0,0,5.41-.05c0-.06-1.22,0-2.7,0S324.32,413.92,324.31,414Z"/><path class="cls-7" d="M320.69,414c-.05,0,.1.23.23.49s.2.48.27.48.09-.28-.07-.57S320.73,414,320.69,414Z"/><path class="cls-7" d="M319.29,412.48c-.05,0,.08.22.27.4s.39.28.43.24-.08-.22-.27-.39S319.33,412.44,319.29,412.48Z"/><path class="cls-7" d="M317.32,411.8c0,.05.26.05.53.13s.47.22.52.18-.11-.28-.45-.38S317.3,411.74,317.32,411.8Z"/><path class="cls-7" d="M315.92,411.48s.09.14.24.19.3.05.32,0-.09-.14-.24-.19S315.94,411.43,315.92,411.48Z"/><path class="cls-14" d="M240.23,170.32a17.58,17.58,0,0,1,2-23.11l30.61-29.54,5.81,21.59c-.54.3-23.71,21.43-23.71,21.43L271.37,185a13.21,13.21,0,0,1,1.16,12.68l-1.1,3.29a8.1,8.1,0,0,1-11.59,4.54l-5-2.73a1.09,1.09,0,0,1-.34-1.62h0a1.1,1.1,0,0,1,1-.43l7,.57a3.2,3.2,0,0,0,3.28-2.16h0Z"/><path class="cls-14" d="M255.32,161.33c-1.23-1.8-2.79-3.41-4-5"/><path class="cls-14" d="M341.23,141.12l6.85,12.41,4.19-33.72a13.55,13.55,0,0,0-1.39-7.09,14.62,14.62,0,0,0-1.71-2.74,14.9,14.9,0,0,0-2.94-2.76c-1.07-.61-.88-2.2.22-2.32s4.1,1.5,6.46,4.72,2.61-3,2.74-5.24.87-9.23,1.59-9.72c1.06-.72,2.06.31,1.88,2.56s-.26,9.06.93,9.1,1.69-11.47,1.69-11.47-.29-2.49,1.09-2.49c2.49,0,1.05,12.19.88,13.34-.12.81,1.18.9,1.26,0s.24-11.51,2.78-11.53c1.94,0-1.1,10,.09,12.29s1.52-7.88,3.38-7.81c.69,0,1.21.13.18,5.9-.56,3.1-2.6,7.56-3.23,13.61l-.17,1.57s-3.44,29.52-8.63,47.52c-3.11,10.8-18.42,11.85-24.64,2.5-4.21-6.35-10.87-23-10.87-23Z"/><path class="cls-15" d="M365.53,114.47c0,.06-.39,0-1,.26a3.55,3.55,0,0,0-1.92,1.58l-.23.42-.14-.47a5.8,5.8,0,0,0-.91-1.83,6.74,6.74,0,0,0-3.19-2.35c-1-.35-1.64-.32-1.64-.41a3.27,3.27,0,0,1,1.73.12,6.38,6.38,0,0,1,3.45,2.38,5.86,5.86,0,0,1,.95,2l-.37,0a3.59,3.59,0,0,1,2.2-1.62A1.79,1.79,0,0,1,365.53,114.47Z"/><path class="cls-14" d="M265.28,329.66c-.63,1.9-7.11,80-7.11,80l17.48,1.19,10.6-73.73Z"/><path class="cls-11" d="M257,411.28l0-1.84,18.58.39-.11,6.05-1.15,0c-5.11.17-26,.52-29.38-.5C241.25,414.27,257,411.28,257,411.28Z"/><g class="cls-13"><path d="M268.85,415.62A6,6,0,0,1,271.3,412a6.51,6.51,0,0,1,4.35-1.17l-.11,4.8Z"/></g><g class="cls-13"><path d="M249.32,413s-5.54,1.37-4.87,2.22,21.78,1.25,31.11.66l0-.39-24.64-.25S250.39,413.06,249.32,413Z"/></g><path class="cls-7" d="M275.83,415.49l-.32,0-.92,0-3.36.07c-2.84,0-6.77.06-11.1,0s-8.26-.22-11.1-.37l-3.35-.19-.92-.07-.31,0h.32l.91,0,3.36.13c2.84.1,6.76.23,11.09.3s8.26.09,11.1.08h4.28Z"/><path class="cls-7" d="M250.9,415.51a6.64,6.64,0,0,0-.59-1.51,7.1,7.1,0,0,0-1.12-1.21,2.37,2.37,0,0,1,1.31,1.11A2.11,2.11,0,0,1,250.9,415.51Z"/><path class="cls-7" d="M256.42,413c-.06,0-.31-.27-.57-.67s-.43-.75-.38-.78.31.27.57.67S256.47,413,256.42,413Z"/><path class="cls-7" d="M257.93,412.32c0,.05-.33-.14-.64-.41s-.53-.53-.49-.57.33.14.64.41S258,412.28,257.93,412.32Z"/><path class="cls-7" d="M258.91,410.72a2.2,2.2,0,0,1-1,.09,2.23,2.23,0,0,1-1-.11,2.43,2.43,0,0,1,1-.09A2.2,2.2,0,0,1,258.91,410.72Z"/><path class="cls-7" d="M259.26,409.58a2,2,0,0,1-1.08.27,1.88,1.88,0,0,1-1.11-.16,7.27,7.27,0,0,1,1.1-.05A5.78,5.78,0,0,1,259.26,409.58Z"/><path class="cls-7" d="M255.82,411.52a3.62,3.62,0,0,1-1.18,0,7.1,7.1,0,0,1-1.26-.28,3.29,3.29,0,0,1-.72-.29.6.6,0,0,1-.29-.35.44.44,0,0,1,.19-.44,2.29,2.29,0,0,1,2.68.64,1.83,1.83,0,0,1,.37.75.58.58,0,0,1,0,.3,2.86,2.86,0,0,0-.52-.95,2.09,2.09,0,0,0-1-.64,2,2,0,0,0-1.42.07c-.19.12-.12.33.08.45a4.21,4.21,0,0,0,.66.28,10.16,10.16,0,0,0,1.22.32C255.37,411.48,255.82,411.49,255.82,411.52Z"/><path class="cls-7" d="M255.51,411.57a1.11,1.11,0,0,1-.12-.77,1.78,1.78,0,0,1,.35-.8,1.2,1.2,0,0,1,1-.55.44.44,0,0,1,.35.52,1.09,1.09,0,0,1-.21.49,3.5,3.5,0,0,1-.58.66,1.67,1.67,0,0,1-.69.43s.25-.19.58-.53a3.68,3.68,0,0,0,.51-.66c.17-.23.29-.65,0-.7a1.12,1.12,0,0,0-.8.45,1.77,1.77,0,0,0-.35.72A4,4,0,0,0,255.51,411.57Z"/><path class="cls-7" d="M275.55,410.78s-.52-.06-1.36,0a6.27,6.27,0,0,0-3,1.08,5.6,5.6,0,0,0-1.92,2.42c-.29.73-.33,1.22-.37,1.22s0-.13,0-.35a4.88,4.88,0,0,1,.22-.92,5.28,5.28,0,0,1,1.94-2.53,6,6,0,0,1,3.13-1.07,5.77,5.77,0,0,1,1,0C275.43,410.73,275.56,410.76,275.55,410.78Z"/><path class="cls-7" d="M266.57,413.9a12.05,12.05,0,0,1-2.71.2,11.38,11.38,0,0,1-2.7-.25c0-.06,1.21,0,2.7,0S266.56,413.84,266.57,413.9Z"/><path class="cls-7" d="M270.19,414s-.1.24-.23.49-.21.48-.27.48-.09-.28.06-.57S270.15,413.92,270.19,414Z"/><path class="cls-7" d="M271.59,412.4s-.08.22-.27.4-.39.29-.44.24.08-.21.28-.39S271.55,412.36,271.59,412.4Z"/><path class="cls-7" d="M273.56,411.72c0,.06-.26,0-.53.13s-.47.22-.52.18.11-.28.45-.38S273.58,411.66,273.56,411.72Z"/><path class="cls-7" d="M275,411.4c0,.06-.09.14-.24.19s-.3.06-.32,0,.09-.14.24-.19S274.94,411.35,275,411.4Z"/><path class="cls-7" d="M281.1,178.69l-12.27,28.64L254.09,405.27h31.68l17.59-172.34L310.68,406l29.26-2.48-4.06-196a31.36,31.36,0,0,0-3.15-12.57l-8.13-16.62Z"/><path class="cls-8" d="M327.89,185c0,.14-11.1.26-24.78.26s-24.77-.12-24.77-.26,11.09-.26,24.77-.26S327.89,184.86,327.89,185Z"/><path class="cls-8" d="M302.81,235.21c-.14,0-.26-11.17-.26-24.94s.12-24.94.26-24.94.26,11.16.26,24.94S303,235.21,302.81,235.21Z"/><path class="cls-8" d="M307.44,184.36a1.55,1.55,0,0,1,.05.51c0,.4,0,.88,0,1.47,0,1.36,0,3.19,0,5.42,0,4.58,0,10.89-.12,17.87,0,3.49-.09,6.81-.12,9.84a47.49,47.49,0,0,1-.49,8,9.73,9.73,0,0,1-2.25,4.93,4.93,4.93,0,0,1-1.59,1.2,14,14,0,0,0,1.44-1.33,9.91,9.91,0,0,0,2-4.87,50.86,50.86,0,0,0,.37-8c0-3,.05-6.35.08-9.84.08-7,.17-13.29.27-17.86.06-2.23.1-4.06.14-5.42,0-.59.05-1.07.06-1.47A2.24,2.24,0,0,1,307.44,184.36Z"/><path class="cls-5" d="M355.24,174.93c-.14,0-.26-11.4-.26-25.45s.12-25.46.26-25.46.26,11.39.26,25.46S355.38,174.93,355.24,174.93Z"/><path class="cls-16" d="M324.6,178.28s.35-30.19.29-30.69l19.52-2.24s-6-22.55-9.24-26.77c-8.51-11-22.06-9-22.06-9L293,109.32a16.68,16.68,0,0,0-1.72-.3,20.81,20.81,0,0,0-16.41,5.33L253,136.8l14.73,12.67,10.91-4.56,2.5,33.78Z"/><path class="cls-7" d="M295.47,168.55a42.17,42.17,0,0,0,1.25,5.43,45.75,45.75,0,0,0,2.43,5,11.48,11.48,0,0,1-2.92-4.84A11.32,11.32,0,0,1,295.47,168.55Z"/><path class="cls-7" d="M302.11,172.65a11.08,11.08,0,0,1,.13,3.34,11.2,11.2,0,0,1-.38,3.32,21.07,21.07,0,0,1,.25-6.66Z"/><polygon class="cls-17" points="285.77 112.42 285.47 178.65 294.73 178.69 285.77 112.42"/><path class="cls-8" d="M320.46,109.86l2.7,72.15h6.16l-1.4-25.63,5.13,12.42a15.42,15.42,0,0,0,14.37,9.54h0a15.44,15.44,0,0,0,15-12.44l5-34.13-16.94-11.38-3.61,29.08-8.55-25.15A22.34,22.34,0,0,0,326.5,111,11.09,11.09,0,0,0,320.46,109.86Z"/><path class="cls-5" d="M328.26,175.51a13.28,13.28,0,0,1-5.23,0,13.28,13.28,0,0,1,5.23,0Z"/><path class="cls-5" d="M328.45,165.42a18.43,18.43,0,0,1-6.17,0,18.43,18.43,0,0,1,6.17,0Z"/><path class="cls-5" d="M363,165.23c0,.15-7,.26-15.6.26s-15.6-.11-15.6-.26,7-.26,15.6-.26S363,165.09,363,165.23Z"/><path class="cls-5" d="M365.08,149.91c0,.14-9.67.26-21.58.26s-21.59-.12-21.59-.26,9.66-.26,21.59-.26S365.08,149.77,365.08,149.91Z"/><path class="cls-5" d="M341.16,133.28a95.78,95.78,0,0,1-9.9.26,95.75,95.75,0,0,1-9.91-.26,92.49,92.49,0,0,1,9.91-.26A92.53,92.53,0,0,1,341.16,133.28Z"/><path class="cls-5" d="M334.62,118a45.29,45.29,0,0,1-6.92.26,45.1,45.1,0,0,1-6.91-.26,46.68,46.68,0,0,1,6.91-.26A46.88,46.88,0,0,1,334.62,118Z"/><path class="cls-5" d="M330.49,164c-.15,0-.26-10.88-.26-24.31s.11-24.31.26-24.31.26,10.89.26,24.31S330.63,164,330.49,164Z"/><path class="cls-5" d="M343,175.46c-.14,0-.26-7.87-.26-17.59s.12-17.59.26-17.59.26,7.88.26,17.59S343.19,175.46,343,175.46Z"/><path class="cls-7" d="M327.81,111.74c.14,0,.26,10.1.26,22.56s-.12,22.57-.26,22.57-.26-10.1-.26-22.57S327.66,111.74,327.81,111.74Z"/><path class="cls-7" d="M356.45,174.56s-.12.13-.39.33a7.37,7.37,0,0,1-1.27.74,10.76,10.76,0,0,1-5.28,1,10.91,10.91,0,0,1-3.67-.84,11.3,11.3,0,0,1-3.54-2.47c-2.17-2.18-3.69-5.2-5.18-8.3-3-6.24-5.4-12.05-7-16.3-.8-2.12-1.41-3.86-1.81-5.06l-.45-1.39a2,2,0,0,1-.12-.5,2.25,2.25,0,0,1,.22.46c.15.37.32.82.54,1.36l2,5c1.69,4.2,4.12,10,7.13,16.2,1.48,3.11,3,6.08,5.05,8.2a10.46,10.46,0,0,0,6.89,3.27,11,11,0,0,0,5.18-.85C355.86,175,356.42,174.52,356.45,174.56Z"/><path class="cls-7" d="M346.79,161.13a36.13,36.13,0,0,1-.26-6.07,36.2,36.2,0,0,1,.26-6.08,35,35,0,0,1,.26,6.08A34.9,34.9,0,0,1,346.79,161.13Z"/><path class="cls-8" d="M275.87,112.69l-35.44,35.84a16.57,16.57,0,0,0-1.49,22.18l23.44,26.13L267,176.15l-10.69-14.88,20.23-11.8L275.93,182l9.84,1.36V108.88S279.91,108.78,275.87,112.69Z"/><path class="cls-5" d="M286,133.84c0,.14-6.94.26-15.51.26S255,134,255,133.84s6.94-.26,15.51-.26S286,133.69,286,133.84Z"/><path class="cls-5" d="M285.47,118.89a58.71,58.71,0,0,1-7.75.26,58.81,58.81,0,0,1-7.76-.26,56.81,56.81,0,0,1,7.76-.26A56.72,56.72,0,0,1,285.47,118.89Z"/><path class="cls-5" d="M284.91,149c0,.14-9.87.26-22.05.26s-22.05-.12-22.05-.26,9.87-.27,22.05-.27S284.91,148.83,284.91,149Z"/><path class="cls-5" d="M285.28,166.73a38.81,38.81,0,0,1-9,0,38.81,38.81,0,0,1,9,0Z"/><path class="cls-5" d="M259.87,166c0,.14-5.19.26-11.59.26s-11.58-.12-11.58-.26,5.18-.26,11.58-.26S259.87,165.84,259.87,166Z"/><path class="cls-5" d="M266,180.18a79.13,79.13,0,0,1-9.16.26,79.13,79.13,0,0,1-9.16-.26,81.91,81.91,0,0,1,9.16-.26A81.91,81.91,0,0,1,266,180.18Z"/><path class="cls-5" d="M285.66,180.18a45.55,45.55,0,0,1-9.72,0,45.55,45.55,0,0,1,9.72,0Z"/><path class="cls-5" d="M265.78,155.31c-.14,0-.26-7.17-.26-16s.12-16,.26-16,.26,7.16.26,16S265.92,155.31,265.78,155.31Z"/><path class="cls-5" d="M252.52,157.08c-.14,0-.26-4.59-.26-10.26s.12-10.25.26-10.25a99.06,99.06,0,0,1,.26,10.25A99.18,99.18,0,0,1,252.52,157.08Z"/><path class="cls-5" d="M244,175.64c-.14,0-.26-6.81-.26-15.2s.12-15.21.26-15.21.27,6.81.27,15.21S244.18,175.64,244,175.64Z"/><path class="cls-5" d="M258,190.67c-.14,0-.26-5.74-.26-12.82S257.86,165,258,165s.26,5.74.26,12.82S258.15,190.67,258,190.67Z"/><path class="cls-5" d="M281,110.4c.14,0,.26,16.11.26,36s-.12,36-.26,36-.26-16.11-.26-36S280.84,110.4,281,110.4Z"/><path class="cls-7" d="M276.37,112.56c.15,0,.26,8.42.26,18.81s-.11,18.8-.26,18.8-.26-8.42-.26-18.8S276.23,112.56,276.37,112.56Z"/><path class="cls-7" d="M259.62,165.93a52.82,52.82,0,0,1-4.51-5.63,50.63,50.63,0,0,1-4.1-6,50.32,50.32,0,0,1,4.52,5.64A47.85,47.85,0,0,1,259.62,165.93Z"/><path class="cls-7" d="M307.54,60.3a8.89,8.89,0,0,1,13.25,2.83,13.94,13.94,0,0,1,1.17,8c-.26,2.71-.87,5.4-.93,8.13-.08,3.51.73,7.14-.44,10.45a9.14,9.14,0,0,1-13.42,4.72c-2.49-1.53-4.08-4.14-5.53-6.68-1.88-3.27-3.73-6.66-4.4-10.37s0-7.88,2.7-10.57"/><path class="cls-7" d="M312.69,108.58c-.45-5.56-6.86-2.18-6.15-7.71a232.83,232.83,0,0,0,1.8-37.6"/><path class="cls-14" d="M294.87,107.57l-4.13-36.85c4.23-5.81,9.43-8.56,15.52-8.83a11.3,11.3,0,0,1,11.45,9.24c1.18,6.07,2.51,14.25,2.21,19.28-.55,9.21-7.38,11-7.38,11s.24,3.1.57,6.89c1.77.29,4.62.75,6.56,1.23.09,0-.07.37-.42,1a19,19,0,0,1-30.16,2.95l-3-4.42S290.49,108.25,294.87,107.57Z"/><path class="cls-7" d="M317.18,77.66a1.16,1.16,0,0,1-1,1.28,1.12,1.12,0,0,1-1.3-.93,1.17,1.17,0,0,1,1-1.28A1.12,1.12,0,0,1,317.18,77.66Z"/><path class="cls-7" d="M317.41,76.66c-.13.16-1.07-.4-2.32-.27s-2.11.84-2.26.7.05-.35.42-.68a3.16,3.16,0,0,1,1.79-.75,3,3,0,0,1,1.86.41C317.32,76.32,317.47,76.58,317.41,76.66Z"/><path class="cls-7" d="M304.4,79.23a1.17,1.17,0,0,1-1,1.28,1.12,1.12,0,0,1-1.3-.93,1.17,1.17,0,0,1,1-1.28A1.13,1.13,0,0,1,304.4,79.23Z"/><path class="cls-7" d="M304.61,78.12c-.13.17-1.07-.4-2.32-.27s-2.11.84-2.26.7.05-.35.42-.68a3.16,3.16,0,0,1,1.79-.75,3,3,0,0,1,1.86.41C304.52,77.78,304.67,78,304.61,78.12Z"/><path class="cls-7" d="M310.22,86.74a8.55,8.55,0,0,1,2-.57c.32-.06.62-.15.65-.38a1.66,1.66,0,0,0-.31-.92c-.37-.75-.77-1.52-1.18-2.34a43.32,43.32,0,0,1-2.75-6.15,41.72,41.72,0,0,1,3.24,5.91L313,84.65a1.82,1.82,0,0,1,.29,1.24.81.81,0,0,1-.48.52,2.7,2.7,0,0,1-.53.13A8.2,8.2,0,0,1,310.22,86.74Z"/><path class="cls-15" d="M312.54,101.46a23.18,23.18,0,0,1-12.46-2s3.56,5.94,12.55,4.2Z"/><path class="cls-15" d="M310,89.81a2.28,2.28,0,0,0-2.11-.64,2.06,2.06,0,0,0-1.34.9,1.29,1.29,0,0,0,0,1.5,1.52,1.52,0,0,0,1.68.25,4.61,4.61,0,0,0,1.5-1.11,1.38,1.38,0,0,0,.32-.4.42.42,0,0,0,0-.47"/><path class="cls-7" d="M306.62,88c.21,0,.34,1.32,1.6,2.17s2.69.56,2.71.75-.29.29-.9.37a3.44,3.44,0,0,1-2.26-.54,3,3,0,0,1-1.25-1.84C306.41,88.32,306.53,88,306.62,88Z"/><path class="cls-7" d="M313.13,74.83c.07.19.94,0,2,0s1.91.15,2,0-.78-.69-2-.68S313.05,74.65,313.13,74.83Z"/><path class="cls-7" d="M300.54,75.37s0-.1,0-.22l0,.19a8.45,8.45,0,0,1,2-.49c1.18-.12,2.12.27,2.22.08s-.14-.3-.55-.5a3.27,3.27,0,0,0-1.73-.29,2.88,2.88,0,0,0-2.05,1l-.09.14.05,0C300.43,75.37,300.5,75.39,300.54,75.37Z"/><path class="cls-15" d="M300.22,83.52c.1,0,.19-.13.22-.31s-.05-.33-.14-.35-.2.13-.22.31S300.12,83.5,300.22,83.52Z"/><path class="cls-15" d="M303.09,83.39c.09,0,.16-.17.09-.34s-.24-.24-.31-.17a.28.28,0,0,0,0,.31C302.9,83.3,303,83.4,303.09,83.39Z"/><path class="cls-15" d="M301.54,84.63a.21.21,0,0,0,.16-.23c0-.13-.09-.22-.19-.21a.2.2,0,0,0-.17.23C301.35,84.54,301.44,84.64,301.54,84.63Z"/><path class="cls-15" d="M317.9,82.83c.1,0,.16-.17.14-.35s-.12-.31-.22-.3-.16.17-.14.35S317.8,82.84,317.9,82.83Z"/><path class="cls-15" d="M315,82.89c.1,0,.18-.13.17-.28s-.1-.26-.2-.25-.17.13-.16.27S314.91,82.89,315,82.89Z"/><path class="cls-15" d="M316.42,83.8c.1,0,.18-.14.19-.32s-.08-.32-.18-.33-.18.15-.18.33S316.32,83.8,316.42,83.8Z"/><path class="cls-7" d="M311.45,58.39a11.29,11.29,0,0,1-9.53,14.21,3.89,3.89,0,0,0-2.19.64,4.07,4.07,0,0,0-1,2.32,8.9,8.9,0,0,1-4.31,5.64c2.75,5.14,3.24,14-.67,16.73-9.8-5-5.32-13.09-7-18.52-1.91-6.39.47-12.9,5.27-17.53s13-5.63,19.34-3.49"/><path class="cls-7" d="M287.61,73.75a10.78,10.78,0,0,0,2.21-6.16,7.76,7.76,0,0,0-2.51-5.94,8.07,8.07,0,0,0-4.3-1.83,9.79,9.79,0,0,0-9.07,4,9.26,9.26,0,0,0-.38,9.84,8.78,8.78,0,0,0,8.91,4,8.36,8.36,0,0,0,6.63-7.1"/></g><g id="Character_1" data-name="Character 1"><path class="cls-11" d="M153.72,405.83l-2,8.3S138.17,431.77,134,430.91c-2.75-.57.63-5.17,5.79-18.57l1.09-5.53Z"/><path class="cls-7" d="M133.43,428.3a1.66,1.66,0,0,0,.72.7,2.53,2.53,0,0,0,2.6-.36,76.71,76.71,0,0,0,6.76-6.41c2.51-2.64,4.63-5.18,6.11-7.05l1.74-2.23c.16-.22.32-.42.47-.61a1.24,1.24,0,0,1,.17-.2,1.3,1.3,0,0,1-.13.23l-.44.64c-.38.54-1,1.33-1.67,2.28a90.4,90.4,0,0,1-6.07,7.11,66.8,66.8,0,0,1-6.84,6.38,3.19,3.19,0,0,1-1.54.56,2.14,2.14,0,0,1-1.2-.26,1.52,1.52,0,0,1-.58-.53A.68.68,0,0,1,133.43,428.3Z"/><path class="cls-7" d="M135.35,422.63a2.29,2.29,0,0,1,1.12-.12,6,6,0,0,1,2.56.89,4.76,4.76,0,0,1,1.86,2,2.48,2.48,0,0,1,.29,1.08s-.13-.41-.45-1a5,5,0,0,0-1.83-1.83,6.5,6.5,0,0,0-2.45-.93C135.78,422.59,135.36,422.68,135.35,422.63Z"/><path class="cls-7" d="M148.21,418.49s-.08-.13-.17-.39a7.64,7.64,0,0,1-.26-1.14,6.11,6.11,0,0,1,.63-3.78,5.9,5.9,0,0,1,2.74-2.67,4.51,4.51,0,0,1,1.13-.34,1.48,1.48,0,0,1,.42,0,10.37,10.37,0,0,0-1.47.53,6,6,0,0,0-2.6,2.62,6.37,6.37,0,0,0-.68,3.65C148.06,417.9,148.25,418.48,148.21,418.49Z"/><path class="cls-7" d="M152.86,407.24c.06,0-.25,1.18-.5,2.65a9,9,0,0,1-.71,2.61c-.05,0,.22-1.19.47-2.66A8.56,8.56,0,0,1,152.86,407.24Z"/><path class="cls-7" d="M139.53,413.52a3,3,0,0,1,1.74,0,3.13,3.13,0,0,1,1.58.74c0,.06-.72-.3-1.63-.51S139.54,413.59,139.53,413.52Z"/><path class="cls-7" d="M139.25,414.94a2.74,2.74,0,0,1,2.76.65c0,.06-.59-.29-1.35-.47S139.26,415,139.25,414.94Z"/><path class="cls-7" d="M138.17,416.72a1.81,1.81,0,0,1,1.52-.19,1.78,1.78,0,0,1,1.28.83,6,6,0,0,0-1.34-.6A6.76,6.76,0,0,0,138.17,416.72Z"/><path class="cls-7" d="M140.47,412.92s.62-.17,1.59-.55a12.42,12.42,0,0,0,1.64-.78c.3-.17.6-.37.9-.58s.58-.51.57-.83-.41-.5-.72-.42a2,2,0,0,0-.84.56c-.5.47-.93.92-1.28,1.31-.69.78-1.07,1.3-1.11,1.27a1.94,1.94,0,0,1,.24-.39c.16-.24.41-.59.74-1s.76-.87,1.25-1.36a2.2,2.2,0,0,1,.94-.63.8.8,0,0,1,1,.64,1.35,1.35,0,0,1-.68,1,9.44,9.44,0,0,1-.93.58,11.32,11.32,0,0,1-1.69.76,8.16,8.16,0,0,1-1.2.32A1.69,1.69,0,0,1,140.47,412.92Z"/><path class="cls-7" d="M141.18,412.75a14.8,14.8,0,0,1-.25-1.52,6.17,6.17,0,0,0-.46-1.57,3.6,3.6,0,0,0-.51-.8c-.21-.23-.52-.44-.78-.29s-.28.52-.25.83a3.84,3.84,0,0,0,.27.91,5,5,0,0,0,.89,1.37c.62.7,1.12,1,1.09,1.07a1.4,1.4,0,0,1-.36-.21,7.25,7.25,0,0,1-.86-.74,5.21,5.21,0,0,1-1-1.4,3.55,3.55,0,0,1-.29-1,1,1,0,0,1,.37-1.07.9.9,0,0,1,1.07.34,3.18,3.18,0,0,1,.53.87,5.82,5.82,0,0,1,.43,1.63c.06.48.08.87.09,1.13A1.25,1.25,0,0,1,141.18,412.75Z"/><g class="cls-12"><path d="M151.75,414.13l.95-4s-3.32.62-4.19,3.11a10.52,10.52,0,0,0-.65,4.26l-7.23,7.79s-1.82-3.55-5.1-2.69c0,0-2.59,5.68-2.51,7.11s1.74,1.25,2.33,1a29.67,29.67,0,0,0,6.48-5.12C145.66,421.62,149.89,416.58,151.75,414.13Z"/></g><path class="cls-11" d="M218.8,409.68l.06-11.07-20.74-.25-.27,16.2,1.29.1c5.72.38,29.11,1.56,33,.45C236.37,413.87,218.8,409.68,218.8,409.68Z"/><g class="cls-12"><path d="M205.38,414.49a7.22,7.22,0,0,0-2.6-4.46,7.05,7.05,0,0,0-4.83-1.57l-.07,5.8Z"/></g><g class="cls-12"><path d="M227.38,412s6.16,1.86,5.37,2.87-24.46.7-34.9-.34l0-.47,27.62.59S226.17,412.07,227.38,412Z"/></g><path class="cls-7" d="M197.57,414.08l.35,0,1,.08,3.76.21c3.19.15,7.59.31,12.45.37s9.27,0,12.45,0l3.77-.11,1,0,.36,0-.36,0h-1l-3.77,0c-3.19,0-7.59,0-12.45,0s-9.26-.19-12.44-.3L199,414.1l-1,0Z"/><path class="cls-7" d="M225.5,415a8.8,8.8,0,0,1,.73-1.79,8.17,8.17,0,0,1,1.31-1.42,2.7,2.7,0,0,0-1.52,1.29A2.82,2.82,0,0,0,225.5,415Z"/><path class="cls-7" d="M219.42,411.82c.06,0,.36-.31.67-.79s.51-.88.45-.92-.35.31-.66.79S219.36,411.78,219.42,411.82Z"/><path class="cls-7" d="M217.75,410.91c.05,0,.38-.16.74-.48s.62-.61.57-.67-.37.17-.73.48S217.71,410.86,217.75,410.91Z"/><path class="cls-7" d="M216.72,408.94a2.37,2.37,0,0,0,1.08.15,2.29,2.29,0,0,0,1.08-.1,2.34,2.34,0,0,0-1.08-.15A2.49,2.49,0,0,0,216.72,408.94Z"/><path class="cls-7" d="M216.37,407.55a2,2,0,0,0,1.2.37,2.07,2.07,0,0,0,1.25-.15,6.69,6.69,0,0,0-1.22-.1A7.61,7.61,0,0,0,216.37,407.55Z"/><path class="cls-7" d="M220.15,410a3.71,3.71,0,0,0,1.33,0,8.54,8.54,0,0,0,1.43-.3,3.78,3.78,0,0,0,.81-.32.74.74,0,0,0,.34-.41.53.53,0,0,0-.2-.54,2.45,2.45,0,0,0-3,.68,2.52,2.52,0,0,0-.45.88c0,.23,0,.36,0,.36a3.49,3.49,0,0,1,.62-1.13,2.45,2.45,0,0,1,1.15-.72,2.07,2.07,0,0,1,1.58.13c.21.16.13.41-.11.54a4.09,4.09,0,0,1-.75.31,8.34,8.34,0,0,1-1.38.34C220.66,410,220.15,410,220.15,410Z"/><path class="cls-7" d="M220.49,410.09a1.29,1.29,0,0,0,.17-.92,2.16,2.16,0,0,0-.35-1,1.35,1.35,0,0,0-1.1-.7.54.54,0,0,0-.42.62,1.35,1.35,0,0,0,.22.59,3.73,3.73,0,0,0,.62.82,2.08,2.08,0,0,0,.75.55s-.26-.25-.62-.67a5,5,0,0,1-.55-.81c-.18-.28-.3-.79,0-.85s.67.31.87.58a2.13,2.13,0,0,1,.36.87A4,4,0,0,1,220.49,410.09Z"/><path class="cls-7" d="M198.06,408.41s.6-.05,1.53.07a6.49,6.49,0,0,1,5.38,4.4c.31.89.33,1.49.38,1.49a1.51,1.51,0,0,0,0-.42,5.83,5.83,0,0,0-.21-1.12,6.37,6.37,0,0,0-2.06-3.12,6.47,6.47,0,0,0-3.47-1.41,5.1,5.1,0,0,0-1.14,0C198.2,408.35,198.06,408.39,198.06,408.41Z"/><path class="cls-7" d="M200.32,399.8a36.87,36.87,0,0,0-.23,4.26,40.29,40.29,0,0,0,0,4.27,70,70,0,0,0,.22-8.53Z"/><path class="cls-7" d="M208,412.5a12.3,12.3,0,0,0,3,.34,11.3,11.3,0,0,0,3-.21c0-.07-1.36,0-3-.05S208,412.42,208,412.5Z"/><path class="cls-7" d="M204,412.44c0,.05.1.29.24.6s.2.59.28.59.11-.33-.05-.69S204,412.39,204,412.44Z"/><path class="cls-7" d="M202.44,410.51c-.05.05.08.27.29.49s.43.36.48.31-.09-.27-.3-.49S202.49,410.46,202.44,410.51Z"/><path class="cls-7" d="M200.26,409.61c0,.07.29.08.59.19s.52.27.58.23-.12-.34-.5-.47S200.24,409.55,200.26,409.61Z"/><path class="cls-7" d="M198.7,409.18c0,.07.09.18.26.24s.34.08.36,0-.09-.17-.26-.24S198.73,409.12,198.7,409.18Z"/><polygon class="cls-8" points="229.26 200.32 220.67 406.97 195.38 406.54 197.9 226.03 157.38 407.54 135.35 407.54 170.42 198.01 229.26 200.32"/><path class="cls-7" d="M205.34,205.15a20.48,20.48,0,0,1-.37,3.43c-.3,2.1-.76,5-1.3,8.2a33.71,33.71,0,0,1-.92,4.52,6.35,6.35,0,0,1-2.11,3.17,5,5,0,0,1-2.34,1.05,1.87,1.87,0,0,1-.94,0,6.07,6.07,0,0,0,3-1.34,6.25,6.25,0,0,0,1.86-3,39.57,39.57,0,0,0,.86-4.45c.54-3.2,1.06-6.09,1.46-8.18A19.89,19.89,0,0,1,205.34,205.15Z"/><path class="cls-7" d="M198.62,206.15c.07,0-.19.38,0,.93a1.1,1.1,0,0,0,.54.7.89.89,0,0,0,1-.19.87.87,0,0,0,.31-.93,1.07,1.07,0,0,0-.62-.63c-.52-.22-.89,0-.93-.08s.3-.47,1.06-.3a1.33,1.33,0,0,1,.56,2.37,1.39,1.39,0,0,1-1.59.22,1.42,1.42,0,0,1-.69-1.09C198.11,206.38,198.6,206.08,198.62,206.15Z"/><path class="cls-7" d="M181.27,209.11a6.1,6.1,0,0,1,.62-5.77c.15.07-.32,1.3-.48,2.87S181.43,209.08,181.27,209.11Z"/><path class="cls-7" d="M185.15,208.87a5.1,5.1,0,0,1-.46-3.06,5.16,5.16,0,0,1,.88-3,24.07,24.07,0,0,1-.31,3A23.74,23.74,0,0,1,185.15,208.87Z"/><path class="cls-7" d="M218.54,209.71a19,19,0,0,1,.18-3.12,20.18,20.18,0,0,1,.14-3.12,8.56,8.56,0,0,1-.32,6.24Z"/><path class="cls-7" d="M222.76,209.48c-.15-.07.35-1.42.46-3.17s-.18-3.16,0-3.2a5,5,0,0,1,.59,3.24A5,5,0,0,1,222.76,209.48Z"/><path class="cls-14" d="M187.79,111.09l19.94-1.59c.12-2.33,0-11.34,0-11.34s8.29-1.29,8.4-9.58-1.34-27.35-1.34-27.35h0a28.84,28.84,0,0,0-29,3.64l-1.23.95Z"/><path class="cls-15" d="M207.7,98.05A19.36,19.36,0,0,1,196.88,95s2.56,6,10.84,5.22Z"/><path class="cls-14" d="M185.57,74.41c-.14-.06-5.7-1.68-5.52,4s5.84,4.32,5.85,4.16S185.57,74.41,185.57,74.41Z"/><path class="cls-15" d="M184.09,80.46s-.09.07-.26.16a1,1,0,0,1-.74,0,2.48,2.48,0,0,1-1.2-2.16,3.31,3.31,0,0,1,.23-1.43,1.15,1.15,0,0,1,.72-.78.52.52,0,0,1,.6.25c.08.16,0,.28.07.28s.12-.09.07-.33a.71.71,0,0,0-.23-.35.8.8,0,0,0-.56-.12,1.39,1.39,0,0,0-1,.91,3.3,3.3,0,0,0-.29,1.59,2.55,2.55,0,0,0,1.52,2.4,1,1,0,0,0,.9-.17C184.09,80.6,184.11,80.47,184.09,80.46Z"/><path class="cls-7" d="M212.92,74.23a1.19,1.19,0,0,1-1.14,1.2,1.13,1.13,0,0,1-1.22-1.07,1.2,1.2,0,0,1,1.14-1.2A1.14,1.14,0,0,1,212.92,74.23Z"/><path class="cls-7" d="M213.18,72.9c-.15.16-1-.51-2.32-.5s-2.21.64-2.35.48.09-.35.49-.64a3.18,3.18,0,0,1,1.88-.58,3.1,3.1,0,0,1,1.85.59C213.12,72.55,213.25,72.83,213.18,72.9Z"/><path class="cls-7" d="M200.44,74.53a1.19,1.19,0,0,1-1.15,1.2,1.14,1.14,0,0,1-1.22-1.07,1.19,1.19,0,0,1,1.14-1.2A1.15,1.15,0,0,1,200.44,74.53Z"/><path class="cls-7" d="M200.65,73.14c-.15.15-1.05-.51-2.32-.51s-2.21.64-2.35.49.08-.35.49-.65a3.33,3.33,0,0,1,1.88-.58,3.19,3.19,0,0,1,1.85.6C200.59,72.79,200.72,73.07,200.65,73.14Z"/><path class="cls-7" d="M205.28,82.59a8.93,8.93,0,0,1,2.07-.37c.32,0,.63-.1.69-.32a1.68,1.68,0,0,0-.22-1c-.31-.79-.63-1.62-1-2.48A42.81,42.81,0,0,1,204.69,72a41.21,41.21,0,0,1,2.68,6.3l.92,2.49a1.83,1.83,0,0,1,.17,1.28.81.81,0,0,1-.53.48,2.36,2.36,0,0,1-.55.07A7.73,7.73,0,0,1,205.28,82.59Z"/><path class="cls-7" d="M201.52,83.48c.21,0,.21,1.37,1.4,2.35s2.66.83,2.67,1-.33.27-1,.29a3.39,3.39,0,0,1-2.23-.78,3,3,0,0,1-1.08-2C201.27,83.81,201.43,83.47,201.52,83.48Z"/><path class="cls-7" d="M201,68.14c-.13.35-1.4.19-2.9.37s-2.7.58-2.9.27c-.09-.15.12-.47.61-.81a4.88,4.88,0,0,1,2.15-.75,4.74,4.74,0,0,1,2.27.27C200.76,67.71,201,68,201,68.14Z"/><path class="cls-7" d="M212.71,69.21c-.22.29-1.1,0-2.16,0s-2,.19-2.15-.11c-.09-.15,0-.44.44-.71a2.94,2.94,0,0,1,1.75-.48,3.11,3.11,0,0,1,1.73.58C212.69,68.77,212.81,69.07,212.71,69.21Z"/><path class="cls-7" d="M184.45,71.17a5.21,5.21,0,0,1-3.69-6.25,7.45,7.45,0,0,1,6.18-12.44,8.11,8.11,0,0,1,14.38-5,6.68,6.68,0,0,1,11.35,6.24,3.63,3.63,0,0,1,4.85,5.38,2.65,2.65,0,0,1,.11,5.17,3.51,3.51,0,0,1-6.71,1.1c-.43,2-2.94,3-4.85,2.29a6.89,6.89,0,0,1-3.88-4.39,3.54,3.54,0,0,1-6,.07,3.42,3.42,0,0,1-2.66,4.4,4.89,4.89,0,0,1-9.77-.62"/><path class="cls-7" d="M183,67.32c.25,2.24,1,6.77,1.33,9a2.72,2.72,0,0,0,.75,1.75,1.85,1.85,0,0,0,2.49-.55,5.21,5.21,0,0,0,.81-2.69c.27-2.29.53-4.59.8-6.88"/><path class="cls-8" d="M203.85,74.15c-.06,0,0-.49-.27-1.32a5.58,5.58,0,0,0-2-2.93,5.32,5.32,0,0,0-8.5,4.25,5.32,5.32,0,0,0,8.5,4.25,5.56,5.56,0,0,0,2-2.92c.23-.84.21-1.33.27-1.33a1.11,1.11,0,0,1,0,.36,4,4,0,0,1-.11,1,5.44,5.44,0,0,1-2,3.16,5.73,5.73,0,0,1-9.24-4.54,5.77,5.77,0,0,1,1.13-3.42,5.7,5.7,0,0,1,8.11-1.12,5.46,5.46,0,0,1,2,3.17,3.87,3.87,0,0,1,.11,1A1.07,1.07,0,0,1,203.85,74.15Z"/><path class="cls-8" d="M218.13,74.15c-.06,0,0-.49-.28-1.32a5.5,5.5,0,0,0-2-2.93,5.4,5.4,0,0,0-5-.72,5.31,5.31,0,1,0,5,9.22,5.48,5.48,0,0,0,2-2.92c.24-.84.22-1.33.28-1.33a1.11,1.11,0,0,1,0,.36,4,4,0,0,1-.11,1,5.44,5.44,0,0,1-2,3.16,5.73,5.73,0,0,1-9.24-4.54,5.77,5.77,0,0,1,1.13-3.42,5.7,5.7,0,0,1,8.11-1.12,5.46,5.46,0,0,1,2,3.17,3.87,3.87,0,0,1,.11,1A1.07,1.07,0,0,1,218.13,74.15Z"/><path class="cls-8" d="M207,73.57c0,.14-.72.26-1.61.26s-1.62-.12-1.62-.26.72-.26,1.62-.26S207,73.43,207,73.57Z"/><path class="cls-8" d="M193.39,73.31A19.66,19.66,0,0,1,189,74a19.35,19.35,0,0,1-4.45.21,19.31,19.31,0,0,1,4.4-.73A19,19,0,0,1,193.39,73.31Z"/><path class="cls-8" d="M196.26,51.39a.88.88,0,0,1,.43.17,1.93,1.93,0,0,1,.79,1.07,2.36,2.36,0,0,1-2.82,3.09,3,3,0,0,1-2.49-2.24A4.16,4.16,0,0,1,193,49.7c1.83-2.2,5.42-2.8,8.33-1.5a6.61,6.61,0,0,1,3.27,2.91,3.83,3.83,0,0,1-.27,4.06l-.28-.38a4.92,4.92,0,0,1,5.52,1,4.13,4.13,0,0,1,.88,4.34,3.8,3.8,0,0,1-2.09,2.06,3.22,3.22,0,0,1-.77.18c-.18,0-.27,0-.27,0a7.62,7.62,0,0,0,1-.32,3.78,3.78,0,0,0,1.88-2,3.85,3.85,0,0,0-.9-4,4.51,4.51,0,0,0-5-.87l-.88.39.59-.76a3.34,3.34,0,0,0,.19-3.53,6.1,6.1,0,0,0-3-2.67c-2.72-1.22-6.09-.64-7.75,1.34a3.74,3.74,0,0,0-.81,3.36,2.67,2.67,0,0,0,2.14,2,2.24,2.24,0,0,0,2.28-.79,2.29,2.29,0,0,0,.28-1.88,1.88,1.88,0,0,0-.65-1C196.4,51.46,196.25,51.41,196.26,51.39Z"/><path class="cls-11" d="M231.25,116.26s7.33,7.61,7.47,28.08c.11,14.79,1.45,32.67,1.45,32.67L230,176.2l1.22-59.94"/><path class="cls-11" d="M161.29,122c1.76-5.92,8.1-12.33,16.9-14,2.8-.54,5.52-1.55,8.8-1.69h0a35.33,35.33,0,0,0,21.27,0c.86.1,2.06.22,3.57.4,9.24,1.09,12.78,3,19.42,9.56l-.73,37.39s-.32,42.32-.49,49.2l-60.57.21,3.46-39.8"/><path class="cls-11" d="M172.92,163.26l-11.63,15.15,4.42,4.51L153.42,199s-21.83-13.14-21.23-16.77S162,120,162,120s11.8,1.23,10.89,18.45S172.92,163.26,172.92,163.26Z"/><path class="cls-7" d="M173.58,169.25a5.5,5.5,0,0,1-.21-1.24c-.1-.79-.22-1.95-.36-3.37-.28-2.86-.63-6.8-.88-11.17s-.33-8.34-.29-11.21c0-1.43.06-2.59.11-3.39a5.34,5.34,0,0,1,.12-1.25,6.75,6.75,0,0,1,.08,1.25q0,1.37.06,3.39c0,2.86.19,6.82.44,11.18s.53,8.2.73,11.17c.08,1.35.14,2.48.19,3.39A6.36,6.36,0,0,1,173.58,169.25Z"/><path class="cls-7" d="M148.65,183.37a5.46,5.46,0,0,1,1.36-1.63,15.17,15.17,0,0,1,4.27-2.83,11.08,11.08,0,0,1,5-1.14,2.65,2.65,0,0,1,2,.81,6.27,6.27,0,0,0-2-.44,12.61,12.61,0,0,0-4.78,1.24A24.44,24.44,0,0,0,148.65,183.37Z"/><path class="cls-7" d="M151.14,173.39a12.1,12.1,0,0,1,6,.89,16.08,16.08,0,0,1,2.16,1,6.37,6.37,0,0,1,1.62,1.14,1.46,1.46,0,0,1,.37,1.33c-.1.33-.29.43-.3.41s.08-.17.1-.45a1.33,1.33,0,0,0-.44-1,7.67,7.67,0,0,0-1.57-1,22.4,22.4,0,0,0-2.12-.93A35.19,35.19,0,0,0,151.14,173.39Z"/><path class="cls-7" d="M230.19,185.09c-.14,0-.29-12.12-.34-27.08s0-27.08.18-27.08.3,12.12.34,27.08S230.34,185.09,230.19,185.09Z"/><g class="cls-13"><path d="M172.41,163.93c-2.12-4.49-3.8-9-5.48-13.62-.16-.45-.3-1,0-1.34a.85.85,0,0,1,1.07,0,2.51,2.51,0,0,1,.63,1,30.51,30.51,0,0,1,1.33-8.9c.15-.46.45-1,.93-1s.66.72.67,1.23c.27,7.55,1,14.37,1.31,21.93"/></g><g class="cls-13"><path d="M161.36,178.23a1.86,1.86,0,0,0-.92-1.22,4.55,4.55,0,0,0-1.48-.5A14,14,0,0,0,147.4,179a3.72,3.72,0,0,0-1.24,1.55,1.63,1.63,0,0,0,.44,1.83,1.68,1.68,0,0,0,1.5.16,5.72,5.72,0,0,0,1.37-.75A26.25,26.25,0,0,1,155,179a11.57,11.57,0,0,1,6.32-.75"/></g><path class="cls-7" d="M172.43,154.09s-.14.2-.49.43a3,3,0,0,1-.68.35,1.29,1.29,0,0,1-.51.1.75.75,0,0,1-.57-.26,21.9,21.9,0,0,1-3-4.93,40.72,40.72,0,0,1-2-5.35,10.3,10.3,0,0,1-.57-2.3,11.29,11.29,0,0,1,.92,2.18c.51,1.36,1.19,3.25,2.12,5.25a27.89,27.89,0,0,0,2.74,4.9c.16.25.46.19.72.14a3.35,3.35,0,0,0,.67-.26C172.21,154.17,172.4,154.06,172.43,154.09Z"/><path class="cls-7" d="M181.05,197.7a.72.72,0,0,1,0-.23c0-.19,0-.41-.06-.69q-.06-1-.15-2.64c-.12-2.28-.27-5.6-.42-9.7-.29-8.19-.58-19.52-.61-32s.24-23.84.71-32c.26-4.1.47-7.41.73-9.69.11-1.1.2-2,.27-2.63,0-.27.06-.49.08-.68a.65.65,0,0,1,.05-.23.73.73,0,0,1,0,.24c0,.18,0,.41,0,.68,0,.65-.1,1.53-.17,2.64-.2,2.28-.35,5.59-.57,9.68-.36,8.19-.59,19.51-.55,32s.26,23.83.46,32c.11,4.06.19,7.37.25,9.71q0,1.67.06,2.64v.68A.64.64,0,0,1,181.05,197.7Z"/><path class="cls-7" d="M199.59,107.87s0,.09,0,.25,0,.43.07.72q.08,1,.21,2.76c.18,2.4.39,5.88.61,10.18.46,8.6.89,20.49.93,33.63s-.36,25.05-.84,33.65c-.23,4.3-.47,7.77-.67,10.17-.1,1.17-.18,2.09-.24,2.77,0,.28,0,.52-.07.71s0,.25,0,.25a.62.62,0,0,1,0-.25c0-.19,0-.43,0-.72,0-.68.08-1.6.14-2.77.14-2.4.32-5.88.51-10.18.38-8.6.71-20.49.68-33.62s-.42-25-.77-33.62c-.19-4.27-.35-7.74-.45-10.19-.05-1.17-.09-2.09-.12-2.77,0-.29,0-.53,0-.72A.72.72,0,0,1,199.59,107.87Z"/><path class="cls-7" d="M218.28,203.38a.92.92,0,0,1,0-.24c0-.19,0-.42-.05-.71,0-.67-.08-1.58-.14-2.74-.11-2.37-.22-5.81-.3-10.06-.16-8.51-.09-20.26.54-33.22S220,131.73,221,123.29c.5-4.23,1-7.64,1.3-10,.17-1.14.31-2,.41-2.71l.12-.7c0-.16,0-.24,0-.24a.84.84,0,0,1,0,.25c0,.19,0,.42-.07.71-.08.66-.18,1.57-.31,2.72-.29,2.36-.68,5.77-1.13,10-.91,8.45-1.95,20.15-2.6,33.1s-.76,24.7-.69,33.19c0,4.25.08,7.69.14,10.07,0,1.15,0,2.07,0,2.74v.71A1.1,1.1,0,0,1,218.28,203.38Z"/><path class="cls-7" d="M140.68,189.5a6.28,6.28,0,0,1-.47-.67,7.67,7.67,0,0,1-.84-2.19c-.5-2-.17-5.07,1.14-8.47.63-1.71,1.5-3.51,2.38-5.45s1.81-4,2.79-6.2c1.95-4.38,4-9.22,6.13-14.34,4.21-10.23,7.67-19.63,10.09-26.47,1.18-3.38,2.14-6.14,2.82-8.11l.77-2.2a4.93,4.93,0,0,1,.3-.76,4,4,0,0,1-.2.79c-.17.56-.4,1.3-.68,2.24-.6,1.94-1.5,4.73-2.66,8.17-2.34,6.86-5.75,16.3-10,26.54-2.1,5.12-4.2,10-6.17,14.33-1,2.19-1.93,4.26-2.84,6.19s-1.78,3.72-2.42,5.4c-1.34,3.35-1.72,6.33-1.29,8.3A9.65,9.65,0,0,0,140.68,189.5Z"/><path class="cls-7" d="M155.43,174.84c-.13-.06,2.49-5.57,5.84-12.31s6.17-12.14,6.3-12.08-2.48,5.58-5.84,12.31S155.56,174.91,155.43,174.84Z"/><path class="cls-7" d="M158.49,190.09a14.78,14.78,0,0,1-6.21-9.29,50.66,50.66,0,0,0,2.63,5A53.25,53.25,0,0,0,158.49,190.09Z"/><g class="cls-13"><path d="M182.6,183.39a94.33,94.33,0,0,0,49.24-.54Z"/></g><path class="cls-14" d="M183.5,199.81S192.78,212,193.34,214c.35,1.24-.48,1.8-1.56,1.08s-7.52-7.43-7.52-7.43-1.4-.64-.76.34,5.3,9,5.7,10.26c.9,2.93-1.28,4.08-2.44,2.61a13.85,13.85,0,0,1-1-1.33,3.8,3.8,0,0,1-.25,2,1.39,1.39,0,0,1-2,.12c-.58-.85-3.44-5.36-3.56-5.72a8.14,8.14,0,0,0-.69-1.2,41.14,41.14,0,0,1,.63,5.11c-.11.85-1.58.58-2.3-.74s-3.11-6.59-3.11-6.59-7.45-6.73-8.17-8.29a25.74,25.74,0,0,1-1.2-3.24l-9.37-5,7.74-10.13s17,10.6,20.15,14.12"/><path class="cls-15" d="M181.05,210a19.89,19.89,0,0,1,2.86,4.55,20.62,20.62,0,0,1,2.05,5,43.42,43.42,0,0,1-2.52-4.73A47.83,47.83,0,0,1,181.05,210Z"/><path class="cls-15" d="M176.91,209.55a6.2,6.2,0,0,1,1.88,2.78,6.1,6.1,0,0,1,.67,3.28c-.15,0-.44-1.42-1.15-3.08S176.79,209.64,176.91,209.55Z"/><path class="cls-14" d="M254.4,182.15s.33,3.67-.38,4.66-5.4,1-7.52,1H230.23l-.07-5.82Z"/><path class="cls-2" d="M268.71,146.27c-4.53,10.06-17.22,36.58-17.22,36.58H182.7a3.21,3.21,0,0,1,3.2-3.21h12.61l14.69-35.5a2.7,2.7,0,0,1,2.49-1.67h50.56A2.7,2.7,0,0,1,268.71,146.27Z"/><path class="cls-4" d="M238.26,162.92a2.89,2.89,0,0,0-2.38-1,3,3,0,0,0-2.77,2.56,2.64,2.64,0,0,0,2.29,2.68,3.05,3.05,0,0,0,3.06-1.92A2.46,2.46,0,0,0,238.26,162.92Z"/><path class="cls-14" d="M251,184.51a35.33,35.33,0,0,0-.32-9.47,3.3,3.3,0,0,0-.44-1.14,1.4,1.4,0,0,0-1-.63A1.44,1.44,0,0,0,248,174a4.17,4.17,0,0,0-.4,1.48c-.28,2.2-.53,7.14-.52,9.36"/><path class="cls-14" d="M247.11,184a22.87,22.87,0,0,0,0-7.61,3.51,3.51,0,0,0-.44-1.14,1.4,1.4,0,0,0-1-.63,1.42,1.42,0,0,0-1.24.77,4,4,0,0,0-.4,1.48,52.46,52.46,0,0,0-.42,6.63"/><path class="cls-14" d="M243.53,186.39a22.36,22.36,0,0,0,0-7.61,3.23,3.23,0,0,0-.43-1.13,1.36,1.36,0,0,0-1-.63,1.4,1.4,0,0,0-1.24.77,3.86,3.86,0,0,0-.39,1.47,50.77,50.77,0,0,0-.42,6.63"/><path class="cls-14" d="M254.28,185.57a21.28,21.28,0,0,0-.17-5.87,3.28,3.28,0,0,0-.43-1.14,1.26,1.26,0,0,0-2.25.14,4,4,0,0,0-.39,1.48,48.88,48.88,0,0,0-.42,6.63"/><path class="cls-15" d="M242.8,186c0-.07.47,0,.82-.56s.24-1.41.19-2.46a14.38,14.38,0,0,1,.07-3.79,13.42,13.42,0,0,1,.45,3.76c0,.52.06,1,0,1.49a2,2,0,0,1-.45,1.23,1.23,1.23,0,0,1-.79.42C242.9,186.14,242.79,186.07,242.8,186Z"/><path class="cls-15" d="M247,186.46a1.31,1.31,0,0,0,.56-1,6.64,6.64,0,0,0-.06-1.36c0-.57-.08-1.13-.12-1.72a18.5,18.5,0,0,1,0-4.43,19.28,19.28,0,0,1,.53,4.4c0,.59.05,1.15.08,1.72a5.25,5.25,0,0,1-.06,1.45,1.34,1.34,0,0,1-.54.88C247.13,186.52,247,186.49,247,186.46Z"/><path class="cls-15" d="M251.74,185.5a14.34,14.34,0,0,1-.57-6.59,13.88,13.88,0,0,1,.42,3.28A14.68,14.68,0,0,1,251.74,185.5Z"/></g></g></svg>